%
M48
M72
T01C0.01200
T02C0.01378
%
T01
X58053Y80641
X55053Y80641
X50853Y87241
X46053Y76441
X46053Y73441
X43053Y71641
X37053Y65641
X41253Y61441
X38853Y53641
X31053Y56041
X27453Y53641
X25053Y58441
X28653Y68041
X23253Y77641
X25053Y93841
X27453Y101641
X50253Y61441
X50253Y51241
X53853Y105241
T02
X43853Y36041
X24753Y36041
M30
