G75*
%MOIN*%
%OFA0B0*%
%FSLAX25Y25*%
%IPPOS*%
%LPD*%
%AMOC8*
5,1,8,0,0,1.08239X$1,22.5*
%
%ADD10C,0.00000*%
%ADD11C,0.00512*%
%ADD12C,0.00400*%
%ADD13C,0.00300*%
%ADD14C,0.01200*%
%ADD15C,0.00600*%
%ADD16C,0.00500*%
%ADD17R,0.05512X0.00787*%
%ADD18R,0.01969X0.01969*%
%ADD19C,0.00700*%
%ADD20R,0.03000X0.00500*%
%ADD21C,0.00800*%
D10*
X0007053Y0016441D02*
X0007053Y0121401D01*
X0065754Y0121401D01*
X0065754Y0016441D01*
X0007053Y0016441D01*
D11*
X0065754Y0016441D02*
X0094730Y0016441D01*
X0087053Y0016697D02*
X0088077Y0026677D01*
X0088310Y0026677D02*
X0087053Y0016697D01*
X0086030Y0026677D01*
X0085796Y0026677D02*
X0088310Y0026677D01*
X0087565Y0026677D02*
X0087053Y0016697D01*
X0086542Y0026677D01*
X0085796Y0026677D02*
X0087053Y0016697D01*
X0087053Y0121145D01*
X0088077Y0111165D01*
X0088310Y0111165D02*
X0087053Y0121145D01*
X0086030Y0111165D01*
X0085796Y0111165D02*
X0088310Y0111165D01*
X0087565Y0111165D02*
X0087053Y0121145D01*
X0086542Y0111165D01*
X0085796Y0111165D02*
X0087053Y0121145D01*
X0094730Y0121401D02*
X0065754Y0121401D01*
X0065754Y0144118D01*
X0065498Y0136441D02*
X0055518Y0135417D01*
X0055518Y0135184D02*
X0065498Y0136441D01*
X0055518Y0137464D01*
X0055518Y0137698D02*
X0055518Y0135184D01*
X0055518Y0135929D02*
X0065498Y0136441D01*
X0055518Y0136952D01*
X0055518Y0137698D02*
X0065498Y0136441D01*
X0007309Y0136441D01*
X0017290Y0135417D01*
X0017290Y0135184D02*
X0007309Y0136441D01*
X0017290Y0137464D01*
X0017290Y0137698D02*
X0017290Y0135184D01*
X0017290Y0135929D02*
X0007309Y0136441D01*
X0017290Y0136952D01*
X0017290Y0137698D02*
X0007309Y0136441D01*
X0007053Y0144118D02*
X0007053Y0121401D01*
D12*
X0029488Y0138137D02*
X0031453Y0138137D01*
X0030470Y0138137D02*
X0030470Y0141674D01*
X0029488Y0140888D01*
X0033031Y0138923D02*
X0034996Y0138923D01*
X0034406Y0139709D02*
X0034406Y0138137D01*
X0033031Y0138923D02*
X0033817Y0141674D01*
X0036395Y0138333D02*
X0036592Y0138333D01*
X0036592Y0138137D01*
X0036395Y0138137D01*
X0036395Y0138333D01*
X0038385Y0138137D02*
X0038462Y0138139D01*
X0038539Y0138145D01*
X0038616Y0138154D01*
X0038692Y0138167D01*
X0038767Y0138184D01*
X0038841Y0138205D01*
X0038915Y0138229D01*
X0038987Y0138257D01*
X0039057Y0138288D01*
X0039126Y0138323D01*
X0039193Y0138361D01*
X0039258Y0138402D01*
X0039321Y0138446D01*
X0039382Y0138494D01*
X0039441Y0138544D01*
X0039497Y0138597D01*
X0039550Y0138653D01*
X0039600Y0138712D01*
X0039648Y0138773D01*
X0039692Y0138836D01*
X0039733Y0138901D01*
X0039771Y0138968D01*
X0039806Y0139037D01*
X0039837Y0139107D01*
X0039865Y0139179D01*
X0039889Y0139253D01*
X0039910Y0139327D01*
X0039927Y0139402D01*
X0039940Y0139478D01*
X0039949Y0139555D01*
X0039955Y0139632D01*
X0039957Y0139709D01*
X0039957Y0140691D01*
X0039957Y0139709D02*
X0038778Y0139709D01*
X0038724Y0139711D01*
X0038671Y0139716D01*
X0038618Y0139725D01*
X0038566Y0139738D01*
X0038515Y0139754D01*
X0038465Y0139774D01*
X0038416Y0139797D01*
X0038370Y0139823D01*
X0038325Y0139853D01*
X0038282Y0139885D01*
X0038242Y0139921D01*
X0038204Y0139959D01*
X0038168Y0139999D01*
X0038136Y0140042D01*
X0038106Y0140087D01*
X0038080Y0140133D01*
X0038057Y0140182D01*
X0038037Y0140232D01*
X0038021Y0140283D01*
X0038008Y0140335D01*
X0037999Y0140388D01*
X0037994Y0140441D01*
X0037992Y0140495D01*
X0037992Y0140691D01*
X0037994Y0140753D01*
X0038000Y0140814D01*
X0038009Y0140875D01*
X0038023Y0140935D01*
X0038040Y0140994D01*
X0038061Y0141052D01*
X0038085Y0141109D01*
X0038113Y0141164D01*
X0038145Y0141217D01*
X0038180Y0141268D01*
X0038217Y0141317D01*
X0038258Y0141363D01*
X0038302Y0141407D01*
X0038348Y0141448D01*
X0038397Y0141485D01*
X0038448Y0141520D01*
X0038501Y0141552D01*
X0038556Y0141580D01*
X0038613Y0141604D01*
X0038671Y0141625D01*
X0038730Y0141642D01*
X0038790Y0141656D01*
X0038851Y0141665D01*
X0038912Y0141671D01*
X0038974Y0141673D01*
X0039036Y0141671D01*
X0039097Y0141665D01*
X0039158Y0141656D01*
X0039218Y0141642D01*
X0039277Y0141625D01*
X0039335Y0141604D01*
X0039392Y0141580D01*
X0039447Y0141552D01*
X0039500Y0141520D01*
X0039551Y0141485D01*
X0039600Y0141448D01*
X0039646Y0141407D01*
X0039690Y0141363D01*
X0039731Y0141317D01*
X0039768Y0141268D01*
X0039803Y0141217D01*
X0039835Y0141164D01*
X0039863Y0141109D01*
X0039887Y0141052D01*
X0039908Y0140994D01*
X0039925Y0140935D01*
X0039939Y0140875D01*
X0039948Y0140814D01*
X0039954Y0140753D01*
X0039956Y0140691D01*
X0041535Y0140888D02*
X0042517Y0141674D01*
X0042517Y0138137D01*
X0041535Y0138137D02*
X0043500Y0138137D01*
X0081820Y0075624D02*
X0081822Y0075547D01*
X0081828Y0075470D01*
X0081837Y0075393D01*
X0081850Y0075317D01*
X0081867Y0075242D01*
X0081888Y0075168D01*
X0081912Y0075094D01*
X0081940Y0075022D01*
X0081971Y0074952D01*
X0082006Y0074883D01*
X0082044Y0074816D01*
X0082085Y0074751D01*
X0082129Y0074688D01*
X0082177Y0074627D01*
X0082227Y0074568D01*
X0082280Y0074512D01*
X0082336Y0074459D01*
X0082395Y0074409D01*
X0082456Y0074361D01*
X0082519Y0074317D01*
X0082584Y0074276D01*
X0082651Y0074238D01*
X0082720Y0074203D01*
X0082790Y0074172D01*
X0082862Y0074144D01*
X0082936Y0074120D01*
X0083010Y0074099D01*
X0083085Y0074082D01*
X0083161Y0074069D01*
X0083238Y0074060D01*
X0083315Y0074054D01*
X0083392Y0074052D01*
X0084375Y0074052D01*
X0084437Y0074054D01*
X0084498Y0074060D01*
X0084559Y0074069D01*
X0084619Y0074083D01*
X0084679Y0074100D01*
X0084737Y0074121D01*
X0084794Y0074146D01*
X0084849Y0074174D01*
X0084902Y0074205D01*
X0084953Y0074240D01*
X0085002Y0074278D01*
X0085048Y0074318D01*
X0085092Y0074362D01*
X0085132Y0074408D01*
X0085170Y0074457D01*
X0085205Y0074508D01*
X0085236Y0074561D01*
X0085264Y0074616D01*
X0085289Y0074673D01*
X0085310Y0074731D01*
X0085327Y0074791D01*
X0085341Y0074851D01*
X0085350Y0074912D01*
X0085356Y0074973D01*
X0085358Y0075035D01*
X0085356Y0075097D01*
X0085350Y0075158D01*
X0085341Y0075219D01*
X0085327Y0075279D01*
X0085310Y0075339D01*
X0085289Y0075397D01*
X0085264Y0075454D01*
X0085236Y0075509D01*
X0085205Y0075562D01*
X0085170Y0075613D01*
X0085132Y0075662D01*
X0085092Y0075708D01*
X0085048Y0075752D01*
X0085002Y0075792D01*
X0084953Y0075830D01*
X0084902Y0075865D01*
X0084849Y0075896D01*
X0084794Y0075924D01*
X0084737Y0075949D01*
X0084679Y0075970D01*
X0084619Y0075987D01*
X0084559Y0076001D01*
X0084498Y0076010D01*
X0084437Y0076016D01*
X0084375Y0076018D01*
X0084375Y0076017D02*
X0084178Y0076017D01*
X0084124Y0076015D01*
X0084071Y0076010D01*
X0084018Y0076001D01*
X0083966Y0075988D01*
X0083915Y0075972D01*
X0083865Y0075952D01*
X0083816Y0075929D01*
X0083770Y0075903D01*
X0083725Y0075873D01*
X0083682Y0075841D01*
X0083642Y0075805D01*
X0083604Y0075767D01*
X0083568Y0075727D01*
X0083536Y0075684D01*
X0083506Y0075639D01*
X0083480Y0075593D01*
X0083457Y0075544D01*
X0083437Y0075494D01*
X0083421Y0075443D01*
X0083408Y0075391D01*
X0083399Y0075338D01*
X0083394Y0075285D01*
X0083392Y0075231D01*
X0083392Y0074052D01*
X0084178Y0072474D02*
X0084375Y0072474D01*
X0084178Y0072474D02*
X0084124Y0072472D01*
X0084071Y0072467D01*
X0084018Y0072458D01*
X0083966Y0072445D01*
X0083915Y0072429D01*
X0083865Y0072409D01*
X0083816Y0072386D01*
X0083770Y0072360D01*
X0083725Y0072330D01*
X0083682Y0072298D01*
X0083642Y0072262D01*
X0083604Y0072224D01*
X0083568Y0072184D01*
X0083536Y0072141D01*
X0083506Y0072096D01*
X0083480Y0072050D01*
X0083457Y0072001D01*
X0083437Y0071951D01*
X0083421Y0071900D01*
X0083408Y0071848D01*
X0083399Y0071795D01*
X0083394Y0071742D01*
X0083392Y0071688D01*
X0083392Y0070509D01*
X0084375Y0070509D01*
X0084375Y0070508D02*
X0084437Y0070510D01*
X0084498Y0070516D01*
X0084559Y0070525D01*
X0084619Y0070539D01*
X0084679Y0070556D01*
X0084737Y0070577D01*
X0084794Y0070602D01*
X0084849Y0070630D01*
X0084902Y0070661D01*
X0084953Y0070696D01*
X0085002Y0070734D01*
X0085048Y0070774D01*
X0085092Y0070818D01*
X0085132Y0070864D01*
X0085170Y0070913D01*
X0085205Y0070964D01*
X0085236Y0071017D01*
X0085264Y0071072D01*
X0085289Y0071129D01*
X0085310Y0071187D01*
X0085327Y0071247D01*
X0085341Y0071307D01*
X0085350Y0071368D01*
X0085356Y0071429D01*
X0085358Y0071491D01*
X0085356Y0071553D01*
X0085350Y0071614D01*
X0085341Y0071675D01*
X0085327Y0071735D01*
X0085310Y0071795D01*
X0085289Y0071853D01*
X0085264Y0071910D01*
X0085236Y0071965D01*
X0085205Y0072018D01*
X0085170Y0072069D01*
X0085132Y0072118D01*
X0085092Y0072164D01*
X0085048Y0072208D01*
X0085002Y0072248D01*
X0084953Y0072286D01*
X0084902Y0072321D01*
X0084849Y0072352D01*
X0084794Y0072380D01*
X0084737Y0072405D01*
X0084679Y0072426D01*
X0084619Y0072443D01*
X0084559Y0072457D01*
X0084498Y0072466D01*
X0084437Y0072472D01*
X0084375Y0072474D01*
X0083392Y0070509D02*
X0083315Y0070511D01*
X0083238Y0070517D01*
X0083161Y0070526D01*
X0083085Y0070539D01*
X0083010Y0070556D01*
X0082936Y0070577D01*
X0082862Y0070601D01*
X0082790Y0070629D01*
X0082720Y0070660D01*
X0082651Y0070695D01*
X0082584Y0070733D01*
X0082519Y0070774D01*
X0082456Y0070818D01*
X0082395Y0070866D01*
X0082336Y0070916D01*
X0082280Y0070969D01*
X0082227Y0071025D01*
X0082177Y0071084D01*
X0082129Y0071145D01*
X0082085Y0071208D01*
X0082044Y0071273D01*
X0082006Y0071340D01*
X0081971Y0071409D01*
X0081940Y0071479D01*
X0081912Y0071551D01*
X0081888Y0071625D01*
X0081867Y0071699D01*
X0081850Y0071774D01*
X0081837Y0071850D01*
X0081828Y0071927D01*
X0081822Y0072004D01*
X0081820Y0072081D01*
X0085161Y0069109D02*
X0085357Y0069109D01*
X0085357Y0068913D01*
X0085161Y0068913D01*
X0085161Y0069109D01*
X0084375Y0067513D02*
X0084178Y0067513D01*
X0084124Y0067511D01*
X0084071Y0067506D01*
X0084018Y0067497D01*
X0083966Y0067484D01*
X0083915Y0067468D01*
X0083865Y0067448D01*
X0083816Y0067425D01*
X0083770Y0067399D01*
X0083725Y0067369D01*
X0083682Y0067337D01*
X0083642Y0067301D01*
X0083604Y0067263D01*
X0083568Y0067223D01*
X0083536Y0067180D01*
X0083506Y0067135D01*
X0083480Y0067089D01*
X0083457Y0067040D01*
X0083437Y0066990D01*
X0083421Y0066939D01*
X0083408Y0066887D01*
X0083399Y0066834D01*
X0083394Y0066781D01*
X0083392Y0066727D01*
X0083392Y0065548D01*
X0084375Y0065548D01*
X0084437Y0065550D01*
X0084498Y0065556D01*
X0084559Y0065565D01*
X0084619Y0065579D01*
X0084679Y0065596D01*
X0084737Y0065617D01*
X0084794Y0065642D01*
X0084849Y0065670D01*
X0084902Y0065701D01*
X0084953Y0065736D01*
X0085002Y0065774D01*
X0085048Y0065814D01*
X0085092Y0065858D01*
X0085132Y0065904D01*
X0085170Y0065953D01*
X0085205Y0066004D01*
X0085236Y0066057D01*
X0085264Y0066112D01*
X0085289Y0066169D01*
X0085310Y0066227D01*
X0085327Y0066287D01*
X0085341Y0066347D01*
X0085350Y0066408D01*
X0085356Y0066469D01*
X0085358Y0066531D01*
X0085356Y0066593D01*
X0085350Y0066654D01*
X0085341Y0066715D01*
X0085327Y0066775D01*
X0085310Y0066835D01*
X0085289Y0066893D01*
X0085264Y0066950D01*
X0085236Y0067005D01*
X0085205Y0067058D01*
X0085170Y0067109D01*
X0085132Y0067158D01*
X0085092Y0067204D01*
X0085048Y0067248D01*
X0085002Y0067288D01*
X0084953Y0067326D01*
X0084902Y0067361D01*
X0084849Y0067392D01*
X0084794Y0067420D01*
X0084737Y0067445D01*
X0084679Y0067466D01*
X0084619Y0067483D01*
X0084559Y0067497D01*
X0084498Y0067506D01*
X0084437Y0067512D01*
X0084375Y0067514D01*
X0083392Y0065548D02*
X0083315Y0065550D01*
X0083238Y0065556D01*
X0083161Y0065565D01*
X0083085Y0065578D01*
X0083010Y0065595D01*
X0082936Y0065616D01*
X0082862Y0065640D01*
X0082790Y0065668D01*
X0082720Y0065699D01*
X0082651Y0065734D01*
X0082584Y0065772D01*
X0082519Y0065813D01*
X0082456Y0065857D01*
X0082395Y0065905D01*
X0082336Y0065955D01*
X0082280Y0066008D01*
X0082227Y0066064D01*
X0082177Y0066123D01*
X0082129Y0066184D01*
X0082085Y0066247D01*
X0082044Y0066312D01*
X0082006Y0066379D01*
X0081971Y0066448D01*
X0081940Y0066518D01*
X0081912Y0066590D01*
X0081888Y0066664D01*
X0081867Y0066738D01*
X0081850Y0066813D01*
X0081837Y0066889D01*
X0081828Y0066966D01*
X0081822Y0067043D01*
X0081820Y0067120D01*
X0083392Y0063675D02*
X0085357Y0062005D01*
X0085357Y0063970D01*
X0082606Y0062005D02*
X0082545Y0062027D01*
X0082485Y0062052D01*
X0082427Y0062081D01*
X0082370Y0062113D01*
X0082315Y0062148D01*
X0082263Y0062186D01*
X0082213Y0062227D01*
X0082165Y0062271D01*
X0082120Y0062317D01*
X0082077Y0062366D01*
X0082037Y0062418D01*
X0082001Y0062471D01*
X0081967Y0062527D01*
X0081937Y0062584D01*
X0081910Y0062643D01*
X0081886Y0062704D01*
X0081866Y0062766D01*
X0081850Y0062829D01*
X0081837Y0062892D01*
X0081827Y0062956D01*
X0081822Y0063021D01*
X0081820Y0063086D01*
X0081821Y0063086D02*
X0081823Y0063144D01*
X0081829Y0063201D01*
X0081838Y0063258D01*
X0081851Y0063315D01*
X0081868Y0063370D01*
X0081888Y0063424D01*
X0081912Y0063477D01*
X0081939Y0063528D01*
X0081970Y0063577D01*
X0082004Y0063624D01*
X0082040Y0063669D01*
X0082080Y0063711D01*
X0082122Y0063751D01*
X0082167Y0063787D01*
X0082214Y0063821D01*
X0082263Y0063852D01*
X0082314Y0063879D01*
X0082367Y0063903D01*
X0082421Y0063923D01*
X0082476Y0063940D01*
X0082533Y0063953D01*
X0082590Y0063962D01*
X0082647Y0063968D01*
X0082705Y0063970D01*
X0082764Y0063968D01*
X0082823Y0063963D01*
X0082881Y0063953D01*
X0082939Y0063941D01*
X0082996Y0063924D01*
X0083052Y0063904D01*
X0083106Y0063881D01*
X0083159Y0063854D01*
X0083210Y0063825D01*
X0083259Y0063792D01*
X0083306Y0063756D01*
X0083351Y0063717D01*
X0083393Y0063675D01*
X0064022Y0049233D02*
X0064022Y0047661D01*
X0060485Y0047661D01*
X0060485Y0049233D01*
X0062057Y0048840D02*
X0062057Y0047661D01*
X0060485Y0045799D02*
X0064022Y0045799D01*
X0062450Y0044620D02*
X0060485Y0045799D01*
X0062450Y0044620D02*
X0060485Y0043441D01*
X0064022Y0043441D01*
X0064022Y0041587D02*
X0060485Y0041587D01*
X0062057Y0041587D02*
X0062057Y0039622D01*
X0060485Y0039622D02*
X0064022Y0039622D01*
X0064022Y0038111D02*
X0064022Y0037325D01*
X0064020Y0037271D01*
X0064015Y0037218D01*
X0064006Y0037165D01*
X0063993Y0037113D01*
X0063977Y0037062D01*
X0063957Y0037012D01*
X0063934Y0036963D01*
X0063908Y0036917D01*
X0063878Y0036872D01*
X0063846Y0036829D01*
X0063810Y0036789D01*
X0063772Y0036751D01*
X0063732Y0036715D01*
X0063689Y0036683D01*
X0063644Y0036653D01*
X0063598Y0036627D01*
X0063549Y0036604D01*
X0063499Y0036584D01*
X0063448Y0036568D01*
X0063396Y0036555D01*
X0063343Y0036546D01*
X0063290Y0036541D01*
X0063236Y0036539D01*
X0061271Y0036539D01*
X0061217Y0036541D01*
X0061164Y0036546D01*
X0061111Y0036555D01*
X0061059Y0036568D01*
X0061008Y0036584D01*
X0060958Y0036604D01*
X0060909Y0036627D01*
X0060863Y0036653D01*
X0060818Y0036683D01*
X0060775Y0036715D01*
X0060735Y0036751D01*
X0060697Y0036789D01*
X0060661Y0036829D01*
X0060629Y0036872D01*
X0060599Y0036917D01*
X0060573Y0036963D01*
X0060550Y0037012D01*
X0060530Y0037062D01*
X0060514Y0037113D01*
X0060501Y0037165D01*
X0060492Y0037218D01*
X0060487Y0037271D01*
X0060485Y0037325D01*
X0060485Y0038111D01*
X0060485Y0035209D02*
X0060485Y0033244D01*
X0060485Y0034226D02*
X0064022Y0034226D01*
X0064022Y0032021D02*
X0064022Y0031235D01*
X0064022Y0031628D02*
X0060485Y0031628D01*
X0060485Y0031235D02*
X0060485Y0032021D01*
X0060485Y0029893D02*
X0064022Y0029107D01*
X0061664Y0028321D01*
X0064022Y0027535D01*
X0060485Y0026749D01*
X0061959Y0023932D02*
X0061929Y0023885D01*
X0061896Y0023841D01*
X0061860Y0023799D01*
X0061822Y0023759D01*
X0061780Y0023723D01*
X0061737Y0023689D01*
X0061691Y0023658D01*
X0061643Y0023631D01*
X0061593Y0023607D01*
X0061542Y0023586D01*
X0061489Y0023569D01*
X0061436Y0023556D01*
X0061381Y0023547D01*
X0061326Y0023541D01*
X0061271Y0023539D01*
X0061217Y0023541D01*
X0061164Y0023546D01*
X0061111Y0023555D01*
X0061059Y0023568D01*
X0061008Y0023584D01*
X0060958Y0023604D01*
X0060909Y0023627D01*
X0060863Y0023653D01*
X0060818Y0023683D01*
X0060775Y0023715D01*
X0060735Y0023751D01*
X0060697Y0023789D01*
X0060661Y0023829D01*
X0060629Y0023872D01*
X0060599Y0023917D01*
X0060573Y0023963D01*
X0060550Y0024012D01*
X0060530Y0024062D01*
X0060514Y0024113D01*
X0060501Y0024165D01*
X0060492Y0024218D01*
X0060487Y0024271D01*
X0060485Y0024325D01*
X0060487Y0024398D01*
X0060492Y0024471D01*
X0060501Y0024543D01*
X0060514Y0024615D01*
X0060530Y0024686D01*
X0060550Y0024756D01*
X0060573Y0024826D01*
X0060599Y0024894D01*
X0060629Y0024960D01*
X0060662Y0025025D01*
X0060698Y0025089D01*
X0060737Y0025150D01*
X0060780Y0025209D01*
X0063530Y0023441D02*
X0063583Y0023497D01*
X0063634Y0023555D01*
X0063682Y0023615D01*
X0063728Y0023678D01*
X0063770Y0023742D01*
X0063809Y0023808D01*
X0063845Y0023876D01*
X0063878Y0023946D01*
X0063908Y0024017D01*
X0063934Y0024090D01*
X0063957Y0024163D01*
X0063976Y0024238D01*
X0063992Y0024313D01*
X0064005Y0024389D01*
X0064014Y0024466D01*
X0064019Y0024543D01*
X0064021Y0024620D01*
X0064022Y0024620D02*
X0064020Y0024674D01*
X0064015Y0024727D01*
X0064006Y0024780D01*
X0063993Y0024832D01*
X0063977Y0024883D01*
X0063957Y0024933D01*
X0063934Y0024982D01*
X0063908Y0025028D01*
X0063878Y0025073D01*
X0063846Y0025116D01*
X0063810Y0025156D01*
X0063772Y0025194D01*
X0063732Y0025230D01*
X0063689Y0025262D01*
X0063644Y0025292D01*
X0063598Y0025318D01*
X0063549Y0025341D01*
X0063499Y0025361D01*
X0063448Y0025377D01*
X0063396Y0025390D01*
X0063343Y0025399D01*
X0063290Y0025404D01*
X0063236Y0025406D01*
X0062548Y0025013D02*
X0061959Y0023932D01*
X0062548Y0025012D02*
X0062578Y0025059D01*
X0062611Y0025103D01*
X0062647Y0025145D01*
X0062685Y0025185D01*
X0062727Y0025221D01*
X0062770Y0025255D01*
X0062816Y0025286D01*
X0062864Y0025313D01*
X0062914Y0025337D01*
X0062965Y0025358D01*
X0063018Y0025375D01*
X0063071Y0025388D01*
X0063126Y0025397D01*
X0063181Y0025403D01*
X0063236Y0025405D01*
X0044853Y0038941D02*
X0043298Y0038941D01*
X0044076Y0038941D02*
X0044076Y0041741D01*
X0043298Y0041118D01*
X0041375Y0040185D02*
X0041997Y0038941D01*
X0041219Y0040185D02*
X0040442Y0040185D01*
X0041219Y0040185D02*
X0041275Y0040187D01*
X0041330Y0040193D01*
X0041384Y0040203D01*
X0041438Y0040217D01*
X0041491Y0040234D01*
X0041542Y0040255D01*
X0041592Y0040280D01*
X0041640Y0040309D01*
X0041685Y0040340D01*
X0041728Y0040375D01*
X0041769Y0040413D01*
X0041807Y0040454D01*
X0041842Y0040497D01*
X0041873Y0040542D01*
X0041902Y0040590D01*
X0041927Y0040640D01*
X0041948Y0040691D01*
X0041965Y0040744D01*
X0041979Y0040798D01*
X0041989Y0040852D01*
X0041995Y0040907D01*
X0041997Y0040963D01*
X0041995Y0041019D01*
X0041989Y0041074D01*
X0041979Y0041128D01*
X0041965Y0041182D01*
X0041948Y0041235D01*
X0041927Y0041286D01*
X0041902Y0041336D01*
X0041873Y0041384D01*
X0041842Y0041429D01*
X0041807Y0041472D01*
X0041769Y0041513D01*
X0041728Y0041551D01*
X0041685Y0041586D01*
X0041640Y0041617D01*
X0041592Y0041646D01*
X0041542Y0041671D01*
X0041491Y0041692D01*
X0041438Y0041709D01*
X0041384Y0041723D01*
X0041330Y0041733D01*
X0041275Y0041739D01*
X0041219Y0041741D01*
X0040442Y0041741D01*
X0040442Y0038941D01*
X0056509Y0068941D02*
X0057132Y0068941D01*
X0056509Y0068941D02*
X0056460Y0068943D01*
X0056412Y0068949D01*
X0056364Y0068958D01*
X0056317Y0068971D01*
X0056271Y0068988D01*
X0056227Y0069009D01*
X0056184Y0069033D01*
X0056143Y0069060D01*
X0056105Y0069090D01*
X0056069Y0069123D01*
X0056036Y0069159D01*
X0056006Y0069197D01*
X0055979Y0069238D01*
X0055955Y0069281D01*
X0055934Y0069325D01*
X0055917Y0069371D01*
X0055904Y0069418D01*
X0055895Y0069466D01*
X0055889Y0069514D01*
X0055887Y0069563D01*
X0055887Y0071118D01*
X0055889Y0071167D01*
X0055895Y0071215D01*
X0055904Y0071263D01*
X0055917Y0071310D01*
X0055934Y0071356D01*
X0055955Y0071400D01*
X0055979Y0071443D01*
X0056006Y0071484D01*
X0056036Y0071522D01*
X0056069Y0071558D01*
X0056105Y0071591D01*
X0056143Y0071621D01*
X0056184Y0071648D01*
X0056227Y0071672D01*
X0056271Y0071693D01*
X0056317Y0071710D01*
X0056364Y0071723D01*
X0056412Y0071732D01*
X0056460Y0071738D01*
X0056509Y0071740D01*
X0056509Y0071741D02*
X0057132Y0071741D01*
X0058298Y0071741D02*
X0059231Y0071741D01*
X0059231Y0071740D02*
X0059280Y0071738D01*
X0059328Y0071732D01*
X0059376Y0071723D01*
X0059423Y0071710D01*
X0059469Y0071693D01*
X0059513Y0071672D01*
X0059556Y0071648D01*
X0059597Y0071621D01*
X0059635Y0071591D01*
X0059671Y0071558D01*
X0059704Y0071522D01*
X0059734Y0071484D01*
X0059761Y0071443D01*
X0059785Y0071400D01*
X0059806Y0071356D01*
X0059823Y0071310D01*
X0059836Y0071263D01*
X0059845Y0071215D01*
X0059851Y0071167D01*
X0059853Y0071118D01*
X0059851Y0071069D01*
X0059845Y0071021D01*
X0059836Y0070973D01*
X0059823Y0070926D01*
X0059806Y0070880D01*
X0059785Y0070836D01*
X0059761Y0070793D01*
X0059734Y0070752D01*
X0059704Y0070714D01*
X0059671Y0070678D01*
X0059635Y0070645D01*
X0059597Y0070615D01*
X0059556Y0070588D01*
X0059513Y0070564D01*
X0059469Y0070543D01*
X0059423Y0070526D01*
X0059376Y0070513D01*
X0059328Y0070504D01*
X0059280Y0070498D01*
X0059231Y0070496D01*
X0058609Y0070496D01*
X0059076Y0070496D02*
X0059132Y0070494D01*
X0059187Y0070488D01*
X0059241Y0070478D01*
X0059295Y0070464D01*
X0059348Y0070447D01*
X0059399Y0070426D01*
X0059449Y0070401D01*
X0059497Y0070372D01*
X0059542Y0070341D01*
X0059585Y0070306D01*
X0059626Y0070268D01*
X0059664Y0070227D01*
X0059699Y0070184D01*
X0059730Y0070139D01*
X0059759Y0070091D01*
X0059784Y0070041D01*
X0059805Y0069990D01*
X0059822Y0069937D01*
X0059836Y0069883D01*
X0059846Y0069829D01*
X0059852Y0069774D01*
X0059854Y0069718D01*
X0059852Y0069662D01*
X0059846Y0069607D01*
X0059836Y0069553D01*
X0059822Y0069499D01*
X0059805Y0069446D01*
X0059784Y0069395D01*
X0059759Y0069345D01*
X0059730Y0069297D01*
X0059699Y0069252D01*
X0059664Y0069209D01*
X0059626Y0069168D01*
X0059585Y0069130D01*
X0059542Y0069095D01*
X0059497Y0069064D01*
X0059449Y0069035D01*
X0059399Y0069010D01*
X0059348Y0068989D01*
X0059295Y0068972D01*
X0059241Y0068958D01*
X0059187Y0068948D01*
X0059132Y0068942D01*
X0059076Y0068940D01*
X0059076Y0068941D02*
X0058298Y0068941D01*
D13*
X0062137Y0084467D02*
X0062137Y0086079D01*
X0062137Y0085273D02*
X0065037Y0085273D01*
X0065037Y0086994D02*
X0062137Y0088928D01*
X0062137Y0086994D02*
X0065037Y0088928D01*
X0064837Y0094996D02*
X0061937Y0094996D01*
X0061937Y0095801D01*
X0061939Y0095856D01*
X0061945Y0095911D01*
X0061954Y0095965D01*
X0061967Y0096018D01*
X0061984Y0096071D01*
X0062004Y0096122D01*
X0062027Y0096172D01*
X0062054Y0096220D01*
X0062085Y0096266D01*
X0062118Y0096310D01*
X0062154Y0096351D01*
X0062193Y0096390D01*
X0062234Y0096426D01*
X0062278Y0096459D01*
X0062324Y0096490D01*
X0062372Y0096517D01*
X0062422Y0096540D01*
X0062473Y0096560D01*
X0062526Y0096577D01*
X0062579Y0096590D01*
X0062633Y0096599D01*
X0062688Y0096605D01*
X0062743Y0096607D01*
X0062798Y0096605D01*
X0062853Y0096599D01*
X0062907Y0096590D01*
X0062960Y0096577D01*
X0063013Y0096560D01*
X0063064Y0096540D01*
X0063114Y0096517D01*
X0063162Y0096490D01*
X0063208Y0096459D01*
X0063252Y0096426D01*
X0063293Y0096390D01*
X0063332Y0096351D01*
X0063368Y0096310D01*
X0063401Y0096266D01*
X0063432Y0096220D01*
X0063459Y0096172D01*
X0063482Y0096122D01*
X0063502Y0096071D01*
X0063519Y0096018D01*
X0063532Y0095965D01*
X0063541Y0095911D01*
X0063547Y0095856D01*
X0063549Y0095801D01*
X0063548Y0095801D02*
X0063548Y0094996D01*
X0063548Y0095962D02*
X0064837Y0096607D01*
X0064837Y0097694D02*
X0061937Y0099628D01*
X0061937Y0097694D02*
X0064837Y0099628D01*
X0063146Y0108002D02*
X0063629Y0108888D01*
X0064837Y0108566D02*
X0064835Y0108494D01*
X0064829Y0108423D01*
X0064820Y0108352D01*
X0064807Y0108282D01*
X0064790Y0108212D01*
X0064770Y0108143D01*
X0064746Y0108076D01*
X0064718Y0108010D01*
X0064687Y0107945D01*
X0064653Y0107882D01*
X0064615Y0107821D01*
X0064574Y0107762D01*
X0064531Y0107706D01*
X0064484Y0107651D01*
X0064434Y0107600D01*
X0063629Y0108889D02*
X0063655Y0108929D01*
X0063684Y0108968D01*
X0063716Y0109005D01*
X0063751Y0109039D01*
X0063788Y0109070D01*
X0063827Y0109099D01*
X0063868Y0109125D01*
X0063911Y0109147D01*
X0063956Y0109166D01*
X0064002Y0109182D01*
X0064048Y0109195D01*
X0064096Y0109204D01*
X0064144Y0109209D01*
X0064193Y0109211D01*
X0064193Y0109210D02*
X0064241Y0109208D01*
X0064289Y0109203D01*
X0064336Y0109194D01*
X0064383Y0109181D01*
X0064428Y0109165D01*
X0064472Y0109146D01*
X0064515Y0109124D01*
X0064556Y0109098D01*
X0064595Y0109069D01*
X0064631Y0109038D01*
X0064665Y0109004D01*
X0064696Y0108968D01*
X0064725Y0108929D01*
X0064751Y0108888D01*
X0064773Y0108845D01*
X0064792Y0108801D01*
X0064808Y0108756D01*
X0064821Y0108709D01*
X0064830Y0108662D01*
X0064835Y0108614D01*
X0064837Y0108566D01*
X0064837Y0110479D02*
X0064837Y0111285D01*
X0064838Y0111285D02*
X0064836Y0111340D01*
X0064830Y0111395D01*
X0064821Y0111449D01*
X0064808Y0111502D01*
X0064791Y0111555D01*
X0064771Y0111606D01*
X0064748Y0111656D01*
X0064721Y0111704D01*
X0064690Y0111750D01*
X0064657Y0111794D01*
X0064621Y0111835D01*
X0064582Y0111874D01*
X0064541Y0111910D01*
X0064497Y0111943D01*
X0064451Y0111974D01*
X0064403Y0112001D01*
X0064353Y0112024D01*
X0064302Y0112044D01*
X0064249Y0112061D01*
X0064196Y0112074D01*
X0064142Y0112083D01*
X0064087Y0112089D01*
X0064032Y0112091D01*
X0062743Y0112091D01*
X0062688Y0112089D01*
X0062633Y0112083D01*
X0062579Y0112074D01*
X0062526Y0112061D01*
X0062473Y0112044D01*
X0062422Y0112024D01*
X0062372Y0112001D01*
X0062324Y0111974D01*
X0062278Y0111943D01*
X0062234Y0111910D01*
X0062193Y0111874D01*
X0062154Y0111835D01*
X0062118Y0111794D01*
X0062085Y0111750D01*
X0062054Y0111704D01*
X0062027Y0111656D01*
X0062004Y0111606D01*
X0061984Y0111555D01*
X0061967Y0111502D01*
X0061954Y0111449D01*
X0061945Y0111395D01*
X0061939Y0111340D01*
X0061937Y0111285D01*
X0061937Y0110479D01*
X0064837Y0110479D01*
X0062180Y0109049D02*
X0062142Y0108996D01*
X0062108Y0108941D01*
X0062076Y0108885D01*
X0062047Y0108826D01*
X0062022Y0108767D01*
X0062000Y0108706D01*
X0061981Y0108644D01*
X0061966Y0108581D01*
X0061954Y0108518D01*
X0061945Y0108453D01*
X0061940Y0108389D01*
X0061938Y0108324D01*
X0061940Y0108276D01*
X0061945Y0108228D01*
X0061954Y0108181D01*
X0061967Y0108134D01*
X0061983Y0108089D01*
X0062002Y0108045D01*
X0062024Y0108002D01*
X0062050Y0107961D01*
X0062079Y0107922D01*
X0062110Y0107886D01*
X0062144Y0107852D01*
X0062180Y0107821D01*
X0062219Y0107792D01*
X0062260Y0107766D01*
X0062303Y0107744D01*
X0062347Y0107725D01*
X0062392Y0107709D01*
X0062439Y0107696D01*
X0062486Y0107687D01*
X0062534Y0107682D01*
X0062582Y0107680D01*
X0062631Y0107682D01*
X0062679Y0107687D01*
X0062727Y0107696D01*
X0062773Y0107709D01*
X0062819Y0107725D01*
X0062864Y0107744D01*
X0062907Y0107766D01*
X0062948Y0107792D01*
X0062987Y0107821D01*
X0063024Y0107852D01*
X0063059Y0107886D01*
X0063091Y0107923D01*
X0063120Y0107962D01*
X0063146Y0108002D01*
X0064837Y0113294D02*
X0061937Y0114261D01*
X0064837Y0115228D01*
X0064112Y0114986D02*
X0064112Y0113536D01*
X0049841Y0116525D02*
X0048552Y0116525D01*
X0048552Y0119425D01*
X0047330Y0119425D02*
X0046686Y0119425D01*
X0046686Y0119424D02*
X0046635Y0119422D01*
X0046585Y0119416D01*
X0046536Y0119406D01*
X0046487Y0119392D01*
X0046440Y0119375D01*
X0046394Y0119354D01*
X0046350Y0119329D01*
X0046307Y0119301D01*
X0046268Y0119270D01*
X0046231Y0119235D01*
X0046196Y0119198D01*
X0046165Y0119159D01*
X0046137Y0119116D01*
X0046112Y0119072D01*
X0046091Y0119026D01*
X0046074Y0118979D01*
X0046060Y0118930D01*
X0046050Y0118881D01*
X0046044Y0118831D01*
X0046042Y0118780D01*
X0046041Y0118780D02*
X0046041Y0117169D01*
X0046042Y0117169D02*
X0046044Y0117121D01*
X0046049Y0117073D01*
X0046058Y0117026D01*
X0046071Y0116979D01*
X0046087Y0116934D01*
X0046106Y0116890D01*
X0046128Y0116847D01*
X0046154Y0116806D01*
X0046183Y0116767D01*
X0046214Y0116731D01*
X0046248Y0116697D01*
X0046284Y0116666D01*
X0046323Y0116637D01*
X0046364Y0116611D01*
X0046407Y0116589D01*
X0046451Y0116570D01*
X0046496Y0116554D01*
X0046543Y0116541D01*
X0046590Y0116532D01*
X0046638Y0116527D01*
X0046686Y0116525D01*
X0047330Y0116525D01*
X0044555Y0117733D02*
X0043669Y0118216D01*
X0043991Y0119424D02*
X0044056Y0119422D01*
X0044120Y0119417D01*
X0044185Y0119408D01*
X0044248Y0119396D01*
X0044311Y0119381D01*
X0044373Y0119362D01*
X0044434Y0119340D01*
X0044493Y0119315D01*
X0044552Y0119286D01*
X0044608Y0119254D01*
X0044663Y0119220D01*
X0044716Y0119182D01*
X0043668Y0118216D02*
X0043628Y0118242D01*
X0043589Y0118271D01*
X0043552Y0118303D01*
X0043518Y0118338D01*
X0043487Y0118375D01*
X0043458Y0118414D01*
X0043432Y0118455D01*
X0043410Y0118498D01*
X0043391Y0118543D01*
X0043375Y0118589D01*
X0043362Y0118635D01*
X0043353Y0118683D01*
X0043348Y0118731D01*
X0043346Y0118780D01*
X0043347Y0118780D02*
X0043349Y0118828D01*
X0043354Y0118876D01*
X0043363Y0118923D01*
X0043376Y0118970D01*
X0043392Y0119015D01*
X0043411Y0119059D01*
X0043433Y0119102D01*
X0043459Y0119143D01*
X0043488Y0119182D01*
X0043519Y0119218D01*
X0043553Y0119252D01*
X0043589Y0119284D01*
X0043628Y0119312D01*
X0043669Y0119338D01*
X0043712Y0119360D01*
X0043756Y0119379D01*
X0043801Y0119395D01*
X0043848Y0119408D01*
X0043895Y0119417D01*
X0043943Y0119422D01*
X0043991Y0119424D01*
X0043267Y0116928D02*
X0043318Y0116878D01*
X0043373Y0116831D01*
X0043429Y0116788D01*
X0043488Y0116747D01*
X0043549Y0116709D01*
X0043612Y0116675D01*
X0043677Y0116644D01*
X0043743Y0116616D01*
X0043810Y0116592D01*
X0043879Y0116572D01*
X0043949Y0116555D01*
X0044019Y0116542D01*
X0044090Y0116533D01*
X0044161Y0116527D01*
X0044233Y0116525D01*
X0044281Y0116527D01*
X0044329Y0116532D01*
X0044376Y0116541D01*
X0044423Y0116554D01*
X0044468Y0116570D01*
X0044512Y0116589D01*
X0044555Y0116611D01*
X0044596Y0116637D01*
X0044635Y0116666D01*
X0044671Y0116697D01*
X0044705Y0116731D01*
X0044736Y0116767D01*
X0044765Y0116806D01*
X0044791Y0116847D01*
X0044813Y0116890D01*
X0044832Y0116934D01*
X0044848Y0116979D01*
X0044861Y0117026D01*
X0044870Y0117073D01*
X0044875Y0117121D01*
X0044877Y0117169D01*
X0044878Y0117169D02*
X0044876Y0117218D01*
X0044871Y0117266D01*
X0044862Y0117314D01*
X0044849Y0117360D01*
X0044833Y0117406D01*
X0044814Y0117451D01*
X0044792Y0117494D01*
X0044766Y0117535D01*
X0044737Y0117574D01*
X0044706Y0117611D01*
X0044672Y0117646D01*
X0044635Y0117678D01*
X0044596Y0117707D01*
X0044556Y0117733D01*
X0040007Y0117552D02*
X0038073Y0117552D01*
X0036677Y0117230D02*
X0036677Y0118519D01*
X0036678Y0118519D02*
X0036676Y0118574D01*
X0036670Y0118629D01*
X0036661Y0118683D01*
X0036648Y0118736D01*
X0036631Y0118789D01*
X0036611Y0118840D01*
X0036588Y0118890D01*
X0036561Y0118938D01*
X0036530Y0118984D01*
X0036497Y0119028D01*
X0036461Y0119069D01*
X0036422Y0119108D01*
X0036381Y0119144D01*
X0036337Y0119177D01*
X0036291Y0119208D01*
X0036243Y0119235D01*
X0036193Y0119258D01*
X0036142Y0119278D01*
X0036089Y0119295D01*
X0036036Y0119308D01*
X0035982Y0119317D01*
X0035927Y0119323D01*
X0035872Y0119325D01*
X0035066Y0119325D01*
X0035066Y0116425D01*
X0035872Y0116425D01*
X0035872Y0116424D02*
X0035927Y0116426D01*
X0035982Y0116432D01*
X0036036Y0116441D01*
X0036089Y0116454D01*
X0036142Y0116471D01*
X0036193Y0116491D01*
X0036243Y0116514D01*
X0036291Y0116541D01*
X0036337Y0116572D01*
X0036381Y0116605D01*
X0036422Y0116641D01*
X0036461Y0116680D01*
X0036497Y0116721D01*
X0036530Y0116765D01*
X0036561Y0116811D01*
X0036588Y0116859D01*
X0036611Y0116909D01*
X0036631Y0116960D01*
X0036648Y0117013D01*
X0036661Y0117066D01*
X0036670Y0117120D01*
X0036676Y0117175D01*
X0036678Y0117230D01*
X0029107Y0117552D02*
X0027173Y0117552D01*
X0028140Y0116586D02*
X0028140Y0118519D01*
X0025777Y0118519D02*
X0025777Y0117230D01*
X0025778Y0117230D02*
X0025776Y0117175D01*
X0025770Y0117120D01*
X0025761Y0117066D01*
X0025748Y0117013D01*
X0025731Y0116960D01*
X0025711Y0116909D01*
X0025688Y0116859D01*
X0025661Y0116811D01*
X0025630Y0116765D01*
X0025597Y0116721D01*
X0025561Y0116680D01*
X0025522Y0116641D01*
X0025481Y0116605D01*
X0025437Y0116572D01*
X0025391Y0116541D01*
X0025343Y0116514D01*
X0025293Y0116491D01*
X0025242Y0116471D01*
X0025189Y0116454D01*
X0025136Y0116441D01*
X0025082Y0116432D01*
X0025027Y0116426D01*
X0024972Y0116424D01*
X0024972Y0116425D02*
X0024166Y0116425D01*
X0024166Y0119325D01*
X0024972Y0119325D01*
X0025027Y0119323D01*
X0025082Y0119317D01*
X0025136Y0119308D01*
X0025189Y0119295D01*
X0025242Y0119278D01*
X0025293Y0119258D01*
X0025343Y0119235D01*
X0025391Y0119208D01*
X0025437Y0119177D01*
X0025481Y0119144D01*
X0025522Y0119108D01*
X0025561Y0119069D01*
X0025597Y0119028D01*
X0025630Y0118984D01*
X0025661Y0118938D01*
X0025688Y0118890D01*
X0025711Y0118840D01*
X0025731Y0118789D01*
X0025748Y0118736D01*
X0025761Y0118683D01*
X0025770Y0118629D01*
X0025776Y0118574D01*
X0025778Y0118519D01*
X0018019Y0119225D02*
X0017052Y0116325D01*
X0016085Y0119225D01*
X0014977Y0119225D02*
X0013366Y0119225D01*
X0013366Y0117936D01*
X0014333Y0117936D01*
X0014333Y0117935D02*
X0014381Y0117933D01*
X0014429Y0117928D01*
X0014476Y0117919D01*
X0014523Y0117906D01*
X0014568Y0117890D01*
X0014612Y0117871D01*
X0014655Y0117849D01*
X0014696Y0117823D01*
X0014735Y0117794D01*
X0014771Y0117763D01*
X0014805Y0117729D01*
X0014836Y0117693D01*
X0014865Y0117654D01*
X0014891Y0117613D01*
X0014913Y0117570D01*
X0014932Y0117526D01*
X0014948Y0117481D01*
X0014961Y0117434D01*
X0014970Y0117387D01*
X0014975Y0117339D01*
X0014977Y0117291D01*
X0014977Y0116969D01*
X0014975Y0116921D01*
X0014970Y0116873D01*
X0014961Y0116826D01*
X0014948Y0116779D01*
X0014932Y0116734D01*
X0014913Y0116690D01*
X0014891Y0116647D01*
X0014865Y0116606D01*
X0014836Y0116567D01*
X0014805Y0116531D01*
X0014771Y0116497D01*
X0014735Y0116466D01*
X0014696Y0116437D01*
X0014655Y0116411D01*
X0014612Y0116389D01*
X0014568Y0116370D01*
X0014523Y0116354D01*
X0014476Y0116341D01*
X0014429Y0116332D01*
X0014381Y0116327D01*
X0014333Y0116325D01*
X0013366Y0116325D01*
X0011264Y0104709D02*
X0009975Y0104709D01*
X0009920Y0104707D01*
X0009865Y0104701D01*
X0009811Y0104692D01*
X0009758Y0104679D01*
X0009705Y0104662D01*
X0009654Y0104642D01*
X0009604Y0104619D01*
X0009556Y0104592D01*
X0009510Y0104561D01*
X0009466Y0104528D01*
X0009425Y0104492D01*
X0009386Y0104453D01*
X0009350Y0104412D01*
X0009317Y0104368D01*
X0009286Y0104322D01*
X0009259Y0104274D01*
X0009236Y0104224D01*
X0009216Y0104173D01*
X0009199Y0104120D01*
X0009186Y0104067D01*
X0009177Y0104013D01*
X0009171Y0103958D01*
X0009169Y0103903D01*
X0009169Y0103098D01*
X0012069Y0103098D01*
X0012069Y0103903D01*
X0012070Y0103903D02*
X0012068Y0103958D01*
X0012062Y0104013D01*
X0012053Y0104067D01*
X0012040Y0104120D01*
X0012023Y0104173D01*
X0012003Y0104224D01*
X0011980Y0104274D01*
X0011953Y0104322D01*
X0011922Y0104368D01*
X0011889Y0104412D01*
X0011853Y0104453D01*
X0011814Y0104492D01*
X0011773Y0104528D01*
X0011729Y0104561D01*
X0011683Y0104592D01*
X0011635Y0104619D01*
X0011585Y0104642D01*
X0011534Y0104662D01*
X0011481Y0104679D01*
X0011428Y0104692D01*
X0011374Y0104701D01*
X0011319Y0104707D01*
X0011264Y0104709D01*
X0012069Y0101637D02*
X0009169Y0101637D01*
X0009169Y0100026D02*
X0012069Y0101637D01*
X0012069Y0100026D02*
X0009169Y0100026D01*
X0009169Y0098565D02*
X0009169Y0097598D01*
X0009170Y0097598D02*
X0009172Y0097547D01*
X0009178Y0097497D01*
X0009188Y0097448D01*
X0009202Y0097399D01*
X0009219Y0097352D01*
X0009240Y0097306D01*
X0009265Y0097261D01*
X0009293Y0097219D01*
X0009324Y0097180D01*
X0009359Y0097143D01*
X0009396Y0097108D01*
X0009435Y0097077D01*
X0009478Y0097049D01*
X0009522Y0097024D01*
X0009568Y0097003D01*
X0009615Y0096986D01*
X0009664Y0096972D01*
X0009713Y0096962D01*
X0009763Y0096956D01*
X0009814Y0096954D01*
X0011425Y0096954D01*
X0011473Y0096956D01*
X0011521Y0096961D01*
X0011568Y0096970D01*
X0011615Y0096983D01*
X0011660Y0096999D01*
X0011704Y0097018D01*
X0011747Y0097040D01*
X0011788Y0097066D01*
X0011827Y0097095D01*
X0011863Y0097126D01*
X0011897Y0097160D01*
X0011928Y0097196D01*
X0011957Y0097235D01*
X0011983Y0097276D01*
X0012005Y0097319D01*
X0012024Y0097363D01*
X0012040Y0097408D01*
X0012053Y0097455D01*
X0012062Y0097502D01*
X0012067Y0097550D01*
X0012069Y0097598D01*
X0012069Y0098565D01*
X0010458Y0098565D01*
X0010458Y0098081D01*
X0009169Y0091617D02*
X0009169Y0090973D01*
X0009170Y0090973D02*
X0009172Y0090922D01*
X0009178Y0090872D01*
X0009188Y0090823D01*
X0009202Y0090774D01*
X0009219Y0090727D01*
X0009240Y0090681D01*
X0009265Y0090636D01*
X0009293Y0090594D01*
X0009324Y0090555D01*
X0009359Y0090518D01*
X0009396Y0090483D01*
X0009435Y0090452D01*
X0009478Y0090424D01*
X0009522Y0090399D01*
X0009568Y0090378D01*
X0009615Y0090361D01*
X0009664Y0090347D01*
X0009713Y0090337D01*
X0009763Y0090331D01*
X0009814Y0090329D01*
X0011425Y0090329D01*
X0011473Y0090331D01*
X0011521Y0090336D01*
X0011568Y0090345D01*
X0011615Y0090358D01*
X0011660Y0090374D01*
X0011704Y0090393D01*
X0011747Y0090415D01*
X0011788Y0090441D01*
X0011827Y0090470D01*
X0011863Y0090501D01*
X0011897Y0090535D01*
X0011928Y0090571D01*
X0011957Y0090610D01*
X0011983Y0090651D01*
X0012005Y0090694D01*
X0012024Y0090738D01*
X0012040Y0090783D01*
X0012053Y0090830D01*
X0012062Y0090877D01*
X0012067Y0090925D01*
X0012069Y0090973D01*
X0012069Y0091617D01*
X0010861Y0088843D02*
X0010378Y0087956D01*
X0009170Y0088279D02*
X0009172Y0088344D01*
X0009177Y0088408D01*
X0009186Y0088473D01*
X0009198Y0088536D01*
X0009213Y0088599D01*
X0009232Y0088661D01*
X0009254Y0088722D01*
X0009279Y0088781D01*
X0009308Y0088840D01*
X0009340Y0088896D01*
X0009374Y0088951D01*
X0009412Y0089004D01*
X0010378Y0087956D02*
X0010352Y0087916D01*
X0010323Y0087877D01*
X0010291Y0087840D01*
X0010256Y0087806D01*
X0010219Y0087775D01*
X0010180Y0087746D01*
X0010139Y0087720D01*
X0010096Y0087698D01*
X0010051Y0087679D01*
X0010005Y0087663D01*
X0009959Y0087650D01*
X0009911Y0087641D01*
X0009863Y0087636D01*
X0009814Y0087634D01*
X0009814Y0087635D02*
X0009766Y0087637D01*
X0009718Y0087642D01*
X0009671Y0087651D01*
X0009624Y0087664D01*
X0009579Y0087680D01*
X0009535Y0087699D01*
X0009492Y0087721D01*
X0009451Y0087747D01*
X0009412Y0087776D01*
X0009376Y0087807D01*
X0009342Y0087841D01*
X0009311Y0087877D01*
X0009282Y0087916D01*
X0009256Y0087957D01*
X0009234Y0088000D01*
X0009215Y0088044D01*
X0009199Y0088089D01*
X0009186Y0088136D01*
X0009177Y0088183D01*
X0009172Y0088231D01*
X0009170Y0088279D01*
X0011666Y0087554D02*
X0011716Y0087605D01*
X0011763Y0087660D01*
X0011806Y0087716D01*
X0011847Y0087775D01*
X0011885Y0087836D01*
X0011919Y0087899D01*
X0011950Y0087964D01*
X0011978Y0088030D01*
X0012002Y0088097D01*
X0012022Y0088166D01*
X0012039Y0088236D01*
X0012052Y0088306D01*
X0012061Y0088377D01*
X0012067Y0088448D01*
X0012069Y0088520D01*
X0012067Y0088568D01*
X0012062Y0088616D01*
X0012053Y0088663D01*
X0012040Y0088710D01*
X0012024Y0088755D01*
X0012005Y0088799D01*
X0011983Y0088842D01*
X0011957Y0088883D01*
X0011928Y0088922D01*
X0011897Y0088958D01*
X0011863Y0088992D01*
X0011827Y0089023D01*
X0011788Y0089052D01*
X0011747Y0089078D01*
X0011704Y0089100D01*
X0011660Y0089119D01*
X0011615Y0089135D01*
X0011568Y0089148D01*
X0011521Y0089157D01*
X0011473Y0089162D01*
X0011425Y0089164D01*
X0011425Y0089165D02*
X0011376Y0089163D01*
X0011328Y0089158D01*
X0011280Y0089149D01*
X0011234Y0089136D01*
X0011188Y0089120D01*
X0011143Y0089101D01*
X0011100Y0089079D01*
X0011059Y0089053D01*
X0011020Y0089024D01*
X0010983Y0088993D01*
X0010948Y0088959D01*
X0010916Y0088922D01*
X0010887Y0088883D01*
X0010861Y0088843D01*
X0011264Y0082245D02*
X0009975Y0082245D01*
X0009920Y0082243D01*
X0009865Y0082237D01*
X0009811Y0082228D01*
X0009758Y0082215D01*
X0009705Y0082198D01*
X0009654Y0082178D01*
X0009604Y0082155D01*
X0009556Y0082128D01*
X0009510Y0082097D01*
X0009466Y0082064D01*
X0009425Y0082028D01*
X0009386Y0081989D01*
X0009350Y0081948D01*
X0009317Y0081904D01*
X0009286Y0081858D01*
X0009259Y0081810D01*
X0009236Y0081760D01*
X0009216Y0081709D01*
X0009199Y0081656D01*
X0009186Y0081603D01*
X0009177Y0081549D01*
X0009171Y0081494D01*
X0009169Y0081439D01*
X0009169Y0080634D01*
X0012069Y0080634D01*
X0012069Y0081439D01*
X0012070Y0081439D02*
X0012068Y0081494D01*
X0012062Y0081549D01*
X0012053Y0081603D01*
X0012040Y0081656D01*
X0012023Y0081709D01*
X0012003Y0081760D01*
X0011980Y0081810D01*
X0011953Y0081858D01*
X0011922Y0081904D01*
X0011889Y0081948D01*
X0011853Y0081989D01*
X0011814Y0082028D01*
X0011773Y0082064D01*
X0011729Y0082097D01*
X0011683Y0082128D01*
X0011635Y0082155D01*
X0011585Y0082178D01*
X0011534Y0082198D01*
X0011481Y0082215D01*
X0011428Y0082228D01*
X0011374Y0082237D01*
X0011319Y0082243D01*
X0011264Y0082245D01*
X0010861Y0079043D02*
X0010378Y0078156D01*
X0009170Y0078479D02*
X0009172Y0078544D01*
X0009177Y0078608D01*
X0009186Y0078673D01*
X0009198Y0078736D01*
X0009213Y0078799D01*
X0009232Y0078861D01*
X0009254Y0078922D01*
X0009279Y0078981D01*
X0009308Y0079040D01*
X0009340Y0079096D01*
X0009374Y0079151D01*
X0009412Y0079204D01*
X0010378Y0078156D02*
X0010352Y0078116D01*
X0010323Y0078077D01*
X0010291Y0078040D01*
X0010256Y0078006D01*
X0010219Y0077975D01*
X0010180Y0077946D01*
X0010139Y0077920D01*
X0010096Y0077898D01*
X0010051Y0077879D01*
X0010005Y0077863D01*
X0009959Y0077850D01*
X0009911Y0077841D01*
X0009863Y0077836D01*
X0009814Y0077834D01*
X0009814Y0077835D02*
X0009766Y0077837D01*
X0009718Y0077842D01*
X0009671Y0077851D01*
X0009624Y0077864D01*
X0009579Y0077880D01*
X0009535Y0077899D01*
X0009492Y0077921D01*
X0009451Y0077947D01*
X0009412Y0077976D01*
X0009376Y0078007D01*
X0009342Y0078041D01*
X0009311Y0078077D01*
X0009282Y0078116D01*
X0009256Y0078157D01*
X0009234Y0078200D01*
X0009215Y0078244D01*
X0009199Y0078289D01*
X0009186Y0078336D01*
X0009177Y0078383D01*
X0009172Y0078431D01*
X0009170Y0078479D01*
X0011666Y0077754D02*
X0011716Y0077805D01*
X0011763Y0077860D01*
X0011806Y0077916D01*
X0011847Y0077975D01*
X0011885Y0078036D01*
X0011919Y0078099D01*
X0011950Y0078164D01*
X0011978Y0078230D01*
X0012002Y0078297D01*
X0012022Y0078366D01*
X0012039Y0078436D01*
X0012052Y0078506D01*
X0012061Y0078577D01*
X0012067Y0078648D01*
X0012069Y0078720D01*
X0012067Y0078768D01*
X0012062Y0078816D01*
X0012053Y0078863D01*
X0012040Y0078910D01*
X0012024Y0078955D01*
X0012005Y0078999D01*
X0011983Y0079042D01*
X0011957Y0079083D01*
X0011928Y0079122D01*
X0011897Y0079158D01*
X0011863Y0079192D01*
X0011827Y0079223D01*
X0011788Y0079252D01*
X0011747Y0079278D01*
X0011704Y0079300D01*
X0011660Y0079319D01*
X0011615Y0079335D01*
X0011568Y0079348D01*
X0011521Y0079357D01*
X0011473Y0079362D01*
X0011425Y0079364D01*
X0011425Y0079365D02*
X0011376Y0079363D01*
X0011328Y0079358D01*
X0011280Y0079349D01*
X0011234Y0079336D01*
X0011188Y0079320D01*
X0011143Y0079301D01*
X0011100Y0079279D01*
X0011059Y0079253D01*
X0011020Y0079224D01*
X0010983Y0079193D01*
X0010948Y0079159D01*
X0010916Y0079122D01*
X0010887Y0079083D01*
X0010861Y0079043D01*
X0010458Y0074380D02*
X0010458Y0073736D01*
X0010458Y0074380D02*
X0010456Y0074429D01*
X0010450Y0074478D01*
X0010441Y0074527D01*
X0010428Y0074574D01*
X0010411Y0074621D01*
X0010391Y0074666D01*
X0010368Y0074709D01*
X0010341Y0074751D01*
X0010311Y0074790D01*
X0010278Y0074827D01*
X0010242Y0074861D01*
X0010204Y0074892D01*
X0010164Y0074921D01*
X0010122Y0074946D01*
X0010077Y0074968D01*
X0010032Y0074986D01*
X0009985Y0075001D01*
X0009937Y0075012D01*
X0009888Y0075020D01*
X0009839Y0075024D01*
X0009789Y0075024D01*
X0009740Y0075020D01*
X0009691Y0075012D01*
X0009643Y0075001D01*
X0009596Y0074986D01*
X0009551Y0074968D01*
X0009506Y0074946D01*
X0009464Y0074921D01*
X0009424Y0074892D01*
X0009386Y0074861D01*
X0009350Y0074827D01*
X0009317Y0074790D01*
X0009287Y0074751D01*
X0009260Y0074709D01*
X0009237Y0074666D01*
X0009217Y0074621D01*
X0009200Y0074574D01*
X0009187Y0074527D01*
X0009178Y0074478D01*
X0009172Y0074429D01*
X0009170Y0074380D01*
X0009169Y0074380D02*
X0009169Y0073414D01*
X0009169Y0072306D02*
X0012069Y0071339D01*
X0009169Y0070373D01*
X0009169Y0068620D02*
X0009169Y0067654D01*
X0009170Y0068620D02*
X0009172Y0068669D01*
X0009178Y0068718D01*
X0009187Y0068767D01*
X0009200Y0068814D01*
X0009217Y0068861D01*
X0009237Y0068906D01*
X0009260Y0068949D01*
X0009287Y0068991D01*
X0009317Y0069030D01*
X0009350Y0069067D01*
X0009386Y0069101D01*
X0009424Y0069132D01*
X0009464Y0069161D01*
X0009506Y0069186D01*
X0009551Y0069208D01*
X0009596Y0069226D01*
X0009643Y0069241D01*
X0009691Y0069252D01*
X0009740Y0069260D01*
X0009789Y0069264D01*
X0009839Y0069264D01*
X0009888Y0069260D01*
X0009937Y0069252D01*
X0009985Y0069241D01*
X0010032Y0069226D01*
X0010077Y0069208D01*
X0010122Y0069186D01*
X0010164Y0069161D01*
X0010204Y0069132D01*
X0010242Y0069101D01*
X0010278Y0069067D01*
X0010311Y0069030D01*
X0010341Y0068991D01*
X0010368Y0068949D01*
X0010391Y0068906D01*
X0010411Y0068861D01*
X0010428Y0068814D01*
X0010441Y0068767D01*
X0010450Y0068718D01*
X0010456Y0068669D01*
X0010458Y0068620D01*
X0010458Y0067976D01*
X0010458Y0068459D02*
X0010460Y0068514D01*
X0010466Y0068569D01*
X0010475Y0068623D01*
X0010488Y0068676D01*
X0010505Y0068729D01*
X0010525Y0068780D01*
X0010548Y0068830D01*
X0010575Y0068878D01*
X0010606Y0068924D01*
X0010639Y0068968D01*
X0010675Y0069009D01*
X0010714Y0069048D01*
X0010755Y0069084D01*
X0010799Y0069117D01*
X0010845Y0069148D01*
X0010893Y0069175D01*
X0010943Y0069198D01*
X0010994Y0069218D01*
X0011047Y0069235D01*
X0011100Y0069248D01*
X0011154Y0069257D01*
X0011209Y0069263D01*
X0011264Y0069265D01*
X0011319Y0069263D01*
X0011374Y0069257D01*
X0011428Y0069248D01*
X0011481Y0069235D01*
X0011534Y0069218D01*
X0011585Y0069198D01*
X0011635Y0069175D01*
X0011683Y0069148D01*
X0011729Y0069117D01*
X0011773Y0069084D01*
X0011814Y0069048D01*
X0011853Y0069009D01*
X0011889Y0068968D01*
X0011922Y0068924D01*
X0011953Y0068878D01*
X0011980Y0068830D01*
X0012003Y0068780D01*
X0012023Y0068729D01*
X0012040Y0068676D01*
X0012053Y0068623D01*
X0012062Y0068569D01*
X0012068Y0068514D01*
X0012070Y0068459D01*
X0012069Y0068459D02*
X0012069Y0067654D01*
X0011164Y0062306D02*
X0009875Y0062306D01*
X0009820Y0062304D01*
X0009765Y0062298D01*
X0009711Y0062289D01*
X0009658Y0062276D01*
X0009605Y0062259D01*
X0009554Y0062239D01*
X0009504Y0062216D01*
X0009456Y0062189D01*
X0009410Y0062158D01*
X0009366Y0062125D01*
X0009325Y0062089D01*
X0009286Y0062050D01*
X0009250Y0062009D01*
X0009217Y0061965D01*
X0009186Y0061919D01*
X0009159Y0061871D01*
X0009136Y0061821D01*
X0009116Y0061770D01*
X0009099Y0061717D01*
X0009086Y0061664D01*
X0009077Y0061610D01*
X0009071Y0061555D01*
X0009069Y0061500D01*
X0009071Y0061445D01*
X0009077Y0061390D01*
X0009086Y0061336D01*
X0009099Y0061283D01*
X0009116Y0061230D01*
X0009136Y0061179D01*
X0009159Y0061129D01*
X0009186Y0061081D01*
X0009217Y0061035D01*
X0009250Y0060991D01*
X0009286Y0060950D01*
X0009325Y0060911D01*
X0009366Y0060875D01*
X0009410Y0060842D01*
X0009456Y0060811D01*
X0009504Y0060784D01*
X0009554Y0060761D01*
X0009605Y0060741D01*
X0009658Y0060724D01*
X0009711Y0060711D01*
X0009765Y0060702D01*
X0009820Y0060696D01*
X0009875Y0060694D01*
X0009875Y0060695D02*
X0011164Y0060695D01*
X0011164Y0060694D02*
X0011219Y0060696D01*
X0011274Y0060702D01*
X0011328Y0060711D01*
X0011381Y0060724D01*
X0011434Y0060741D01*
X0011485Y0060761D01*
X0011535Y0060784D01*
X0011583Y0060811D01*
X0011629Y0060842D01*
X0011673Y0060875D01*
X0011714Y0060911D01*
X0011753Y0060950D01*
X0011789Y0060991D01*
X0011822Y0061035D01*
X0011853Y0061081D01*
X0011880Y0061129D01*
X0011903Y0061179D01*
X0011923Y0061230D01*
X0011940Y0061283D01*
X0011953Y0061336D01*
X0011962Y0061390D01*
X0011968Y0061445D01*
X0011970Y0061500D01*
X0011968Y0061555D01*
X0011962Y0061610D01*
X0011953Y0061664D01*
X0011940Y0061717D01*
X0011923Y0061770D01*
X0011903Y0061821D01*
X0011880Y0061871D01*
X0011853Y0061919D01*
X0011822Y0061965D01*
X0011789Y0062009D01*
X0011753Y0062050D01*
X0011714Y0062089D01*
X0011673Y0062125D01*
X0011629Y0062158D01*
X0011583Y0062189D01*
X0011535Y0062216D01*
X0011485Y0062239D01*
X0011434Y0062259D01*
X0011381Y0062276D01*
X0011328Y0062289D01*
X0011274Y0062298D01*
X0011219Y0062304D01*
X0011164Y0062306D01*
X0009069Y0059587D02*
X0011969Y0058620D01*
X0009069Y0057654D01*
X0012966Y0046847D02*
X0012966Y0045236D01*
X0012966Y0046041D02*
X0010066Y0046041D01*
X0010711Y0045236D01*
X0010872Y0043871D02*
X0012161Y0043871D01*
X0012161Y0043872D02*
X0012216Y0043870D01*
X0012271Y0043864D01*
X0012325Y0043855D01*
X0012378Y0043842D01*
X0012431Y0043825D01*
X0012482Y0043805D01*
X0012532Y0043782D01*
X0012580Y0043755D01*
X0012626Y0043724D01*
X0012670Y0043691D01*
X0012711Y0043655D01*
X0012750Y0043616D01*
X0012786Y0043575D01*
X0012819Y0043531D01*
X0012850Y0043485D01*
X0012877Y0043437D01*
X0012900Y0043387D01*
X0012920Y0043336D01*
X0012937Y0043283D01*
X0012950Y0043230D01*
X0012959Y0043176D01*
X0012965Y0043121D01*
X0012967Y0043066D01*
X0012966Y0043065D02*
X0012966Y0042260D01*
X0010066Y0042260D01*
X0010066Y0043065D01*
X0010068Y0043120D01*
X0010074Y0043175D01*
X0010083Y0043229D01*
X0010096Y0043282D01*
X0010113Y0043335D01*
X0010133Y0043386D01*
X0010156Y0043436D01*
X0010183Y0043484D01*
X0010214Y0043530D01*
X0010247Y0043574D01*
X0010283Y0043615D01*
X0010322Y0043654D01*
X0010363Y0043690D01*
X0010407Y0043723D01*
X0010453Y0043754D01*
X0010501Y0043781D01*
X0010551Y0043804D01*
X0010602Y0043824D01*
X0010655Y0043841D01*
X0010708Y0043854D01*
X0010762Y0043863D01*
X0010817Y0043869D01*
X0010872Y0043871D01*
X0012966Y0021325D02*
X0013772Y0021325D01*
X0012966Y0021325D02*
X0012966Y0018425D01*
X0012966Y0019713D02*
X0013772Y0019713D01*
X0013933Y0019713D02*
X0014577Y0018425D01*
X0016133Y0020116D02*
X0017019Y0019633D01*
X0016697Y0018425D02*
X0016625Y0018427D01*
X0016554Y0018433D01*
X0016483Y0018442D01*
X0016413Y0018455D01*
X0016343Y0018472D01*
X0016274Y0018492D01*
X0016207Y0018516D01*
X0016141Y0018544D01*
X0016076Y0018575D01*
X0016013Y0018609D01*
X0015952Y0018647D01*
X0015893Y0018688D01*
X0015837Y0018731D01*
X0015782Y0018778D01*
X0015731Y0018828D01*
X0017020Y0019633D02*
X0017060Y0019607D01*
X0017099Y0019578D01*
X0017136Y0019546D01*
X0017170Y0019511D01*
X0017201Y0019474D01*
X0017230Y0019435D01*
X0017256Y0019394D01*
X0017278Y0019351D01*
X0017297Y0019306D01*
X0017313Y0019260D01*
X0017326Y0019214D01*
X0017335Y0019166D01*
X0017340Y0019118D01*
X0017342Y0019069D01*
X0017341Y0019069D02*
X0017339Y0019021D01*
X0017334Y0018973D01*
X0017325Y0018926D01*
X0017312Y0018879D01*
X0017296Y0018834D01*
X0017277Y0018790D01*
X0017255Y0018747D01*
X0017229Y0018706D01*
X0017200Y0018667D01*
X0017169Y0018631D01*
X0017135Y0018597D01*
X0017099Y0018566D01*
X0017060Y0018537D01*
X0017019Y0018511D01*
X0016976Y0018489D01*
X0016932Y0018470D01*
X0016887Y0018454D01*
X0016840Y0018441D01*
X0016793Y0018432D01*
X0016745Y0018427D01*
X0016697Y0018425D01*
X0017180Y0021082D02*
X0017127Y0021120D01*
X0017072Y0021154D01*
X0017016Y0021186D01*
X0016957Y0021215D01*
X0016898Y0021240D01*
X0016837Y0021262D01*
X0016775Y0021281D01*
X0016712Y0021296D01*
X0016649Y0021308D01*
X0016584Y0021317D01*
X0016520Y0021322D01*
X0016455Y0021324D01*
X0016407Y0021322D01*
X0016359Y0021317D01*
X0016312Y0021308D01*
X0016265Y0021295D01*
X0016220Y0021279D01*
X0016176Y0021260D01*
X0016133Y0021238D01*
X0016092Y0021212D01*
X0016053Y0021184D01*
X0016017Y0021152D01*
X0015983Y0021118D01*
X0015952Y0021082D01*
X0015923Y0021043D01*
X0015897Y0021002D01*
X0015875Y0020959D01*
X0015856Y0020915D01*
X0015840Y0020870D01*
X0015827Y0020823D01*
X0015818Y0020776D01*
X0015813Y0020728D01*
X0015811Y0020680D01*
X0015810Y0020680D02*
X0015812Y0020631D01*
X0015817Y0020583D01*
X0015826Y0020535D01*
X0015839Y0020489D01*
X0015855Y0020443D01*
X0015874Y0020398D01*
X0015896Y0020355D01*
X0015922Y0020314D01*
X0015951Y0020275D01*
X0015982Y0020238D01*
X0016016Y0020203D01*
X0016053Y0020171D01*
X0016092Y0020142D01*
X0016132Y0020116D01*
X0013772Y0019713D02*
X0013827Y0019715D01*
X0013882Y0019721D01*
X0013936Y0019730D01*
X0013989Y0019743D01*
X0014042Y0019760D01*
X0014093Y0019780D01*
X0014143Y0019803D01*
X0014191Y0019830D01*
X0014237Y0019861D01*
X0014281Y0019894D01*
X0014322Y0019930D01*
X0014361Y0019969D01*
X0014397Y0020010D01*
X0014430Y0020054D01*
X0014461Y0020100D01*
X0014488Y0020148D01*
X0014511Y0020198D01*
X0014531Y0020249D01*
X0014548Y0020302D01*
X0014561Y0020355D01*
X0014570Y0020409D01*
X0014576Y0020464D01*
X0014578Y0020519D01*
X0014576Y0020574D01*
X0014570Y0020629D01*
X0014561Y0020683D01*
X0014548Y0020736D01*
X0014531Y0020789D01*
X0014511Y0020840D01*
X0014488Y0020890D01*
X0014461Y0020938D01*
X0014430Y0020984D01*
X0014397Y0021028D01*
X0014361Y0021069D01*
X0014322Y0021108D01*
X0014281Y0021144D01*
X0014237Y0021177D01*
X0014191Y0021208D01*
X0014143Y0021235D01*
X0014093Y0021258D01*
X0014042Y0021278D01*
X0013989Y0021295D01*
X0013936Y0021308D01*
X0013882Y0021317D01*
X0013827Y0021323D01*
X0013772Y0021325D01*
X0018322Y0021325D02*
X0019933Y0021325D01*
X0019128Y0021325D02*
X0019128Y0018425D01*
X0029848Y0066091D02*
X0030492Y0066091D01*
X0029848Y0066091D02*
X0029800Y0066093D01*
X0029752Y0066098D01*
X0029705Y0066107D01*
X0029658Y0066120D01*
X0029613Y0066136D01*
X0029569Y0066155D01*
X0029526Y0066177D01*
X0029485Y0066203D01*
X0029446Y0066232D01*
X0029410Y0066263D01*
X0029376Y0066297D01*
X0029345Y0066333D01*
X0029316Y0066372D01*
X0029290Y0066413D01*
X0029268Y0066456D01*
X0029249Y0066500D01*
X0029233Y0066545D01*
X0029220Y0066592D01*
X0029211Y0066639D01*
X0029206Y0066687D01*
X0029204Y0066735D01*
X0029203Y0066735D02*
X0029203Y0068346D01*
X0029204Y0068346D02*
X0029206Y0068397D01*
X0029212Y0068447D01*
X0029222Y0068496D01*
X0029236Y0068545D01*
X0029253Y0068592D01*
X0029274Y0068638D01*
X0029299Y0068682D01*
X0029327Y0068725D01*
X0029358Y0068764D01*
X0029393Y0068801D01*
X0029430Y0068836D01*
X0029469Y0068867D01*
X0029512Y0068895D01*
X0029556Y0068920D01*
X0029602Y0068941D01*
X0029649Y0068958D01*
X0029698Y0068972D01*
X0029747Y0068982D01*
X0029797Y0068988D01*
X0029848Y0068990D01*
X0029848Y0068991D02*
X0030492Y0068991D01*
X0032982Y0067702D02*
X0033019Y0067739D01*
X0033053Y0067779D01*
X0033085Y0067821D01*
X0033113Y0067866D01*
X0033139Y0067912D01*
X0033161Y0067959D01*
X0033180Y0068008D01*
X0033196Y0068058D01*
X0033208Y0068109D01*
X0033217Y0068161D01*
X0033222Y0068213D01*
X0033224Y0068266D01*
X0032982Y0067702D02*
X0031612Y0066091D01*
X0033224Y0066091D01*
X0031613Y0068346D02*
X0031633Y0068401D01*
X0031656Y0068455D01*
X0031683Y0068507D01*
X0031713Y0068557D01*
X0031745Y0068606D01*
X0031781Y0068652D01*
X0031820Y0068696D01*
X0031861Y0068737D01*
X0031905Y0068776D01*
X0031951Y0068812D01*
X0032000Y0068845D01*
X0032050Y0068875D01*
X0032102Y0068901D01*
X0032156Y0068925D01*
X0032211Y0068944D01*
X0032267Y0068961D01*
X0032324Y0068973D01*
X0032382Y0068983D01*
X0032440Y0068988D01*
X0032499Y0068990D01*
X0032499Y0068991D02*
X0032551Y0068989D01*
X0032602Y0068984D01*
X0032653Y0068974D01*
X0032703Y0068962D01*
X0032752Y0068945D01*
X0032800Y0068925D01*
X0032846Y0068902D01*
X0032891Y0068876D01*
X0032933Y0068846D01*
X0032974Y0068814D01*
X0033012Y0068779D01*
X0033047Y0068741D01*
X0033079Y0068700D01*
X0033109Y0068658D01*
X0033135Y0068613D01*
X0033158Y0068567D01*
X0033178Y0068519D01*
X0033195Y0068470D01*
X0033207Y0068420D01*
X0033217Y0068369D01*
X0033222Y0068318D01*
X0033224Y0068266D01*
X0012069Y0073414D02*
X0012069Y0074219D01*
X0012070Y0074219D02*
X0012068Y0074274D01*
X0012062Y0074329D01*
X0012053Y0074383D01*
X0012040Y0074436D01*
X0012023Y0074489D01*
X0012003Y0074540D01*
X0011980Y0074590D01*
X0011953Y0074638D01*
X0011922Y0074684D01*
X0011889Y0074728D01*
X0011853Y0074769D01*
X0011814Y0074808D01*
X0011773Y0074844D01*
X0011729Y0074877D01*
X0011683Y0074908D01*
X0011635Y0074935D01*
X0011585Y0074958D01*
X0011534Y0074978D01*
X0011481Y0074995D01*
X0011428Y0075008D01*
X0011374Y0075017D01*
X0011319Y0075023D01*
X0011264Y0075025D01*
X0011209Y0075023D01*
X0011154Y0075017D01*
X0011100Y0075008D01*
X0011047Y0074995D01*
X0010994Y0074978D01*
X0010943Y0074958D01*
X0010893Y0074935D01*
X0010845Y0074908D01*
X0010799Y0074877D01*
X0010755Y0074844D01*
X0010714Y0074808D01*
X0010675Y0074769D01*
X0010639Y0074728D01*
X0010606Y0074684D01*
X0010575Y0074638D01*
X0010548Y0074590D01*
X0010525Y0074540D01*
X0010505Y0074489D01*
X0010488Y0074436D01*
X0010475Y0074383D01*
X0010466Y0074329D01*
X0010460Y0074274D01*
X0010458Y0074219D01*
D14*
X0032053Y0063015D02*
X0032053Y0059866D01*
X0047053Y0058441D02*
X0047053Y0054441D01*
X0047053Y0064441D02*
X0047053Y0068441D01*
X0057053Y0074866D02*
X0057053Y0078015D01*
X0052053Y0043015D02*
X0052053Y0039866D01*
D15*
X0048320Y0049041D02*
X0048320Y0050196D01*
X0048753Y0049618D02*
X0047309Y0049618D01*
X0047887Y0051641D01*
X0046050Y0051641D02*
X0045473Y0051641D01*
X0045425Y0051639D01*
X0045378Y0051633D01*
X0045331Y0051623D01*
X0045285Y0051610D01*
X0045241Y0051592D01*
X0045198Y0051571D01*
X0045157Y0051547D01*
X0045118Y0051519D01*
X0045082Y0051488D01*
X0045048Y0051454D01*
X0045017Y0051418D01*
X0044989Y0051379D01*
X0044965Y0051338D01*
X0044944Y0051295D01*
X0044926Y0051251D01*
X0044913Y0051205D01*
X0044903Y0051158D01*
X0044897Y0051111D01*
X0044895Y0051063D01*
X0044895Y0049618D01*
X0044897Y0049573D01*
X0044902Y0049528D01*
X0044911Y0049483D01*
X0044923Y0049439D01*
X0044939Y0049397D01*
X0044958Y0049356D01*
X0044980Y0049316D01*
X0045005Y0049278D01*
X0045033Y0049243D01*
X0045064Y0049209D01*
X0045098Y0049178D01*
X0045133Y0049150D01*
X0045171Y0049125D01*
X0045211Y0049103D01*
X0045252Y0049084D01*
X0045294Y0049068D01*
X0045338Y0049056D01*
X0045383Y0049047D01*
X0045428Y0049042D01*
X0045473Y0049040D01*
X0045473Y0049041D02*
X0046050Y0049041D01*
X0057303Y0030924D02*
X0057303Y0029624D01*
X0057953Y0029407D02*
X0055353Y0030274D01*
X0057953Y0031141D01*
X0057953Y0027586D02*
X0055353Y0027586D01*
X0055353Y0026864D02*
X0055353Y0028308D01*
X0053053Y0027141D02*
X0051053Y0027141D01*
X0052053Y0025891D01*
X0053053Y0027141D01*
X0052633Y0026615D02*
X0051474Y0026615D01*
X0051952Y0026017D02*
X0052154Y0026017D01*
X0055353Y0024898D02*
X0057953Y0025765D01*
X0057303Y0025548D02*
X0057303Y0024248D01*
X0057953Y0024031D02*
X0055353Y0024898D01*
X0056076Y0022644D02*
X0057231Y0022644D01*
X0057283Y0022642D01*
X0057334Y0022637D01*
X0057384Y0022628D01*
X0057434Y0022615D01*
X0057483Y0022598D01*
X0057531Y0022579D01*
X0057577Y0022556D01*
X0057621Y0022529D01*
X0057664Y0022500D01*
X0057704Y0022468D01*
X0057742Y0022433D01*
X0057777Y0022395D01*
X0057809Y0022355D01*
X0057838Y0022312D01*
X0057865Y0022268D01*
X0057888Y0022222D01*
X0057907Y0022174D01*
X0057924Y0022125D01*
X0057937Y0022075D01*
X0057946Y0022025D01*
X0057951Y0021974D01*
X0057953Y0021922D01*
X0057953Y0021200D01*
X0055353Y0021200D01*
X0055353Y0021922D01*
X0055354Y0021922D02*
X0055356Y0021974D01*
X0055361Y0022025D01*
X0055371Y0022075D01*
X0055383Y0022125D01*
X0055400Y0022174D01*
X0055419Y0022222D01*
X0055442Y0022268D01*
X0055469Y0022312D01*
X0055498Y0022355D01*
X0055530Y0022395D01*
X0055565Y0022433D01*
X0055603Y0022468D01*
X0055643Y0022500D01*
X0055686Y0022529D01*
X0055730Y0022556D01*
X0055776Y0022579D01*
X0055824Y0022598D01*
X0055873Y0022615D01*
X0055923Y0022628D01*
X0055973Y0022637D01*
X0056025Y0022642D01*
X0056076Y0022644D01*
X0033493Y0033741D02*
X0032048Y0033741D01*
X0033276Y0035185D01*
X0032843Y0036341D02*
X0032788Y0036339D01*
X0032733Y0036334D01*
X0032678Y0036325D01*
X0032625Y0036312D01*
X0032572Y0036296D01*
X0032520Y0036276D01*
X0032470Y0036253D01*
X0032421Y0036227D01*
X0032374Y0036197D01*
X0032330Y0036165D01*
X0032287Y0036129D01*
X0032247Y0036091D01*
X0032210Y0036050D01*
X0032175Y0036007D01*
X0032144Y0035962D01*
X0032115Y0035915D01*
X0032090Y0035866D01*
X0032067Y0035815D01*
X0032049Y0035763D01*
X0033276Y0035186D02*
X0033312Y0035222D01*
X0033345Y0035262D01*
X0033375Y0035303D01*
X0033402Y0035347D01*
X0033426Y0035393D01*
X0033446Y0035440D01*
X0033463Y0035488D01*
X0033476Y0035538D01*
X0033485Y0035589D01*
X0033491Y0035640D01*
X0033493Y0035691D01*
X0033491Y0035740D01*
X0033486Y0035788D01*
X0033477Y0035836D01*
X0033464Y0035883D01*
X0033448Y0035928D01*
X0033429Y0035973D01*
X0033406Y0036016D01*
X0033380Y0036057D01*
X0033351Y0036096D01*
X0033319Y0036133D01*
X0033285Y0036167D01*
X0033248Y0036199D01*
X0033209Y0036228D01*
X0033168Y0036254D01*
X0033125Y0036277D01*
X0033080Y0036296D01*
X0033035Y0036312D01*
X0032988Y0036325D01*
X0032940Y0036334D01*
X0032892Y0036339D01*
X0032843Y0036341D01*
X0030798Y0035618D02*
X0030798Y0034463D01*
X0030509Y0034318D02*
X0031087Y0033741D01*
X0030798Y0034463D02*
X0030796Y0034410D01*
X0030790Y0034358D01*
X0030781Y0034306D01*
X0030767Y0034255D01*
X0030750Y0034205D01*
X0030730Y0034157D01*
X0030706Y0034110D01*
X0030678Y0034065D01*
X0030647Y0034022D01*
X0030614Y0033981D01*
X0030577Y0033943D01*
X0030538Y0033908D01*
X0030496Y0033876D01*
X0030452Y0033847D01*
X0030406Y0033821D01*
X0030358Y0033799D01*
X0030309Y0033780D01*
X0030259Y0033764D01*
X0030207Y0033753D01*
X0030155Y0033745D01*
X0030102Y0033741D01*
X0030050Y0033741D01*
X0029997Y0033745D01*
X0029945Y0033753D01*
X0029893Y0033764D01*
X0029843Y0033780D01*
X0029794Y0033799D01*
X0029746Y0033821D01*
X0029700Y0033847D01*
X0029656Y0033876D01*
X0029614Y0033908D01*
X0029575Y0033943D01*
X0029538Y0033981D01*
X0029505Y0034022D01*
X0029474Y0034065D01*
X0029446Y0034110D01*
X0029422Y0034157D01*
X0029402Y0034205D01*
X0029385Y0034255D01*
X0029371Y0034306D01*
X0029362Y0034358D01*
X0029356Y0034410D01*
X0029354Y0034463D01*
X0029353Y0034463D02*
X0029353Y0035618D01*
X0029354Y0035618D02*
X0029356Y0035671D01*
X0029362Y0035723D01*
X0029371Y0035775D01*
X0029385Y0035826D01*
X0029402Y0035876D01*
X0029422Y0035924D01*
X0029446Y0035971D01*
X0029474Y0036016D01*
X0029505Y0036059D01*
X0029538Y0036100D01*
X0029575Y0036138D01*
X0029614Y0036173D01*
X0029656Y0036205D01*
X0029700Y0036234D01*
X0029746Y0036260D01*
X0029794Y0036282D01*
X0029843Y0036301D01*
X0029893Y0036317D01*
X0029945Y0036328D01*
X0029997Y0036336D01*
X0030050Y0036340D01*
X0030102Y0036340D01*
X0030155Y0036336D01*
X0030207Y0036328D01*
X0030259Y0036317D01*
X0030309Y0036301D01*
X0030358Y0036282D01*
X0030406Y0036260D01*
X0030452Y0036234D01*
X0030496Y0036205D01*
X0030538Y0036173D01*
X0030577Y0036138D01*
X0030614Y0036100D01*
X0030647Y0036059D01*
X0030678Y0036016D01*
X0030706Y0035971D01*
X0030730Y0035924D01*
X0030750Y0035876D01*
X0030767Y0035826D01*
X0030781Y0035775D01*
X0030790Y0035723D01*
X0030796Y0035671D01*
X0030798Y0035618D01*
X0017053Y0044472D02*
X0018628Y0048409D01*
X0015479Y0048409D01*
X0017053Y0044472D01*
X0045353Y0071818D02*
X0045353Y0073263D01*
X0045355Y0073311D01*
X0045361Y0073358D01*
X0045371Y0073405D01*
X0045384Y0073451D01*
X0045402Y0073495D01*
X0045423Y0073538D01*
X0045447Y0073579D01*
X0045475Y0073618D01*
X0045506Y0073654D01*
X0045540Y0073688D01*
X0045576Y0073719D01*
X0045615Y0073747D01*
X0045656Y0073771D01*
X0045699Y0073792D01*
X0045743Y0073810D01*
X0045789Y0073823D01*
X0045836Y0073833D01*
X0045883Y0073839D01*
X0045931Y0073841D01*
X0046509Y0073841D01*
X0047767Y0073263D02*
X0048490Y0073841D01*
X0048490Y0071241D01*
X0049212Y0071241D02*
X0047767Y0071241D01*
X0046509Y0071241D02*
X0045931Y0071241D01*
X0045931Y0071240D02*
X0045886Y0071242D01*
X0045841Y0071247D01*
X0045796Y0071256D01*
X0045752Y0071268D01*
X0045710Y0071284D01*
X0045669Y0071303D01*
X0045629Y0071325D01*
X0045591Y0071350D01*
X0045556Y0071378D01*
X0045522Y0071409D01*
X0045491Y0071443D01*
X0045463Y0071478D01*
X0045438Y0071516D01*
X0045416Y0071556D01*
X0045397Y0071597D01*
X0045381Y0071639D01*
X0045369Y0071683D01*
X0045360Y0071728D01*
X0045355Y0071773D01*
X0045353Y0071818D01*
D16*
X0038724Y0073078D02*
X0037053Y0071408D01*
X0035383Y0073078D01*
X0023691Y0084770D02*
X0022020Y0086441D01*
X0023691Y0088111D01*
X0035383Y0099803D02*
X0037053Y0101474D01*
X0038724Y0099803D01*
X0050416Y0088111D02*
X0052086Y0086441D01*
X0050416Y0084770D01*
X0020301Y0051756D02*
X0020301Y0041126D01*
X0013805Y0041126D01*
X0013805Y0051756D01*
X0020301Y0051756D01*
D17*
X0017053Y0044078D03*
D18*
G36*
X0024803Y0086441D02*
X0023412Y0085050D01*
X0022021Y0086441D01*
X0023412Y0087832D01*
X0024803Y0086441D01*
G37*
D19*
X0027672Y0095217D02*
X0028181Y0095726D01*
X0027926Y0095471D02*
X0025637Y0097760D01*
X0025383Y0097506D02*
X0025892Y0098014D01*
X0027503Y0098608D02*
X0028775Y0097337D01*
X0028812Y0097302D01*
X0028852Y0097269D01*
X0028894Y0097240D01*
X0028938Y0097214D01*
X0028984Y0097191D01*
X0029032Y0097171D01*
X0029080Y0097155D01*
X0029130Y0097142D01*
X0029181Y0097133D01*
X0029232Y0097128D01*
X0029283Y0097126D01*
X0029334Y0097128D01*
X0029385Y0097133D01*
X0029436Y0097142D01*
X0029486Y0097155D01*
X0029534Y0097171D01*
X0029582Y0097191D01*
X0029628Y0097214D01*
X0029672Y0097240D01*
X0029714Y0097269D01*
X0029754Y0097302D01*
X0029791Y0097337D01*
X0029792Y0097337D02*
X0030300Y0097845D01*
X0031383Y0098928D02*
X0032654Y0100199D01*
X0032019Y0099563D02*
X0029730Y0101852D01*
X0029603Y0100708D01*
X0028012Y0100134D02*
X0027503Y0099626D01*
X0027504Y0099625D02*
X0027469Y0099588D01*
X0027436Y0099548D01*
X0027407Y0099506D01*
X0027381Y0099462D01*
X0027358Y0099416D01*
X0027338Y0099368D01*
X0027322Y0099320D01*
X0027309Y0099270D01*
X0027300Y0099219D01*
X0027295Y0099168D01*
X0027293Y0099117D01*
X0027295Y0099066D01*
X0027300Y0099015D01*
X0027309Y0098964D01*
X0027322Y0098914D01*
X0027338Y0098866D01*
X0027358Y0098818D01*
X0027381Y0098772D01*
X0027407Y0098728D01*
X0027436Y0098686D01*
X0027469Y0098646D01*
X0027504Y0098609D01*
X0035640Y0038303D02*
X0035640Y0036505D01*
X0035640Y0037404D02*
X0032403Y0037404D01*
X0033123Y0036505D01*
X0032403Y0034642D02*
X0034741Y0034642D01*
X0034800Y0034640D01*
X0034858Y0034634D01*
X0034916Y0034625D01*
X0034974Y0034611D01*
X0035030Y0034594D01*
X0035085Y0034574D01*
X0035139Y0034549D01*
X0035190Y0034522D01*
X0035240Y0034490D01*
X0035288Y0034456D01*
X0035334Y0034419D01*
X0035377Y0034379D01*
X0035417Y0034336D01*
X0035454Y0034290D01*
X0035488Y0034242D01*
X0035520Y0034193D01*
X0035547Y0034141D01*
X0035572Y0034087D01*
X0035592Y0034032D01*
X0035609Y0033976D01*
X0035623Y0033918D01*
X0035632Y0033860D01*
X0035638Y0033802D01*
X0035640Y0033743D01*
X0035638Y0033684D01*
X0035632Y0033626D01*
X0035623Y0033568D01*
X0035609Y0033510D01*
X0035592Y0033454D01*
X0035572Y0033399D01*
X0035547Y0033345D01*
X0035520Y0033294D01*
X0035488Y0033244D01*
X0035454Y0033196D01*
X0035417Y0033150D01*
X0035377Y0033107D01*
X0035334Y0033067D01*
X0035288Y0033030D01*
X0035240Y0032996D01*
X0035191Y0032964D01*
X0035139Y0032937D01*
X0035085Y0032912D01*
X0035030Y0032892D01*
X0034974Y0032875D01*
X0034916Y0032861D01*
X0034858Y0032852D01*
X0034800Y0032846D01*
X0034741Y0032844D01*
X0032403Y0032844D01*
D20*
X0052053Y0025641D03*
D21*
X0045321Y0020435D02*
X0028786Y0020435D01*
X0028786Y0032446D02*
X0045321Y0032446D01*
X0036187Y0044866D02*
X0036187Y0048015D01*
X0035203Y0052937D02*
X0028904Y0052937D01*
X0028904Y0039945D02*
X0035203Y0039945D01*
M02*
