G75*
%MOIN*%
%OFA0B0*%
%FSLAX25Y25*%
%IPPOS*%
%LPD*%
%AMOC8*
5,1,8,0,0,1.08239X$1,22.5*
%
%ADD10C,0.00000*%
%ADD11C,0.00512*%
%ADD12C,0.00400*%
%ADD13R,0.05200X0.00100*%
%ADD14R,0.06200X0.00100*%
%ADD15R,0.05800X0.00100*%
%ADD16R,0.07000X0.00100*%
%ADD17R,0.06900X0.00100*%
%ADD18R,0.01700X0.00100*%
%ADD19R,0.06600X0.00100*%
%ADD20R,0.06400X0.00100*%
%ADD21R,0.07400X0.00100*%
%ADD22R,0.07300X0.00100*%
%ADD23R,0.06800X0.00100*%
%ADD24R,0.07600X0.00100*%
%ADD25R,0.07500X0.00100*%
%ADD26R,0.07200X0.00100*%
%ADD27R,0.07800X0.00100*%
%ADD28R,0.07700X0.00100*%
%ADD29R,0.07900X0.00100*%
%ADD30R,0.08000X0.00100*%
%ADD31R,0.08100X0.00100*%
%ADD32R,0.08200X0.00100*%
%ADD33R,0.08300X0.00100*%
%ADD34R,0.02000X0.00100*%
%ADD35R,0.01800X0.00100*%
%ADD36R,0.01900X0.00100*%
%ADD37R,0.01600X0.00100*%
%ADD38R,0.01500X0.00100*%
%ADD39R,0.06100X0.00100*%
%ADD40R,0.06000X0.00100*%
%ADD41R,0.05900X0.00100*%
%ADD42R,0.05700X0.00100*%
%ADD43R,0.05600X0.00100*%
%ADD44R,0.05400X0.00100*%
%ADD45R,0.05000X0.00100*%
%ADD46R,0.06700X0.00100*%
%ADD47R,0.00100X0.00100*%
%ADD48R,0.00200X0.00100*%
%ADD49R,0.00400X0.00100*%
%ADD50R,0.00600X0.00100*%
%ADD51R,0.00700X0.00100*%
%ADD52R,0.00900X0.00100*%
%ADD53R,0.01000X0.00100*%
%ADD54R,0.01100X0.00100*%
%ADD55R,0.01300X0.00100*%
%ADD56R,0.01400X0.00100*%
%ADD57R,0.02200X0.00100*%
%ADD58R,0.03100X0.00100*%
%ADD59R,0.03800X0.00100*%
%ADD60R,0.04200X0.00100*%
%ADD61R,0.04600X0.00100*%
%ADD62R,0.02100X0.00100*%
%ADD63R,0.06500X0.00100*%
%ADD64R,0.04800X0.00100*%
%ADD65R,0.04300X0.00100*%
%ADD66R,0.00300X0.00100*%
%ADD67R,0.04100X0.00100*%
%ADD68R,0.03900X0.00100*%
%ADD69R,0.03700X0.00100*%
%ADD70R,0.03400X0.00100*%
%ADD71R,0.00500X0.00100*%
%ADD72R,0.03200X0.00100*%
%ADD73R,0.03000X0.00100*%
%ADD74R,0.02800X0.00100*%
%ADD75R,0.02700X0.00100*%
%ADD76R,0.02500X0.00100*%
%ADD77R,0.04000X0.00100*%
%ADD78R,0.03300X0.00100*%
%ADD79R,0.00800X0.00100*%
%ADD80R,0.01200X0.00100*%
%ADD81R,0.02300X0.00100*%
%ADD82R,0.02600X0.00100*%
%ADD83R,0.02900X0.00100*%
%ADD84R,0.02400X0.00100*%
%ADD85R,0.03600X0.00100*%
%ADD86R,0.04400X0.00100*%
%ADD87R,0.04500X0.00100*%
%ADD88R,0.03500X0.00100*%
%ADD89R,0.05500X0.00100*%
%ADD90R,0.05100X0.00100*%
%ADD91R,0.04900X0.00100*%
%ADD92R,0.06300X0.00100*%
%ADD93R,0.05300X0.00100*%
%ADD94C,0.00500*%
D10*
X0001156Y0015874D02*
X0001156Y0016074D01*
X0001100Y0016074D01*
X0001090Y0016072D01*
X0001081Y0016068D01*
X0001073Y0016060D01*
X0001069Y0016051D01*
X0001067Y0016041D01*
X0001067Y0015974D01*
X0001069Y0015964D01*
X0001073Y0015955D01*
X0001081Y0015947D01*
X0001090Y0015943D01*
X0001100Y0015941D01*
X0001156Y0015941D01*
X0001237Y0015941D02*
X0001237Y0016041D01*
X0001239Y0016051D01*
X0001243Y0016060D01*
X0001251Y0016068D01*
X0001260Y0016072D01*
X0001270Y0016074D01*
X0001370Y0016074D01*
X0001370Y0015941D01*
X0001304Y0015941D02*
X0001304Y0016074D01*
X0001445Y0016041D02*
X0001445Y0015974D01*
X0001447Y0015964D01*
X0001451Y0015955D01*
X0001459Y0015947D01*
X0001468Y0015943D01*
X0001478Y0015941D01*
X0001534Y0015941D01*
X0001534Y0016141D01*
X0001534Y0016074D02*
X0001478Y0016074D01*
X0001468Y0016072D01*
X0001459Y0016068D01*
X0001451Y0016060D01*
X0001447Y0016051D01*
X0001445Y0016041D01*
X0001604Y0015952D02*
X0001604Y0015941D01*
X0001615Y0015941D01*
X0001615Y0015952D01*
X0001604Y0015952D01*
X0001680Y0015941D02*
X0001791Y0015941D01*
X0001697Y0016052D01*
X0001730Y0016140D02*
X0001743Y0016139D01*
X0001756Y0016134D01*
X0001768Y0016128D01*
X0001778Y0016119D01*
X0001785Y0016108D01*
X0001791Y0016096D01*
X0001697Y0016052D02*
X0001690Y0016060D01*
X0001684Y0016070D01*
X0001681Y0016080D01*
X0001680Y0016091D01*
X0001682Y0016104D01*
X0001687Y0016116D01*
X0001695Y0016126D01*
X0001705Y0016134D01*
X0001717Y0016139D01*
X0001730Y0016141D01*
X0001916Y0016141D02*
X0001916Y0015941D01*
X0001971Y0015941D02*
X0001860Y0015941D01*
X0002040Y0015941D02*
X0002151Y0015941D01*
X0002057Y0016052D01*
X0002090Y0016140D02*
X0002103Y0016139D01*
X0002116Y0016134D01*
X0002128Y0016128D01*
X0002138Y0016119D01*
X0002145Y0016108D01*
X0002151Y0016096D01*
X0002057Y0016052D02*
X0002050Y0016060D01*
X0002044Y0016070D01*
X0002041Y0016080D01*
X0002040Y0016091D01*
X0002042Y0016104D01*
X0002047Y0016116D01*
X0002055Y0016126D01*
X0002065Y0016134D01*
X0002077Y0016139D01*
X0002090Y0016141D01*
X0001971Y0016096D02*
X0001916Y0016141D01*
X0002220Y0016141D02*
X0002331Y0016141D01*
X0002331Y0016052D01*
X0002264Y0016052D01*
X0002264Y0016051D02*
X0002253Y0016050D01*
X0002242Y0016045D01*
X0002233Y0016038D01*
X0002226Y0016029D01*
X0002221Y0016018D01*
X0002220Y0016007D01*
X0002220Y0015985D01*
X0002222Y0015974D01*
X0002226Y0015963D01*
X0002233Y0015954D01*
X0002242Y0015947D01*
X0002253Y0015942D01*
X0002264Y0015941D01*
X0002331Y0015941D01*
X0002400Y0015996D02*
X0002402Y0015983D01*
X0002406Y0015970D01*
X0002414Y0015959D01*
X0002424Y0015950D01*
X0002436Y0015944D01*
X0002449Y0015940D01*
X0002463Y0015940D01*
X0002476Y0015944D01*
X0002488Y0015950D01*
X0002498Y0015959D01*
X0002506Y0015970D01*
X0002510Y0015983D01*
X0002512Y0015996D01*
X0002674Y0015969D02*
X0002684Y0015992D01*
X0002689Y0016016D01*
X0002691Y0016041D01*
X0002580Y0016041D02*
X0002582Y0016066D01*
X0002587Y0016090D01*
X0002597Y0016113D01*
X0002591Y0016096D02*
X0002680Y0015985D01*
X0002636Y0015941D02*
X0002626Y0015942D01*
X0002616Y0015946D01*
X0002608Y0015952D01*
X0002602Y0015960D01*
X0002597Y0015969D01*
X0002636Y0015941D02*
X0002646Y0015942D01*
X0002656Y0015946D01*
X0002664Y0015952D01*
X0002670Y0015960D01*
X0002675Y0015969D01*
X0002597Y0015969D02*
X0002587Y0015992D01*
X0002582Y0016016D01*
X0002580Y0016041D01*
X0002691Y0016041D02*
X0002689Y0016066D01*
X0002684Y0016090D01*
X0002674Y0016113D01*
X0002636Y0016141D02*
X0002626Y0016140D01*
X0002616Y0016136D01*
X0002608Y0016130D01*
X0002602Y0016122D01*
X0002597Y0016113D01*
X0002636Y0016141D02*
X0002646Y0016140D01*
X0002656Y0016136D01*
X0002664Y0016130D01*
X0002670Y0016122D01*
X0002675Y0016113D01*
X0002804Y0016140D02*
X0002792Y0016138D01*
X0002780Y0016133D01*
X0002771Y0016125D01*
X0002764Y0016114D01*
X0002760Y0016102D01*
X0002760Y0016090D01*
X0002764Y0016078D01*
X0002771Y0016067D01*
X0002780Y0016059D01*
X0002792Y0016054D01*
X0002804Y0016052D01*
X0002849Y0016052D01*
X0002861Y0016041D02*
X0002861Y0015974D01*
X0002863Y0015964D01*
X0002867Y0015955D01*
X0002875Y0015947D01*
X0002884Y0015943D01*
X0002894Y0015941D01*
X0002950Y0015941D01*
X0002940Y0015941D02*
X0003051Y0015941D01*
X0003031Y0015941D02*
X0003031Y0016041D01*
X0003033Y0016051D01*
X0003037Y0016060D01*
X0003045Y0016068D01*
X0003054Y0016072D01*
X0003064Y0016074D01*
X0003164Y0016074D01*
X0003164Y0015941D01*
X0003120Y0015996D02*
X0003122Y0015983D01*
X0003126Y0015970D01*
X0003134Y0015959D01*
X0003144Y0015950D01*
X0003156Y0015944D01*
X0003169Y0015940D01*
X0003183Y0015940D01*
X0003196Y0015944D01*
X0003208Y0015950D01*
X0003218Y0015959D01*
X0003226Y0015970D01*
X0003230Y0015983D01*
X0003232Y0015996D01*
X0003239Y0015974D02*
X0003239Y0016041D01*
X0003241Y0016051D01*
X0003245Y0016060D01*
X0003253Y0016068D01*
X0003262Y0016072D01*
X0003272Y0016074D01*
X0003328Y0016074D01*
X0003328Y0016141D02*
X0003328Y0015941D01*
X0003272Y0015941D01*
X0003262Y0015943D01*
X0003253Y0015947D01*
X0003245Y0015955D01*
X0003241Y0015964D01*
X0003239Y0015974D01*
X0003232Y0015996D02*
X0003230Y0016009D01*
X0003226Y0016022D01*
X0003218Y0016033D01*
X0003208Y0016042D01*
X0003196Y0016048D01*
X0003183Y0016052D01*
X0003169Y0016052D01*
X0003156Y0016048D01*
X0003144Y0016042D01*
X0003134Y0016033D01*
X0003126Y0016022D01*
X0003122Y0016009D01*
X0003120Y0015996D01*
X0003098Y0015941D02*
X0003098Y0016074D01*
X0003051Y0016096D02*
X0002996Y0016141D01*
X0002996Y0015941D01*
X0002950Y0015874D02*
X0002950Y0016074D01*
X0002894Y0016074D01*
X0002884Y0016072D01*
X0002875Y0016068D01*
X0002867Y0016060D01*
X0002863Y0016051D01*
X0002861Y0016041D01*
X0002816Y0016052D02*
X0002803Y0016050D01*
X0002790Y0016046D01*
X0002779Y0016038D01*
X0002770Y0016028D01*
X0002764Y0016016D01*
X0002760Y0016003D01*
X0002760Y0015989D01*
X0002764Y0015976D01*
X0002770Y0015964D01*
X0002779Y0015954D01*
X0002790Y0015946D01*
X0002803Y0015942D01*
X0002816Y0015940D01*
X0002816Y0015941D02*
X0002871Y0015941D01*
X0002871Y0016141D02*
X0002804Y0016141D01*
X0002500Y0016096D02*
X0002498Y0016084D01*
X0002493Y0016072D01*
X0002485Y0016063D01*
X0002474Y0016056D01*
X0002462Y0016052D01*
X0002450Y0016052D01*
X0002438Y0016056D01*
X0002427Y0016063D01*
X0002419Y0016072D01*
X0002414Y0016084D01*
X0002412Y0016096D01*
X0002414Y0016108D01*
X0002419Y0016120D01*
X0002427Y0016129D01*
X0002438Y0016136D01*
X0002450Y0016140D01*
X0002462Y0016140D01*
X0002474Y0016136D01*
X0002485Y0016129D01*
X0002493Y0016120D01*
X0002498Y0016108D01*
X0002500Y0016096D01*
X0002512Y0015996D02*
X0002510Y0016009D01*
X0002506Y0016022D01*
X0002498Y0016033D01*
X0002488Y0016042D01*
X0002476Y0016048D01*
X0002463Y0016052D01*
X0002449Y0016052D01*
X0002436Y0016048D01*
X0002424Y0016042D01*
X0002414Y0016033D01*
X0002406Y0016022D01*
X0002402Y0016009D01*
X0002400Y0015996D01*
X0003132Y0016096D02*
X0003134Y0016084D01*
X0003139Y0016072D01*
X0003147Y0016063D01*
X0003158Y0016056D01*
X0003170Y0016052D01*
X0003182Y0016052D01*
X0003194Y0016056D01*
X0003205Y0016063D01*
X0003213Y0016072D01*
X0003218Y0016084D01*
X0003220Y0016096D01*
X0003218Y0016108D01*
X0003213Y0016120D01*
X0003205Y0016129D01*
X0003194Y0016136D01*
X0003182Y0016140D01*
X0003170Y0016140D01*
X0003158Y0016136D01*
X0003147Y0016129D01*
X0003139Y0016120D01*
X0003134Y0016108D01*
X0003132Y0016096D01*
X0003300Y0016141D02*
X0003356Y0015941D01*
X0003398Y0015941D02*
X0003409Y0015941D01*
X0003409Y0015952D01*
X0003398Y0015952D01*
X0003398Y0015941D01*
X0003480Y0015941D02*
X0003547Y0015941D01*
X0003558Y0015942D01*
X0003569Y0015947D01*
X0003578Y0015954D01*
X0003585Y0015963D01*
X0003590Y0015974D01*
X0003591Y0015985D01*
X0003591Y0016096D01*
X0003590Y0016107D01*
X0003585Y0016118D01*
X0003578Y0016127D01*
X0003569Y0016134D01*
X0003558Y0016139D01*
X0003547Y0016140D01*
X0003547Y0016141D02*
X0003480Y0016141D01*
X0003411Y0016141D02*
X0003300Y0016141D01*
X0003411Y0016141D02*
X0003411Y0016118D01*
X0003480Y0016052D02*
X0003480Y0015941D01*
X0003480Y0015996D02*
X0003480Y0016007D01*
X0003482Y0016018D01*
X0003486Y0016029D01*
X0003493Y0016038D01*
X0003502Y0016045D01*
X0003513Y0016050D01*
X0003524Y0016051D01*
X0003524Y0016052D02*
X0003591Y0016052D01*
X0003591Y0015996D01*
X0003592Y0015996D02*
X0003590Y0015983D01*
X0003586Y0015970D01*
X0003578Y0015959D01*
X0003568Y0015950D01*
X0003556Y0015944D01*
X0003543Y0015940D01*
X0003529Y0015940D01*
X0003516Y0015944D01*
X0003504Y0015950D01*
X0003494Y0015959D01*
X0003486Y0015970D01*
X0003482Y0015983D01*
X0003480Y0015996D01*
X0003480Y0016052D02*
X0003513Y0016052D01*
X0003591Y0016052D02*
X0003589Y0016069D01*
X0003584Y0016086D01*
X0003576Y0016101D01*
X0003565Y0016115D01*
X0003551Y0016126D01*
X0003536Y0016134D01*
X0003519Y0016139D01*
X0003502Y0016141D01*
X0003660Y0016141D02*
X0003716Y0015941D01*
X0003672Y0015996D02*
X0003674Y0015983D01*
X0003678Y0015970D01*
X0003686Y0015959D01*
X0003696Y0015950D01*
X0003708Y0015944D01*
X0003721Y0015940D01*
X0003735Y0015940D01*
X0003748Y0015944D01*
X0003760Y0015950D01*
X0003770Y0015959D01*
X0003778Y0015970D01*
X0003782Y0015983D01*
X0003784Y0015996D01*
X0003783Y0015996D02*
X0003783Y0016141D01*
X0003771Y0016141D02*
X0003660Y0016141D01*
X0003672Y0016141D02*
X0003672Y0015996D01*
X0003771Y0016118D02*
X0003771Y0016141D01*
X0003852Y0016096D02*
X0003854Y0016084D01*
X0003859Y0016072D01*
X0003867Y0016063D01*
X0003878Y0016056D01*
X0003890Y0016052D01*
X0003902Y0016052D01*
X0003914Y0016056D01*
X0003925Y0016063D01*
X0003933Y0016072D01*
X0003938Y0016084D01*
X0003940Y0016096D01*
X0003906Y0016140D02*
X0003894Y0016138D01*
X0003882Y0016133D01*
X0003873Y0016125D01*
X0003866Y0016114D01*
X0003862Y0016102D01*
X0003862Y0016090D01*
X0003866Y0016078D01*
X0003873Y0016067D01*
X0003882Y0016059D01*
X0003894Y0016054D01*
X0003906Y0016052D01*
X0003962Y0016052D01*
X0003906Y0016052D02*
X0003893Y0016050D01*
X0003880Y0016046D01*
X0003869Y0016038D01*
X0003860Y0016028D01*
X0003854Y0016016D01*
X0003850Y0016003D01*
X0003850Y0015989D01*
X0003854Y0015976D01*
X0003860Y0015964D01*
X0003869Y0015954D01*
X0003880Y0015946D01*
X0003893Y0015942D01*
X0003906Y0015940D01*
X0003906Y0015941D02*
X0003962Y0015941D01*
X0003962Y0016141D01*
X0003906Y0016141D01*
X0003940Y0016096D02*
X0003938Y0016108D01*
X0003933Y0016120D01*
X0003925Y0016129D01*
X0003914Y0016136D01*
X0003902Y0016140D01*
X0003890Y0016140D01*
X0003878Y0016136D01*
X0003867Y0016129D01*
X0003859Y0016120D01*
X0003854Y0016108D01*
X0003852Y0016096D01*
X0003840Y0015996D02*
X0003842Y0015983D01*
X0003846Y0015970D01*
X0003854Y0015959D01*
X0003864Y0015950D01*
X0003876Y0015944D01*
X0003889Y0015940D01*
X0003903Y0015940D01*
X0003916Y0015944D01*
X0003928Y0015950D01*
X0003938Y0015959D01*
X0003946Y0015970D01*
X0003950Y0015983D01*
X0003952Y0015996D01*
X0003950Y0016009D01*
X0003946Y0016022D01*
X0003938Y0016033D01*
X0003928Y0016042D01*
X0003916Y0016048D01*
X0003903Y0016052D01*
X0003889Y0016052D01*
X0003876Y0016048D01*
X0003864Y0016042D01*
X0003854Y0016033D01*
X0003846Y0016022D01*
X0003842Y0016009D01*
X0003840Y0015996D01*
X0004030Y0015941D02*
X0004119Y0015941D01*
X0004119Y0016141D01*
X0004030Y0016141D01*
X0004065Y0016141D02*
X0004131Y0016141D01*
X0004065Y0016140D02*
X0004053Y0016138D01*
X0004041Y0016133D01*
X0004032Y0016125D01*
X0004025Y0016114D01*
X0004021Y0016102D01*
X0004021Y0016090D01*
X0004025Y0016078D01*
X0004032Y0016067D01*
X0004041Y0016059D01*
X0004053Y0016054D01*
X0004065Y0016052D01*
X0004109Y0016052D01*
X0004119Y0016052D02*
X0004052Y0016052D01*
X0004076Y0016052D02*
X0004063Y0016050D01*
X0004050Y0016046D01*
X0004039Y0016038D01*
X0004030Y0016028D01*
X0004024Y0016016D01*
X0004020Y0016003D01*
X0004020Y0015989D01*
X0004024Y0015976D01*
X0004030Y0015964D01*
X0004039Y0015954D01*
X0004050Y0015946D01*
X0004063Y0015942D01*
X0004076Y0015940D01*
X0004076Y0015941D02*
X0004131Y0015941D01*
X0004194Y0015941D02*
X0004238Y0016030D01*
X0004249Y0016030D02*
X0004305Y0016030D01*
X0004311Y0016096D02*
X0004305Y0016108D01*
X0004298Y0016119D01*
X0004288Y0016128D01*
X0004276Y0016134D01*
X0004263Y0016139D01*
X0004250Y0016140D01*
X0004249Y0016141D02*
X0004305Y0016141D01*
X0004305Y0015941D01*
X0004311Y0015941D02*
X0004200Y0015941D01*
X0004311Y0015941D02*
X0004217Y0016052D01*
X0004249Y0016029D02*
X0004236Y0016031D01*
X0004223Y0016035D01*
X0004212Y0016043D01*
X0004203Y0016053D01*
X0004197Y0016065D01*
X0004193Y0016078D01*
X0004193Y0016092D01*
X0004197Y0016105D01*
X0004203Y0016117D01*
X0004212Y0016127D01*
X0004223Y0016135D01*
X0004236Y0016139D01*
X0004249Y0016141D01*
X0004250Y0016141D02*
X0004237Y0016139D01*
X0004225Y0016134D01*
X0004215Y0016126D01*
X0004207Y0016116D01*
X0004202Y0016104D01*
X0004200Y0016091D01*
X0004201Y0016080D01*
X0004204Y0016070D01*
X0004210Y0016060D01*
X0004217Y0016052D01*
X0004373Y0016163D02*
X0004462Y0015918D01*
X0004373Y0016163D01*
X0004529Y0016074D02*
X0004529Y0015941D01*
X0004585Y0015941D01*
X0004529Y0015941D01*
X0004529Y0016074D01*
X0004618Y0016074D02*
X0004618Y0015974D01*
X0004618Y0016074D01*
X0004677Y0016074D02*
X0004677Y0016052D01*
X0004677Y0016074D01*
X0004744Y0016074D01*
X0004744Y0015941D01*
X0004744Y0016074D01*
X0004677Y0016074D01*
X0004618Y0015974D02*
X0004616Y0015964D01*
X0004612Y0015955D01*
X0004604Y0015947D01*
X0004595Y0015943D01*
X0004585Y0015941D01*
X0004595Y0015943D01*
X0004604Y0015947D01*
X0004612Y0015955D01*
X0004616Y0015964D01*
X0004618Y0015974D01*
X0004824Y0015941D02*
X0004824Y0016141D01*
X0004824Y0015941D01*
X0004879Y0015941D01*
X0004824Y0015941D01*
X0004879Y0015941D02*
X0004889Y0015943D01*
X0004898Y0015947D01*
X0004906Y0015955D01*
X0004910Y0015964D01*
X0004912Y0015974D01*
X0004913Y0015974D02*
X0004913Y0016041D01*
X0004913Y0015974D01*
X0004912Y0015974D02*
X0004910Y0015964D01*
X0004906Y0015955D01*
X0004898Y0015947D01*
X0004889Y0015943D01*
X0004879Y0015941D01*
X0004912Y0016041D02*
X0004910Y0016051D01*
X0004906Y0016060D01*
X0004898Y0016068D01*
X0004889Y0016072D01*
X0004879Y0016074D01*
X0004824Y0016074D01*
X0004879Y0016074D01*
X0004889Y0016072D01*
X0004898Y0016068D01*
X0004906Y0016060D01*
X0004910Y0016051D01*
X0004912Y0016041D01*
X0004973Y0016163D02*
X0005062Y0015918D01*
X0004973Y0016163D01*
X0005180Y0016141D02*
X0005180Y0015941D01*
X0005180Y0016141D01*
X0005235Y0016096D01*
X0005180Y0016141D01*
X0005487Y0016041D02*
X0005485Y0016016D01*
X0005480Y0015992D01*
X0005470Y0015969D01*
X0005476Y0015985D02*
X0005387Y0016096D01*
X0005476Y0015985D01*
X0005432Y0015941D02*
X0005422Y0015942D01*
X0005412Y0015946D01*
X0005404Y0015952D01*
X0005398Y0015960D01*
X0005393Y0015969D01*
X0005432Y0015941D02*
X0005442Y0015942D01*
X0005452Y0015946D01*
X0005460Y0015952D01*
X0005466Y0015960D01*
X0005471Y0015969D01*
X0005466Y0015960D01*
X0005460Y0015952D01*
X0005452Y0015946D01*
X0005442Y0015942D01*
X0005432Y0015941D01*
X0005422Y0015942D01*
X0005412Y0015946D01*
X0005404Y0015952D01*
X0005398Y0015960D01*
X0005393Y0015969D01*
X0005311Y0015952D02*
X0005300Y0015952D01*
X0005300Y0015941D01*
X0005311Y0015941D01*
X0005311Y0015952D01*
X0005300Y0015952D01*
X0005300Y0015941D01*
X0005311Y0015941D01*
X0005311Y0015952D01*
X0005235Y0015941D02*
X0005124Y0015941D01*
X0005235Y0015941D01*
X0005470Y0015969D02*
X0005480Y0015992D01*
X0005485Y0016016D01*
X0005487Y0016041D01*
X0005376Y0016041D02*
X0005378Y0016066D01*
X0005383Y0016090D01*
X0005393Y0016113D01*
X0005398Y0016122D01*
X0005404Y0016130D01*
X0005412Y0016136D01*
X0005422Y0016140D01*
X0005432Y0016141D01*
X0005442Y0016140D01*
X0005452Y0016136D01*
X0005460Y0016130D01*
X0005466Y0016122D01*
X0005471Y0016113D01*
X0005466Y0016122D01*
X0005460Y0016130D01*
X0005452Y0016136D01*
X0005442Y0016140D01*
X0005432Y0016141D01*
X0005422Y0016140D01*
X0005412Y0016136D01*
X0005404Y0016130D01*
X0005398Y0016122D01*
X0005393Y0016113D01*
X0005470Y0016113D02*
X0005480Y0016090D01*
X0005485Y0016066D01*
X0005487Y0016041D01*
X0005376Y0016041D02*
X0005378Y0016066D01*
X0005383Y0016090D01*
X0005393Y0016113D01*
X0005470Y0016113D02*
X0005480Y0016090D01*
X0005485Y0016066D01*
X0005487Y0016041D01*
X0005376Y0016041D02*
X0005378Y0016016D01*
X0005383Y0015992D01*
X0005393Y0015969D01*
X0005552Y0015952D02*
X0005552Y0015941D01*
X0005563Y0015941D01*
X0005563Y0015952D01*
X0005552Y0015952D01*
X0005552Y0015941D01*
X0005563Y0015941D01*
X0005563Y0015952D01*
X0005552Y0015952D01*
X0005393Y0015969D02*
X0005383Y0015992D01*
X0005378Y0016016D01*
X0005376Y0016041D01*
X0005628Y0016030D02*
X0005628Y0016085D01*
X0005628Y0016030D01*
X0005695Y0016030D01*
X0005628Y0016030D01*
X0005628Y0016085D02*
X0005630Y0016098D01*
X0005634Y0016111D01*
X0005642Y0016122D01*
X0005652Y0016131D01*
X0005664Y0016137D01*
X0005677Y0016141D01*
X0005691Y0016141D01*
X0005704Y0016137D01*
X0005716Y0016131D01*
X0005726Y0016122D01*
X0005734Y0016111D01*
X0005738Y0016098D01*
X0005740Y0016085D01*
X0005739Y0016085D02*
X0005739Y0016074D01*
X0005739Y0016085D01*
X0005739Y0016074D02*
X0005738Y0016063D01*
X0005733Y0016052D01*
X0005726Y0016043D01*
X0005717Y0016036D01*
X0005706Y0016031D01*
X0005695Y0016030D01*
X0005628Y0016030D02*
X0005630Y0016013D01*
X0005635Y0015996D01*
X0005643Y0015981D01*
X0005654Y0015967D01*
X0005668Y0015956D01*
X0005683Y0015948D01*
X0005700Y0015943D01*
X0005717Y0015941D01*
X0005700Y0015943D01*
X0005683Y0015948D01*
X0005668Y0015956D01*
X0005654Y0015967D01*
X0005643Y0015981D01*
X0005635Y0015996D01*
X0005630Y0016013D01*
X0005628Y0016030D01*
X0005628Y0016085D02*
X0005630Y0016098D01*
X0005634Y0016111D01*
X0005642Y0016122D01*
X0005652Y0016131D01*
X0005664Y0016137D01*
X0005677Y0016141D01*
X0005691Y0016141D01*
X0005704Y0016137D01*
X0005716Y0016131D01*
X0005726Y0016122D01*
X0005734Y0016111D01*
X0005738Y0016098D01*
X0005740Y0016085D01*
X0005739Y0016074D02*
X0005738Y0016063D01*
X0005733Y0016052D01*
X0005726Y0016043D01*
X0005717Y0016036D01*
X0005706Y0016031D01*
X0005695Y0016030D01*
X0005896Y0015941D02*
X0005985Y0015941D01*
X0005985Y0016141D01*
X0005896Y0016141D01*
X0005985Y0016141D01*
X0005985Y0015941D01*
X0005896Y0015941D01*
X0005918Y0016052D02*
X0005985Y0016052D01*
X0005918Y0016052D01*
X0006052Y0015941D02*
X0006141Y0015941D01*
X0006141Y0016141D01*
X0006141Y0015941D01*
X0006052Y0015941D01*
X0006222Y0015941D02*
X0006289Y0015941D01*
X0006222Y0015941D01*
X0006222Y0016052D01*
X0006255Y0016052D01*
X0006222Y0016052D01*
X0006222Y0015941D01*
X0006289Y0015941D02*
X0006300Y0015942D01*
X0006311Y0015947D01*
X0006320Y0015954D01*
X0006327Y0015963D01*
X0006332Y0015974D01*
X0006333Y0015985D01*
X0006333Y0016096D01*
X0006333Y0015985D01*
X0006332Y0015974D01*
X0006327Y0015963D01*
X0006320Y0015954D01*
X0006311Y0015947D01*
X0006300Y0015942D01*
X0006289Y0015941D01*
X0006397Y0015941D02*
X0006464Y0016141D01*
X0006530Y0015941D01*
X0006464Y0016141D01*
X0006397Y0015941D01*
X0006414Y0015991D02*
X0006514Y0015991D01*
X0006414Y0015991D01*
X0006333Y0016096D02*
X0006332Y0016107D01*
X0006327Y0016118D01*
X0006320Y0016127D01*
X0006311Y0016134D01*
X0006300Y0016139D01*
X0006289Y0016140D01*
X0006289Y0016141D02*
X0006222Y0016141D01*
X0006289Y0016141D01*
X0006289Y0016140D02*
X0006300Y0016139D01*
X0006311Y0016134D01*
X0006320Y0016127D01*
X0006327Y0016118D01*
X0006332Y0016107D01*
X0006333Y0016096D01*
X0006580Y0016141D02*
X0006669Y0016141D01*
X0006669Y0015941D01*
X0006580Y0015941D01*
X0006669Y0015941D01*
X0006669Y0016141D01*
X0006580Y0016141D01*
X0006602Y0016052D02*
X0006669Y0016052D01*
X0006602Y0016052D01*
X0006737Y0016163D02*
X0006826Y0015918D01*
X0006737Y0016163D01*
X0006890Y0016057D02*
X0006890Y0016046D01*
X0006901Y0016046D01*
X0006901Y0016057D01*
X0006890Y0016057D01*
X0006890Y0016046D01*
X0006901Y0016046D01*
X0006901Y0016057D01*
X0006890Y0016057D01*
X0006890Y0015968D02*
X0006890Y0015957D01*
X0006901Y0015957D01*
X0006901Y0015968D01*
X0006890Y0015968D01*
X0006890Y0015957D01*
X0006901Y0015957D01*
X0006901Y0015968D01*
X0006890Y0015968D01*
X0006964Y0015941D02*
X0007009Y0015941D01*
X0006964Y0015941D01*
X0007009Y0015941D02*
X0007020Y0015942D01*
X0007031Y0015947D01*
X0007040Y0015954D01*
X0007047Y0015963D01*
X0007052Y0015974D01*
X0007053Y0015985D01*
X0007053Y0016096D01*
X0007053Y0015985D01*
X0007052Y0015974D01*
X0007047Y0015963D01*
X0007040Y0015954D01*
X0007031Y0015947D01*
X0007020Y0015942D01*
X0007009Y0015941D01*
X0007053Y0016096D02*
X0007052Y0016107D01*
X0007047Y0016118D01*
X0007040Y0016127D01*
X0007031Y0016134D01*
X0007020Y0016139D01*
X0007009Y0016140D01*
X0007009Y0016141D02*
X0006964Y0016141D01*
X0007009Y0016141D01*
X0007009Y0016140D02*
X0007020Y0016139D01*
X0007031Y0016134D01*
X0007040Y0016127D01*
X0007047Y0016118D01*
X0007052Y0016107D01*
X0007053Y0016096D01*
X0007053Y0016441D02*
X0007053Y0121401D01*
X0065754Y0121401D01*
X0065754Y0016441D01*
X0007053Y0016441D01*
D11*
X0065754Y0016441D02*
X0094730Y0016441D01*
X0087053Y0016697D02*
X0088077Y0026677D01*
X0088310Y0026677D02*
X0087053Y0016697D01*
X0086030Y0026677D01*
X0085796Y0026677D02*
X0088310Y0026677D01*
X0087565Y0026677D02*
X0087053Y0016697D01*
X0086542Y0026677D01*
X0085796Y0026677D02*
X0087053Y0016697D01*
X0087053Y0121145D01*
X0088077Y0111165D01*
X0088310Y0111165D02*
X0087053Y0121145D01*
X0086030Y0111165D01*
X0085796Y0111165D02*
X0088310Y0111165D01*
X0087565Y0111165D02*
X0087053Y0121145D01*
X0086542Y0111165D01*
X0085796Y0111165D02*
X0087053Y0121145D01*
X0094730Y0121401D02*
X0065754Y0121401D01*
X0065754Y0144118D01*
X0065498Y0136441D02*
X0055518Y0135417D01*
X0055518Y0135184D02*
X0065498Y0136441D01*
X0055518Y0137464D01*
X0055518Y0137698D02*
X0055518Y0135184D01*
X0055518Y0135929D02*
X0065498Y0136441D01*
X0055518Y0136952D01*
X0055518Y0137698D02*
X0065498Y0136441D01*
X0007309Y0136441D01*
X0017290Y0135417D01*
X0017290Y0135184D02*
X0007309Y0136441D01*
X0017290Y0137464D01*
X0017290Y0137698D02*
X0017290Y0135184D01*
X0017290Y0135929D02*
X0007309Y0136441D01*
X0017290Y0136952D01*
X0017290Y0137698D02*
X0007309Y0136441D01*
X0007053Y0144118D02*
X0007053Y0121401D01*
D12*
X0029488Y0138137D02*
X0031453Y0138137D01*
X0030470Y0138137D02*
X0030470Y0141674D01*
X0029488Y0140888D01*
X0033031Y0138923D02*
X0034996Y0138923D01*
X0034406Y0139709D02*
X0034406Y0138137D01*
X0033031Y0138923D02*
X0033817Y0141674D01*
X0036395Y0138333D02*
X0036592Y0138333D01*
X0036592Y0138137D01*
X0036395Y0138137D01*
X0036395Y0138333D01*
X0038385Y0138137D02*
X0038462Y0138139D01*
X0038539Y0138145D01*
X0038616Y0138154D01*
X0038692Y0138167D01*
X0038767Y0138184D01*
X0038841Y0138205D01*
X0038915Y0138229D01*
X0038987Y0138257D01*
X0039057Y0138288D01*
X0039126Y0138323D01*
X0039193Y0138361D01*
X0039258Y0138402D01*
X0039321Y0138446D01*
X0039382Y0138494D01*
X0039441Y0138544D01*
X0039497Y0138597D01*
X0039550Y0138653D01*
X0039600Y0138712D01*
X0039648Y0138773D01*
X0039692Y0138836D01*
X0039733Y0138901D01*
X0039771Y0138968D01*
X0039806Y0139037D01*
X0039837Y0139107D01*
X0039865Y0139179D01*
X0039889Y0139253D01*
X0039910Y0139327D01*
X0039927Y0139402D01*
X0039940Y0139478D01*
X0039949Y0139555D01*
X0039955Y0139632D01*
X0039957Y0139709D01*
X0039957Y0140691D01*
X0039957Y0139709D02*
X0038778Y0139709D01*
X0038724Y0139711D01*
X0038671Y0139716D01*
X0038618Y0139725D01*
X0038566Y0139738D01*
X0038515Y0139754D01*
X0038465Y0139774D01*
X0038416Y0139797D01*
X0038370Y0139823D01*
X0038325Y0139853D01*
X0038282Y0139885D01*
X0038242Y0139921D01*
X0038204Y0139959D01*
X0038168Y0139999D01*
X0038136Y0140042D01*
X0038106Y0140087D01*
X0038080Y0140133D01*
X0038057Y0140182D01*
X0038037Y0140232D01*
X0038021Y0140283D01*
X0038008Y0140335D01*
X0037999Y0140388D01*
X0037994Y0140441D01*
X0037992Y0140495D01*
X0037992Y0140691D01*
X0037994Y0140753D01*
X0038000Y0140814D01*
X0038009Y0140875D01*
X0038023Y0140935D01*
X0038040Y0140994D01*
X0038061Y0141052D01*
X0038085Y0141109D01*
X0038113Y0141164D01*
X0038145Y0141217D01*
X0038180Y0141268D01*
X0038217Y0141317D01*
X0038258Y0141363D01*
X0038302Y0141407D01*
X0038348Y0141448D01*
X0038397Y0141485D01*
X0038448Y0141520D01*
X0038501Y0141552D01*
X0038556Y0141580D01*
X0038613Y0141604D01*
X0038671Y0141625D01*
X0038730Y0141642D01*
X0038790Y0141656D01*
X0038851Y0141665D01*
X0038912Y0141671D01*
X0038974Y0141673D01*
X0039036Y0141671D01*
X0039097Y0141665D01*
X0039158Y0141656D01*
X0039218Y0141642D01*
X0039277Y0141625D01*
X0039335Y0141604D01*
X0039392Y0141580D01*
X0039447Y0141552D01*
X0039500Y0141520D01*
X0039551Y0141485D01*
X0039600Y0141448D01*
X0039646Y0141407D01*
X0039690Y0141363D01*
X0039731Y0141317D01*
X0039768Y0141268D01*
X0039803Y0141217D01*
X0039835Y0141164D01*
X0039863Y0141109D01*
X0039887Y0141052D01*
X0039908Y0140994D01*
X0039925Y0140935D01*
X0039939Y0140875D01*
X0039948Y0140814D01*
X0039954Y0140753D01*
X0039956Y0140691D01*
X0041535Y0140888D02*
X0042517Y0141674D01*
X0042517Y0138137D01*
X0041535Y0138137D02*
X0043500Y0138137D01*
X0081820Y0075624D02*
X0081822Y0075547D01*
X0081828Y0075470D01*
X0081837Y0075393D01*
X0081850Y0075317D01*
X0081867Y0075242D01*
X0081888Y0075168D01*
X0081912Y0075094D01*
X0081940Y0075022D01*
X0081971Y0074952D01*
X0082006Y0074883D01*
X0082044Y0074816D01*
X0082085Y0074751D01*
X0082129Y0074688D01*
X0082177Y0074627D01*
X0082227Y0074568D01*
X0082280Y0074512D01*
X0082336Y0074459D01*
X0082395Y0074409D01*
X0082456Y0074361D01*
X0082519Y0074317D01*
X0082584Y0074276D01*
X0082651Y0074238D01*
X0082720Y0074203D01*
X0082790Y0074172D01*
X0082862Y0074144D01*
X0082936Y0074120D01*
X0083010Y0074099D01*
X0083085Y0074082D01*
X0083161Y0074069D01*
X0083238Y0074060D01*
X0083315Y0074054D01*
X0083392Y0074052D01*
X0084375Y0074052D01*
X0084437Y0074054D01*
X0084498Y0074060D01*
X0084559Y0074069D01*
X0084619Y0074083D01*
X0084679Y0074100D01*
X0084737Y0074121D01*
X0084794Y0074146D01*
X0084849Y0074174D01*
X0084902Y0074205D01*
X0084953Y0074240D01*
X0085002Y0074278D01*
X0085048Y0074318D01*
X0085092Y0074362D01*
X0085132Y0074408D01*
X0085170Y0074457D01*
X0085205Y0074508D01*
X0085236Y0074561D01*
X0085264Y0074616D01*
X0085289Y0074673D01*
X0085310Y0074731D01*
X0085327Y0074791D01*
X0085341Y0074851D01*
X0085350Y0074912D01*
X0085356Y0074973D01*
X0085358Y0075035D01*
X0085356Y0075097D01*
X0085350Y0075158D01*
X0085341Y0075219D01*
X0085327Y0075279D01*
X0085310Y0075339D01*
X0085289Y0075397D01*
X0085264Y0075454D01*
X0085236Y0075509D01*
X0085205Y0075562D01*
X0085170Y0075613D01*
X0085132Y0075662D01*
X0085092Y0075708D01*
X0085048Y0075752D01*
X0085002Y0075792D01*
X0084953Y0075830D01*
X0084902Y0075865D01*
X0084849Y0075896D01*
X0084794Y0075924D01*
X0084737Y0075949D01*
X0084679Y0075970D01*
X0084619Y0075987D01*
X0084559Y0076001D01*
X0084498Y0076010D01*
X0084437Y0076016D01*
X0084375Y0076018D01*
X0084375Y0076017D02*
X0084178Y0076017D01*
X0084124Y0076015D01*
X0084071Y0076010D01*
X0084018Y0076001D01*
X0083966Y0075988D01*
X0083915Y0075972D01*
X0083865Y0075952D01*
X0083816Y0075929D01*
X0083770Y0075903D01*
X0083725Y0075873D01*
X0083682Y0075841D01*
X0083642Y0075805D01*
X0083604Y0075767D01*
X0083568Y0075727D01*
X0083536Y0075684D01*
X0083506Y0075639D01*
X0083480Y0075593D01*
X0083457Y0075544D01*
X0083437Y0075494D01*
X0083421Y0075443D01*
X0083408Y0075391D01*
X0083399Y0075338D01*
X0083394Y0075285D01*
X0083392Y0075231D01*
X0083392Y0074052D01*
X0084178Y0072474D02*
X0084375Y0072474D01*
X0084178Y0072474D02*
X0084124Y0072472D01*
X0084071Y0072467D01*
X0084018Y0072458D01*
X0083966Y0072445D01*
X0083915Y0072429D01*
X0083865Y0072409D01*
X0083816Y0072386D01*
X0083770Y0072360D01*
X0083725Y0072330D01*
X0083682Y0072298D01*
X0083642Y0072262D01*
X0083604Y0072224D01*
X0083568Y0072184D01*
X0083536Y0072141D01*
X0083506Y0072096D01*
X0083480Y0072050D01*
X0083457Y0072001D01*
X0083437Y0071951D01*
X0083421Y0071900D01*
X0083408Y0071848D01*
X0083399Y0071795D01*
X0083394Y0071742D01*
X0083392Y0071688D01*
X0083392Y0070509D01*
X0084375Y0070509D01*
X0084375Y0070508D02*
X0084437Y0070510D01*
X0084498Y0070516D01*
X0084559Y0070525D01*
X0084619Y0070539D01*
X0084679Y0070556D01*
X0084737Y0070577D01*
X0084794Y0070602D01*
X0084849Y0070630D01*
X0084902Y0070661D01*
X0084953Y0070696D01*
X0085002Y0070734D01*
X0085048Y0070774D01*
X0085092Y0070818D01*
X0085132Y0070864D01*
X0085170Y0070913D01*
X0085205Y0070964D01*
X0085236Y0071017D01*
X0085264Y0071072D01*
X0085289Y0071129D01*
X0085310Y0071187D01*
X0085327Y0071247D01*
X0085341Y0071307D01*
X0085350Y0071368D01*
X0085356Y0071429D01*
X0085358Y0071491D01*
X0085356Y0071553D01*
X0085350Y0071614D01*
X0085341Y0071675D01*
X0085327Y0071735D01*
X0085310Y0071795D01*
X0085289Y0071853D01*
X0085264Y0071910D01*
X0085236Y0071965D01*
X0085205Y0072018D01*
X0085170Y0072069D01*
X0085132Y0072118D01*
X0085092Y0072164D01*
X0085048Y0072208D01*
X0085002Y0072248D01*
X0084953Y0072286D01*
X0084902Y0072321D01*
X0084849Y0072352D01*
X0084794Y0072380D01*
X0084737Y0072405D01*
X0084679Y0072426D01*
X0084619Y0072443D01*
X0084559Y0072457D01*
X0084498Y0072466D01*
X0084437Y0072472D01*
X0084375Y0072474D01*
X0083392Y0070509D02*
X0083315Y0070511D01*
X0083238Y0070517D01*
X0083161Y0070526D01*
X0083085Y0070539D01*
X0083010Y0070556D01*
X0082936Y0070577D01*
X0082862Y0070601D01*
X0082790Y0070629D01*
X0082720Y0070660D01*
X0082651Y0070695D01*
X0082584Y0070733D01*
X0082519Y0070774D01*
X0082456Y0070818D01*
X0082395Y0070866D01*
X0082336Y0070916D01*
X0082280Y0070969D01*
X0082227Y0071025D01*
X0082177Y0071084D01*
X0082129Y0071145D01*
X0082085Y0071208D01*
X0082044Y0071273D01*
X0082006Y0071340D01*
X0081971Y0071409D01*
X0081940Y0071479D01*
X0081912Y0071551D01*
X0081888Y0071625D01*
X0081867Y0071699D01*
X0081850Y0071774D01*
X0081837Y0071850D01*
X0081828Y0071927D01*
X0081822Y0072004D01*
X0081820Y0072081D01*
X0085161Y0069109D02*
X0085357Y0069109D01*
X0085357Y0068913D01*
X0085161Y0068913D01*
X0085161Y0069109D01*
X0084375Y0067513D02*
X0084178Y0067513D01*
X0084124Y0067511D01*
X0084071Y0067506D01*
X0084018Y0067497D01*
X0083966Y0067484D01*
X0083915Y0067468D01*
X0083865Y0067448D01*
X0083816Y0067425D01*
X0083770Y0067399D01*
X0083725Y0067369D01*
X0083682Y0067337D01*
X0083642Y0067301D01*
X0083604Y0067263D01*
X0083568Y0067223D01*
X0083536Y0067180D01*
X0083506Y0067135D01*
X0083480Y0067089D01*
X0083457Y0067040D01*
X0083437Y0066990D01*
X0083421Y0066939D01*
X0083408Y0066887D01*
X0083399Y0066834D01*
X0083394Y0066781D01*
X0083392Y0066727D01*
X0083392Y0065548D01*
X0084375Y0065548D01*
X0084437Y0065550D01*
X0084498Y0065556D01*
X0084559Y0065565D01*
X0084619Y0065579D01*
X0084679Y0065596D01*
X0084737Y0065617D01*
X0084794Y0065642D01*
X0084849Y0065670D01*
X0084902Y0065701D01*
X0084953Y0065736D01*
X0085002Y0065774D01*
X0085048Y0065814D01*
X0085092Y0065858D01*
X0085132Y0065904D01*
X0085170Y0065953D01*
X0085205Y0066004D01*
X0085236Y0066057D01*
X0085264Y0066112D01*
X0085289Y0066169D01*
X0085310Y0066227D01*
X0085327Y0066287D01*
X0085341Y0066347D01*
X0085350Y0066408D01*
X0085356Y0066469D01*
X0085358Y0066531D01*
X0085356Y0066593D01*
X0085350Y0066654D01*
X0085341Y0066715D01*
X0085327Y0066775D01*
X0085310Y0066835D01*
X0085289Y0066893D01*
X0085264Y0066950D01*
X0085236Y0067005D01*
X0085205Y0067058D01*
X0085170Y0067109D01*
X0085132Y0067158D01*
X0085092Y0067204D01*
X0085048Y0067248D01*
X0085002Y0067288D01*
X0084953Y0067326D01*
X0084902Y0067361D01*
X0084849Y0067392D01*
X0084794Y0067420D01*
X0084737Y0067445D01*
X0084679Y0067466D01*
X0084619Y0067483D01*
X0084559Y0067497D01*
X0084498Y0067506D01*
X0084437Y0067512D01*
X0084375Y0067514D01*
X0083392Y0065548D02*
X0083315Y0065550D01*
X0083238Y0065556D01*
X0083161Y0065565D01*
X0083085Y0065578D01*
X0083010Y0065595D01*
X0082936Y0065616D01*
X0082862Y0065640D01*
X0082790Y0065668D01*
X0082720Y0065699D01*
X0082651Y0065734D01*
X0082584Y0065772D01*
X0082519Y0065813D01*
X0082456Y0065857D01*
X0082395Y0065905D01*
X0082336Y0065955D01*
X0082280Y0066008D01*
X0082227Y0066064D01*
X0082177Y0066123D01*
X0082129Y0066184D01*
X0082085Y0066247D01*
X0082044Y0066312D01*
X0082006Y0066379D01*
X0081971Y0066448D01*
X0081940Y0066518D01*
X0081912Y0066590D01*
X0081888Y0066664D01*
X0081867Y0066738D01*
X0081850Y0066813D01*
X0081837Y0066889D01*
X0081828Y0066966D01*
X0081822Y0067043D01*
X0081820Y0067120D01*
X0083392Y0063675D02*
X0085357Y0062005D01*
X0085357Y0063970D01*
X0082606Y0062005D02*
X0082545Y0062027D01*
X0082485Y0062052D01*
X0082427Y0062081D01*
X0082370Y0062113D01*
X0082315Y0062148D01*
X0082263Y0062186D01*
X0082213Y0062227D01*
X0082165Y0062271D01*
X0082120Y0062317D01*
X0082077Y0062366D01*
X0082037Y0062418D01*
X0082001Y0062471D01*
X0081967Y0062527D01*
X0081937Y0062584D01*
X0081910Y0062643D01*
X0081886Y0062704D01*
X0081866Y0062766D01*
X0081850Y0062829D01*
X0081837Y0062892D01*
X0081827Y0062956D01*
X0081822Y0063021D01*
X0081820Y0063086D01*
X0081821Y0063086D02*
X0081823Y0063144D01*
X0081829Y0063201D01*
X0081838Y0063258D01*
X0081851Y0063315D01*
X0081868Y0063370D01*
X0081888Y0063424D01*
X0081912Y0063477D01*
X0081939Y0063528D01*
X0081970Y0063577D01*
X0082004Y0063624D01*
X0082040Y0063669D01*
X0082080Y0063711D01*
X0082122Y0063751D01*
X0082167Y0063787D01*
X0082214Y0063821D01*
X0082263Y0063852D01*
X0082314Y0063879D01*
X0082367Y0063903D01*
X0082421Y0063923D01*
X0082476Y0063940D01*
X0082533Y0063953D01*
X0082590Y0063962D01*
X0082647Y0063968D01*
X0082705Y0063970D01*
X0082764Y0063968D01*
X0082823Y0063963D01*
X0082881Y0063953D01*
X0082939Y0063941D01*
X0082996Y0063924D01*
X0083052Y0063904D01*
X0083106Y0063881D01*
X0083159Y0063854D01*
X0083210Y0063825D01*
X0083259Y0063792D01*
X0083306Y0063756D01*
X0083351Y0063717D01*
X0083393Y0063675D01*
D13*
X0041603Y0101741D03*
X0034103Y0071641D03*
X0018303Y0112841D03*
X0017703Y0116241D03*
D14*
X0018303Y0112941D03*
X0040703Y0102041D03*
X0034703Y0065041D03*
X0033603Y0061741D03*
X0033603Y0061641D03*
D15*
X0033703Y0061041D03*
X0034103Y0072241D03*
X0027003Y0112941D03*
X0017403Y0115841D03*
D16*
X0018303Y0113141D03*
X0027003Y0113241D03*
X0036403Y0112941D03*
D17*
X0043853Y0112941D03*
D18*
X0047853Y0114141D03*
X0047953Y0115041D03*
X0047853Y0115141D03*
X0047953Y0116741D03*
X0047953Y0117441D03*
X0047853Y0117641D03*
X0050053Y0117341D03*
X0050053Y0117241D03*
X0050053Y0117141D03*
X0050053Y0117041D03*
X0050153Y0116841D03*
X0050153Y0117441D03*
X0050153Y0117541D03*
X0050153Y0115141D03*
X0050053Y0114941D03*
X0050053Y0114841D03*
X0050053Y0114741D03*
X0050053Y0114641D03*
X0050053Y0114541D03*
X0050053Y0114441D03*
X0050053Y0114341D03*
X0050053Y0114241D03*
X0050053Y0114141D03*
X0050053Y0114041D03*
X0050053Y0113941D03*
X0050053Y0113841D03*
X0050053Y0113741D03*
X0050053Y0113641D03*
X0050053Y0113541D03*
X0050053Y0113441D03*
X0050053Y0113341D03*
X0050053Y0113241D03*
X0050053Y0113141D03*
X0050053Y0113041D03*
X0050053Y0112941D03*
X0056853Y0112941D03*
X0056853Y0113041D03*
X0056853Y0113141D03*
X0056853Y0113241D03*
X0056853Y0113341D03*
X0056853Y0113441D03*
X0056853Y0113541D03*
X0056853Y0113641D03*
X0056853Y0113741D03*
X0056853Y0113841D03*
X0056853Y0113941D03*
X0056853Y0114041D03*
X0056853Y0114141D03*
X0056853Y0114241D03*
X0056853Y0114341D03*
X0056853Y0114441D03*
X0056853Y0114541D03*
X0056853Y0114641D03*
X0056853Y0114741D03*
X0056853Y0114841D03*
X0056753Y0115141D03*
X0056753Y0115241D03*
X0045153Y0098441D03*
X0045253Y0098241D03*
X0045253Y0098141D03*
X0045353Y0098041D03*
X0045353Y0097941D03*
X0045353Y0097841D03*
X0045353Y0097741D03*
X0045453Y0097641D03*
X0045453Y0097541D03*
X0045453Y0097441D03*
X0045453Y0097341D03*
X0043253Y0095041D03*
X0043153Y0095841D03*
X0046153Y0092641D03*
X0046153Y0092541D03*
X0046153Y0092441D03*
X0044453Y0100341D03*
X0036153Y0102741D03*
X0033353Y0100141D03*
X0033253Y0100041D03*
X0034153Y0098541D03*
X0032253Y0095541D03*
X0032253Y0095441D03*
X0032153Y0095341D03*
X0032153Y0095241D03*
X0033353Y0086541D03*
X0031753Y0084941D03*
X0031853Y0084841D03*
X0032553Y0082741D03*
X0032653Y0082641D03*
X0035053Y0081741D03*
X0039653Y0084541D03*
X0039653Y0084641D03*
X0039653Y0084741D03*
X0039653Y0084841D03*
X0039953Y0077841D03*
X0041053Y0071941D03*
X0038553Y0069741D03*
X0038453Y0069441D03*
X0038453Y0069341D03*
X0036753Y0067041D03*
X0039153Y0065041D03*
X0042153Y0066241D03*
X0043453Y0062741D03*
X0045453Y0061541D03*
X0041153Y0059441D03*
X0040453Y0055741D03*
X0036953Y0053441D03*
X0035153Y0046841D03*
X0029053Y0053741D03*
X0027953Y0055341D03*
X0027653Y0057641D03*
X0028353Y0060241D03*
X0025653Y0055541D03*
X0028253Y0048141D03*
X0032153Y0059841D03*
X0031153Y0066241D03*
X0031053Y0066641D03*
X0031053Y0066741D03*
X0031353Y0068141D03*
X0028453Y0065541D03*
X0028453Y0065441D03*
X0024253Y0070041D03*
X0021653Y0068941D03*
X0023853Y0063641D03*
X0021753Y0062741D03*
X0021653Y0062641D03*
X0022753Y0075441D03*
X0027453Y0083741D03*
X0027453Y0083841D03*
X0029853Y0077241D03*
X0032753Y0074441D03*
X0034253Y0075541D03*
X0034153Y0073041D03*
X0045953Y0074541D03*
X0045953Y0068441D03*
X0046053Y0068341D03*
X0032353Y0114141D03*
X0032353Y0115141D03*
X0032353Y0116641D03*
X0032353Y0117541D03*
X0030153Y0114241D03*
X0023753Y0114341D03*
X0023753Y0114441D03*
X0023753Y0114541D03*
X0023753Y0114641D03*
X0023753Y0114741D03*
X0023753Y0114841D03*
X0023753Y0114941D03*
X0023753Y0115041D03*
X0023753Y0115141D03*
X0023753Y0115241D03*
X0023753Y0115341D03*
X0023753Y0115441D03*
X0023753Y0115541D03*
X0023753Y0115641D03*
X0023753Y0115741D03*
X0023753Y0115841D03*
X0023753Y0115941D03*
X0023753Y0116041D03*
X0023753Y0116141D03*
X0023753Y0116241D03*
X0023753Y0116341D03*
X0023753Y0116441D03*
X0023753Y0116541D03*
X0023753Y0116641D03*
X0023753Y0116741D03*
X0023753Y0116841D03*
X0023753Y0116941D03*
X0023753Y0117041D03*
X0023753Y0117141D03*
X0023753Y0117241D03*
X0023753Y0117341D03*
X0023753Y0117441D03*
X0023753Y0117541D03*
X0023753Y0117641D03*
X0023753Y0117741D03*
X0023753Y0117841D03*
X0023753Y0117941D03*
X0023753Y0118041D03*
X0023753Y0118141D03*
X0023753Y0118241D03*
X0023753Y0118341D03*
X0023753Y0118441D03*
X0023753Y0118541D03*
X0023753Y0118641D03*
X0023753Y0118741D03*
X0023753Y0118841D03*
X0021553Y0117641D03*
X0021553Y0117541D03*
X0021553Y0114141D03*
X0015053Y0114241D03*
D19*
X0018303Y0113041D03*
X0036503Y0118841D03*
D20*
X0027003Y0113041D03*
X0033903Y0068741D03*
X0033903Y0068641D03*
X0033903Y0068541D03*
X0026803Y0054441D03*
X0026803Y0054341D03*
X0026803Y0054241D03*
D21*
X0036203Y0113041D03*
X0027003Y0113441D03*
X0018303Y0113341D03*
X0053103Y0116441D03*
D22*
X0044053Y0113041D03*
X0017853Y0118741D03*
D23*
X0017703Y0118841D03*
X0027003Y0113141D03*
D24*
X0027003Y0113541D03*
X0018303Y0113441D03*
X0018003Y0118541D03*
X0036103Y0113141D03*
X0053303Y0116141D03*
X0053403Y0116041D03*
D25*
X0053253Y0116241D03*
X0053153Y0116341D03*
X0053953Y0118741D03*
X0044153Y0118641D03*
X0044153Y0113141D03*
X0036153Y0118641D03*
X0017953Y0118641D03*
D26*
X0018303Y0113241D03*
X0027003Y0113341D03*
X0036303Y0118741D03*
X0044003Y0118741D03*
X0052903Y0116541D03*
X0054103Y0118841D03*
D27*
X0044303Y0118441D03*
X0044303Y0113341D03*
X0036003Y0113241D03*
X0036003Y0118441D03*
X0027003Y0113741D03*
X0018303Y0113641D03*
X0018303Y0113541D03*
X0018103Y0118341D03*
X0033903Y0064941D03*
X0033903Y0064841D03*
X0033903Y0064741D03*
X0033903Y0064641D03*
D28*
X0044253Y0113241D03*
X0044253Y0118541D03*
X0036053Y0118541D03*
X0026953Y0113641D03*
X0018053Y0118441D03*
X0053453Y0115941D03*
X0053853Y0118641D03*
D29*
X0053753Y0118541D03*
X0053453Y0115841D03*
X0053453Y0115741D03*
X0044353Y0118341D03*
X0035953Y0113341D03*
X0026953Y0113841D03*
X0026953Y0113941D03*
X0018153Y0118241D03*
D30*
X0018203Y0118141D03*
X0018203Y0118041D03*
X0018303Y0113841D03*
X0018303Y0113741D03*
X0035903Y0113441D03*
X0035903Y0118341D03*
X0044403Y0118241D03*
X0044403Y0115941D03*
X0044403Y0115841D03*
X0044403Y0113541D03*
X0044403Y0113441D03*
X0053703Y0118441D03*
D31*
X0053653Y0118341D03*
X0053653Y0118241D03*
X0053453Y0115641D03*
X0053453Y0115541D03*
X0044453Y0115741D03*
X0044453Y0116041D03*
X0044453Y0113641D03*
X0044453Y0118141D03*
X0035853Y0118141D03*
X0035853Y0118241D03*
X0035853Y0115941D03*
X0035853Y0115841D03*
X0035853Y0115741D03*
X0035853Y0113541D03*
X0026953Y0114041D03*
X0018253Y0117841D03*
X0018253Y0117941D03*
D32*
X0035703Y0117741D03*
X0035803Y0118041D03*
X0035703Y0116441D03*
X0035803Y0116141D03*
X0035803Y0116041D03*
X0035803Y0115641D03*
X0035803Y0113741D03*
X0035803Y0113641D03*
X0044503Y0113741D03*
X0044503Y0113841D03*
X0044503Y0115541D03*
X0044503Y0115641D03*
X0044503Y0116141D03*
X0044503Y0116241D03*
X0044503Y0117941D03*
X0044503Y0118041D03*
X0053603Y0118141D03*
X0053403Y0115441D03*
D33*
X0053553Y0117841D03*
X0053553Y0117941D03*
X0053553Y0118041D03*
X0044553Y0117841D03*
X0044553Y0117741D03*
X0044553Y0116441D03*
X0044553Y0116341D03*
X0044553Y0115441D03*
X0044553Y0115341D03*
X0044553Y0113941D03*
X0035753Y0113941D03*
X0035753Y0113841D03*
X0035753Y0115341D03*
X0035753Y0115441D03*
X0035753Y0115541D03*
X0035753Y0116241D03*
X0035753Y0116341D03*
X0035753Y0117841D03*
X0035753Y0117941D03*
D34*
X0035603Y0102341D03*
X0035503Y0102241D03*
X0033903Y0100741D03*
X0033803Y0100641D03*
X0033703Y0100541D03*
X0034503Y0098741D03*
X0043803Y0091341D03*
X0043803Y0091241D03*
X0044003Y0090641D03*
X0045903Y0088941D03*
X0046003Y0088841D03*
X0046103Y0088641D03*
X0046203Y0093141D03*
X0046203Y0093241D03*
X0046203Y0093341D03*
X0046203Y0093441D03*
X0046203Y0093541D03*
X0044303Y0100441D03*
X0050303Y0117741D03*
X0032303Y0083241D03*
X0032303Y0083141D03*
X0032403Y0083041D03*
X0029803Y0077341D03*
X0036003Y0074141D03*
X0039903Y0077741D03*
X0043003Y0075641D03*
X0045703Y0074741D03*
X0041103Y0071641D03*
X0041103Y0071541D03*
X0042003Y0067441D03*
X0036703Y0064141D03*
X0036203Y0068341D03*
X0031103Y0064341D03*
X0031103Y0064241D03*
X0032203Y0060041D03*
X0025603Y0055741D03*
X0024903Y0058041D03*
X0022003Y0063141D03*
X0025603Y0067041D03*
X0025603Y0067141D03*
X0023103Y0075641D03*
X0041203Y0057541D03*
X0041903Y0056841D03*
X0040603Y0054641D03*
X0027903Y0048441D03*
X0027803Y0048541D03*
X0027703Y0048641D03*
X0015203Y0113941D03*
X0015203Y0115241D03*
D35*
X0015103Y0115141D03*
X0015003Y0114941D03*
X0015003Y0114841D03*
X0015003Y0114741D03*
X0015003Y0114641D03*
X0015003Y0114541D03*
X0015003Y0114441D03*
X0015003Y0114341D03*
X0015103Y0114141D03*
X0015103Y0114041D03*
X0021403Y0113941D03*
X0021503Y0114041D03*
X0023803Y0114141D03*
X0023803Y0114241D03*
X0021403Y0117741D03*
X0030103Y0114141D03*
X0032403Y0116541D03*
X0032403Y0117641D03*
X0036003Y0102641D03*
X0035503Y0099641D03*
X0034303Y0098641D03*
X0033403Y0100241D03*
X0032503Y0095941D03*
X0032403Y0095741D03*
X0032303Y0095641D03*
X0038703Y0100941D03*
X0043103Y0095941D03*
X0046203Y0092941D03*
X0046203Y0092841D03*
X0046203Y0092741D03*
X0046303Y0088341D03*
X0046403Y0088241D03*
X0047003Y0087641D03*
X0047103Y0087541D03*
X0039703Y0084441D03*
X0034203Y0075441D03*
X0032803Y0074641D03*
X0032803Y0074541D03*
X0035903Y0074041D03*
X0038803Y0070341D03*
X0038703Y0070141D03*
X0038703Y0070041D03*
X0038603Y0069941D03*
X0038603Y0069841D03*
X0038503Y0069641D03*
X0038503Y0069541D03*
X0036703Y0066941D03*
X0036603Y0066341D03*
X0036603Y0066241D03*
X0036603Y0066141D03*
X0036403Y0068241D03*
X0036803Y0064041D03*
X0039203Y0065141D03*
X0042103Y0067541D03*
X0043503Y0069541D03*
X0041103Y0071841D03*
X0045803Y0074641D03*
X0045303Y0061841D03*
X0045403Y0061641D03*
X0041303Y0057341D03*
X0042003Y0056641D03*
X0040403Y0055641D03*
X0038903Y0059541D03*
X0037003Y0053541D03*
X0035403Y0046941D03*
X0028203Y0048241D03*
X0028003Y0055241D03*
X0027603Y0057741D03*
X0025603Y0055641D03*
X0024803Y0057841D03*
X0025703Y0060141D03*
X0021803Y0062841D03*
X0025603Y0067341D03*
X0028403Y0065641D03*
X0031003Y0064041D03*
X0031003Y0063941D03*
X0031003Y0063841D03*
X0032503Y0082841D03*
X0027503Y0083641D03*
X0047803Y0115241D03*
X0047803Y0116541D03*
X0050203Y0116741D03*
X0050203Y0117641D03*
X0050203Y0115241D03*
X0056703Y0115341D03*
D36*
X0050253Y0115341D03*
X0050253Y0116641D03*
X0047753Y0114041D03*
X0035853Y0102541D03*
X0035753Y0102441D03*
X0033653Y0100441D03*
X0033553Y0100341D03*
X0032453Y0095841D03*
X0031653Y0085041D03*
X0032453Y0082941D03*
X0028953Y0078141D03*
X0032853Y0074741D03*
X0034153Y0072941D03*
X0031553Y0068241D03*
X0031053Y0066541D03*
X0031053Y0066441D03*
X0031053Y0066341D03*
X0031053Y0064141D03*
X0032153Y0059941D03*
X0028953Y0053841D03*
X0028053Y0048341D03*
X0024853Y0057941D03*
X0021853Y0062941D03*
X0021953Y0063041D03*
X0025553Y0067241D03*
X0021753Y0069041D03*
X0022953Y0075541D03*
X0036653Y0066841D03*
X0036653Y0066741D03*
X0036653Y0066641D03*
X0036653Y0066541D03*
X0036653Y0066441D03*
X0039253Y0065241D03*
X0042053Y0066141D03*
X0038753Y0070241D03*
X0038853Y0070441D03*
X0041053Y0071741D03*
X0045853Y0068541D03*
X0045253Y0061941D03*
X0045353Y0061741D03*
X0041953Y0056741D03*
X0041253Y0057441D03*
X0040453Y0055541D03*
X0040553Y0054541D03*
X0035653Y0047041D03*
X0047253Y0087441D03*
X0046853Y0087741D03*
X0046753Y0087841D03*
X0046653Y0087941D03*
X0046553Y0088041D03*
X0046453Y0088141D03*
X0046253Y0088441D03*
X0046153Y0088541D03*
X0046053Y0088741D03*
X0043753Y0091441D03*
X0043753Y0091541D03*
X0043753Y0091641D03*
X0043753Y0091741D03*
X0046153Y0093041D03*
X0032553Y0114041D03*
X0032453Y0115241D03*
X0015053Y0115041D03*
D37*
X0021603Y0115041D03*
X0021603Y0115141D03*
X0021603Y0115241D03*
X0021603Y0115341D03*
X0021603Y0115441D03*
X0021603Y0115541D03*
X0021603Y0115641D03*
X0021603Y0115741D03*
X0021603Y0115841D03*
X0021603Y0115941D03*
X0021603Y0116041D03*
X0021603Y0116141D03*
X0021603Y0116241D03*
X0021603Y0116341D03*
X0021603Y0116441D03*
X0021603Y0116541D03*
X0021603Y0116641D03*
X0021603Y0116741D03*
X0021603Y0116841D03*
X0021603Y0116941D03*
X0021603Y0117041D03*
X0021603Y0117141D03*
X0021603Y0117241D03*
X0021603Y0117341D03*
X0021603Y0117441D03*
X0021603Y0114941D03*
X0021603Y0114841D03*
X0021603Y0114741D03*
X0021603Y0114641D03*
X0021603Y0114541D03*
X0021603Y0114441D03*
X0021603Y0114341D03*
X0021603Y0114241D03*
X0030203Y0114341D03*
X0030203Y0114441D03*
X0030203Y0114541D03*
X0030203Y0114641D03*
X0030203Y0114741D03*
X0030203Y0114841D03*
X0030203Y0114941D03*
X0030203Y0115041D03*
X0030203Y0115141D03*
X0030203Y0115241D03*
X0030203Y0115341D03*
X0030203Y0115441D03*
X0030203Y0115541D03*
X0030203Y0115641D03*
X0030203Y0115741D03*
X0030203Y0115841D03*
X0030203Y0115941D03*
X0030203Y0116041D03*
X0030203Y0116141D03*
X0030203Y0116241D03*
X0030203Y0116341D03*
X0030203Y0116441D03*
X0030203Y0116541D03*
X0030203Y0116641D03*
X0030203Y0116741D03*
X0030203Y0116841D03*
X0030203Y0116941D03*
X0030203Y0117041D03*
X0030203Y0117141D03*
X0030203Y0117241D03*
X0030203Y0117341D03*
X0030203Y0117441D03*
X0030203Y0117541D03*
X0030203Y0117641D03*
X0030203Y0117741D03*
X0030203Y0117841D03*
X0030203Y0117941D03*
X0030203Y0118041D03*
X0030203Y0118141D03*
X0030203Y0118241D03*
X0030203Y0118341D03*
X0030203Y0118441D03*
X0030203Y0118541D03*
X0030203Y0118641D03*
X0030203Y0118741D03*
X0030203Y0118841D03*
X0032303Y0117441D03*
X0032303Y0117341D03*
X0032303Y0116841D03*
X0032303Y0116741D03*
X0032303Y0115041D03*
X0032303Y0114941D03*
X0032303Y0114441D03*
X0032303Y0114341D03*
X0032303Y0114241D03*
X0035503Y0099741D03*
X0034003Y0098441D03*
X0032103Y0095141D03*
X0032003Y0095041D03*
X0032003Y0094941D03*
X0033403Y0086441D03*
X0033403Y0086341D03*
X0032703Y0082541D03*
X0035003Y0081841D03*
X0035003Y0081641D03*
X0034303Y0075641D03*
X0032703Y0074341D03*
X0034203Y0073141D03*
X0035803Y0073941D03*
X0038403Y0069241D03*
X0038403Y0069141D03*
X0038403Y0069041D03*
X0036503Y0068141D03*
X0036803Y0067241D03*
X0036803Y0067141D03*
X0036603Y0066041D03*
X0036803Y0063941D03*
X0039103Y0064841D03*
X0039103Y0064941D03*
X0042203Y0066341D03*
X0043403Y0069641D03*
X0043403Y0062841D03*
X0045503Y0061441D03*
X0045503Y0061341D03*
X0042003Y0056541D03*
X0042003Y0056441D03*
X0040403Y0055841D03*
X0041703Y0053741D03*
X0034803Y0046741D03*
X0029103Y0053641D03*
X0027703Y0057841D03*
X0025803Y0056741D03*
X0024703Y0057741D03*
X0025603Y0060241D03*
X0023903Y0063741D03*
X0021603Y0062541D03*
X0021503Y0068841D03*
X0026203Y0076541D03*
X0028903Y0078241D03*
X0027403Y0083941D03*
X0027403Y0084041D03*
X0031603Y0069141D03*
X0031603Y0069041D03*
X0031303Y0068041D03*
X0031003Y0066841D03*
X0031003Y0063741D03*
X0031003Y0063641D03*
X0031003Y0063541D03*
X0028503Y0065341D03*
X0028403Y0048041D03*
X0028503Y0047941D03*
X0039603Y0084941D03*
X0039603Y0085041D03*
X0044203Y0090541D03*
X0046203Y0092341D03*
X0043303Y0095141D03*
X0043303Y0095241D03*
X0043303Y0095541D03*
X0043203Y0095741D03*
X0045503Y0096741D03*
X0045503Y0096841D03*
X0045503Y0096941D03*
X0045503Y0097041D03*
X0045503Y0097141D03*
X0045503Y0097241D03*
X0045203Y0098341D03*
X0045103Y0098541D03*
X0045103Y0098641D03*
X0047903Y0114241D03*
X0048003Y0114341D03*
X0048003Y0114441D03*
X0048003Y0114541D03*
X0048003Y0114641D03*
X0048003Y0114741D03*
X0048003Y0114841D03*
X0048003Y0114941D03*
X0047903Y0116641D03*
X0048003Y0116841D03*
X0048003Y0116941D03*
X0048003Y0117041D03*
X0048003Y0117141D03*
X0048003Y0117241D03*
X0048003Y0117341D03*
X0047903Y0117541D03*
X0050103Y0116941D03*
X0050103Y0115041D03*
X0056803Y0115041D03*
X0056803Y0114941D03*
D38*
X0044953Y0098941D03*
X0044953Y0098841D03*
X0045053Y0098741D03*
X0045553Y0096641D03*
X0045553Y0096541D03*
X0045553Y0096441D03*
X0045553Y0096341D03*
X0045553Y0096241D03*
X0045553Y0096141D03*
X0043353Y0095441D03*
X0043353Y0095341D03*
X0043253Y0095641D03*
X0046153Y0092241D03*
X0046153Y0092141D03*
X0046153Y0092041D03*
X0046153Y0091941D03*
X0046153Y0091841D03*
X0044353Y0090441D03*
X0044653Y0089741D03*
X0044753Y0089641D03*
X0048053Y0086941D03*
X0042653Y0075741D03*
X0040053Y0077941D03*
X0036353Y0072641D03*
X0034153Y0073241D03*
X0032753Y0074241D03*
X0030553Y0074741D03*
X0030553Y0074841D03*
X0029853Y0077141D03*
X0033153Y0080541D03*
X0033153Y0080641D03*
X0033153Y0080741D03*
X0033153Y0080841D03*
X0032853Y0082341D03*
X0032753Y0082441D03*
X0034153Y0084041D03*
X0034153Y0084141D03*
X0035053Y0081541D03*
X0032053Y0084641D03*
X0031953Y0084741D03*
X0033353Y0086241D03*
X0029553Y0082441D03*
X0029553Y0082341D03*
X0027353Y0084141D03*
X0027353Y0084241D03*
X0027253Y0084441D03*
X0027253Y0084541D03*
X0022653Y0075341D03*
X0024453Y0070141D03*
X0021453Y0068741D03*
X0023953Y0063841D03*
X0021553Y0062441D03*
X0024653Y0057641D03*
X0025753Y0055441D03*
X0024253Y0054541D03*
X0027653Y0057541D03*
X0027953Y0055441D03*
X0029153Y0053541D03*
X0028653Y0047841D03*
X0036853Y0053341D03*
X0040453Y0054441D03*
X0040353Y0055941D03*
X0041453Y0057141D03*
X0041353Y0057241D03*
X0042053Y0056341D03*
X0042053Y0056241D03*
X0038753Y0059641D03*
X0036853Y0063741D03*
X0036853Y0063841D03*
X0039053Y0064741D03*
X0036653Y0068041D03*
X0038353Y0068841D03*
X0038353Y0068941D03*
X0042253Y0067641D03*
X0042253Y0066541D03*
X0042253Y0066441D03*
X0043353Y0069741D03*
X0046153Y0068241D03*
X0043353Y0062941D03*
X0043753Y0062641D03*
X0044253Y0062441D03*
X0045553Y0061241D03*
X0045553Y0061141D03*
X0046153Y0074341D03*
X0046053Y0074441D03*
X0039653Y0085141D03*
X0031853Y0094541D03*
X0031953Y0094741D03*
X0031953Y0094841D03*
X0033753Y0098241D03*
X0033853Y0098341D03*
X0033053Y0099841D03*
X0033153Y0099941D03*
X0036253Y0102841D03*
X0036353Y0102941D03*
X0040653Y0100041D03*
X0032253Y0114541D03*
X0032253Y0114641D03*
X0032253Y0114741D03*
X0032253Y0114841D03*
X0032253Y0116941D03*
X0032253Y0117041D03*
X0032253Y0117141D03*
X0032253Y0117241D03*
X0029153Y0070241D03*
X0029253Y0070041D03*
X0031553Y0069341D03*
X0031553Y0069241D03*
X0031253Y0067941D03*
X0031153Y0066141D03*
X0031053Y0063441D03*
X0031053Y0063341D03*
X0031053Y0063241D03*
X0028553Y0065141D03*
X0028553Y0065241D03*
X0028553Y0060341D03*
X0025553Y0060341D03*
D39*
X0033653Y0061541D03*
X0017253Y0115341D03*
D40*
X0017303Y0115441D03*
X0017303Y0115541D03*
X0033603Y0061441D03*
X0033603Y0061341D03*
D41*
X0033653Y0061241D03*
X0033653Y0061141D03*
X0034153Y0072341D03*
X0034153Y0072441D03*
X0034153Y0072541D03*
X0040653Y0102141D03*
X0017353Y0115641D03*
X0017353Y0115741D03*
D42*
X0017453Y0115941D03*
X0041253Y0101841D03*
X0034153Y0072141D03*
X0034153Y0072041D03*
X0033653Y0060941D03*
X0033653Y0060841D03*
D43*
X0033703Y0060741D03*
X0034103Y0071941D03*
X0040603Y0102241D03*
X0017503Y0116041D03*
D44*
X0017603Y0116141D03*
X0040603Y0102341D03*
X0034103Y0071741D03*
X0033703Y0060541D03*
X0033703Y0060441D03*
D45*
X0040503Y0102441D03*
X0017803Y0116341D03*
D46*
X0043753Y0118841D03*
D47*
X0037753Y0103941D03*
X0031953Y0098541D03*
X0031353Y0100341D03*
X0031353Y0100441D03*
X0027953Y0094341D03*
X0028053Y0094041D03*
X0029853Y0092041D03*
X0029853Y0091941D03*
X0032153Y0090541D03*
X0038253Y0088941D03*
X0038353Y0088841D03*
X0044053Y0088941D03*
X0046653Y0101541D03*
X0046553Y0101741D03*
X0037153Y0077341D03*
X0037153Y0077241D03*
X0037553Y0071541D03*
X0037553Y0071441D03*
X0041453Y0073141D03*
X0045253Y0070741D03*
X0047553Y0070341D03*
X0047553Y0070241D03*
X0046953Y0064541D03*
X0046953Y0064441D03*
X0045953Y0062641D03*
X0045153Y0056341D03*
X0045053Y0056241D03*
X0042953Y0054941D03*
X0037653Y0062441D03*
X0036653Y0061941D03*
X0032853Y0063941D03*
X0029853Y0062741D03*
X0029853Y0062641D03*
X0029153Y0067941D03*
X0027253Y0068441D03*
X0026853Y0073541D03*
X0026553Y0075441D03*
X0023753Y0077441D03*
X0020553Y0071441D03*
X0020553Y0071341D03*
X0020553Y0071241D03*
X0020453Y0071141D03*
X0020053Y0065341D03*
X0020053Y0065241D03*
X0020053Y0065141D03*
X0021453Y0063841D03*
X0024053Y0059541D03*
X0024053Y0059441D03*
X0024053Y0059341D03*
X0021353Y0057341D03*
X0021353Y0057241D03*
X0021453Y0057141D03*
X0021453Y0057041D03*
X0022753Y0054441D03*
X0022753Y0054341D03*
X0022853Y0054241D03*
X0022853Y0054141D03*
X0030353Y0046841D03*
X0036253Y0055241D03*
X0045153Y0076641D03*
D48*
X0041403Y0073041D03*
X0037903Y0072941D03*
X0037503Y0071341D03*
X0036003Y0076441D03*
X0037103Y0077441D03*
X0040303Y0078741D03*
X0034903Y0084541D03*
X0034303Y0087541D03*
X0031203Y0091141D03*
X0031203Y0091241D03*
X0031203Y0091341D03*
X0028203Y0088741D03*
X0028103Y0088641D03*
X0030403Y0085541D03*
X0026803Y0083041D03*
X0029003Y0078941D03*
X0031703Y0077041D03*
X0032703Y0076441D03*
X0030203Y0072941D03*
X0030703Y0071541D03*
X0029203Y0068041D03*
X0029803Y0062541D03*
X0029803Y0062441D03*
X0030003Y0055741D03*
X0028903Y0052241D03*
X0024003Y0058941D03*
X0024003Y0059041D03*
X0024003Y0059141D03*
X0024003Y0059241D03*
X0023603Y0055641D03*
X0023603Y0055541D03*
X0022903Y0054041D03*
X0023003Y0053941D03*
X0023003Y0053841D03*
X0021303Y0057441D03*
X0021303Y0057541D03*
X0021303Y0057641D03*
X0020103Y0065441D03*
X0020103Y0065541D03*
X0020103Y0065641D03*
X0022503Y0071141D03*
X0020703Y0071841D03*
X0020703Y0071941D03*
X0020603Y0071641D03*
X0020603Y0071541D03*
X0024803Y0068241D03*
X0026803Y0073341D03*
X0026803Y0073441D03*
X0023703Y0077341D03*
X0028103Y0093841D03*
X0028103Y0093941D03*
X0028003Y0094141D03*
X0028003Y0094241D03*
X0032003Y0098641D03*
X0031303Y0100141D03*
X0031303Y0100241D03*
X0037603Y0103841D03*
X0041503Y0099141D03*
X0041503Y0099041D03*
X0042303Y0098941D03*
X0042303Y0096041D03*
X0041803Y0091641D03*
X0038503Y0088641D03*
X0038403Y0088741D03*
X0046703Y0101441D03*
X0046603Y0101641D03*
X0047603Y0070641D03*
X0047603Y0070541D03*
X0047603Y0070441D03*
X0045303Y0070641D03*
X0047003Y0064841D03*
X0047003Y0064741D03*
X0047003Y0064641D03*
X0042903Y0058041D03*
X0042903Y0057941D03*
X0042903Y0054841D03*
X0042903Y0054741D03*
X0042803Y0054641D03*
X0045203Y0056441D03*
X0037603Y0062241D03*
X0037603Y0062341D03*
X0037703Y0065341D03*
X0035403Y0058941D03*
X0036303Y0055141D03*
D49*
X0035503Y0059141D03*
X0032803Y0063741D03*
X0030603Y0061941D03*
X0029703Y0062041D03*
X0029703Y0062141D03*
X0027503Y0065941D03*
X0027303Y0066041D03*
X0027203Y0066141D03*
X0027003Y0066241D03*
X0029403Y0071041D03*
X0030903Y0071241D03*
X0030203Y0073041D03*
X0030003Y0075141D03*
X0029903Y0075241D03*
X0029903Y0075341D03*
X0029803Y0075941D03*
X0030403Y0076141D03*
X0030403Y0076241D03*
X0030303Y0076541D03*
X0030503Y0075941D03*
X0030503Y0075841D03*
X0030603Y0075641D03*
X0030603Y0075541D03*
X0031803Y0077241D03*
X0033203Y0077341D03*
X0034503Y0077241D03*
X0036003Y0076341D03*
X0037103Y0077541D03*
X0037103Y0077641D03*
X0039103Y0076241D03*
X0039103Y0076141D03*
X0039203Y0076341D03*
X0039003Y0075941D03*
X0038903Y0075741D03*
X0040303Y0078641D03*
X0041503Y0076641D03*
X0041603Y0076541D03*
X0041703Y0076441D03*
X0041803Y0076341D03*
X0041403Y0072941D03*
X0042403Y0070841D03*
X0045503Y0070341D03*
X0045603Y0070241D03*
X0047603Y0071041D03*
X0047603Y0071141D03*
X0047003Y0065541D03*
X0041503Y0060241D03*
X0042803Y0057641D03*
X0042803Y0057541D03*
X0042803Y0057441D03*
X0042703Y0054441D03*
X0045403Y0056841D03*
X0045503Y0057041D03*
X0037403Y0071141D03*
X0034303Y0074041D03*
X0032703Y0073541D03*
X0026803Y0073241D03*
X0023603Y0077141D03*
X0020903Y0072541D03*
X0020903Y0072441D03*
X0020803Y0072241D03*
X0022303Y0070841D03*
X0020303Y0066441D03*
X0020303Y0066341D03*
X0020203Y0066041D03*
X0021103Y0058641D03*
X0021103Y0058541D03*
X0021103Y0058441D03*
X0021103Y0058341D03*
X0023603Y0055441D03*
X0023603Y0055341D03*
X0023103Y0053641D03*
X0023203Y0053541D03*
X0025703Y0055241D03*
X0029003Y0052441D03*
X0029903Y0055541D03*
X0045203Y0076441D03*
X0038803Y0088041D03*
X0038703Y0088241D03*
X0034203Y0087341D03*
X0034103Y0087141D03*
X0034103Y0087041D03*
X0032303Y0087641D03*
X0032203Y0087841D03*
X0032203Y0087941D03*
X0032103Y0088141D03*
X0032003Y0088341D03*
X0032003Y0088441D03*
X0031903Y0088641D03*
X0031203Y0091441D03*
X0031203Y0091541D03*
X0029803Y0092341D03*
X0029803Y0092441D03*
X0029803Y0092541D03*
X0028203Y0093341D03*
X0028203Y0093441D03*
X0027903Y0088341D03*
X0027903Y0088241D03*
X0027803Y0088141D03*
X0026903Y0083241D03*
X0032303Y0096841D03*
X0032103Y0098741D03*
X0031203Y0099841D03*
X0031203Y0099941D03*
X0037503Y0103741D03*
X0041403Y0099341D03*
X0042403Y0098841D03*
X0046903Y0101041D03*
X0044203Y0089441D03*
X0044103Y0089241D03*
X0044103Y0089141D03*
X0044103Y0089041D03*
D50*
X0041903Y0091741D03*
X0038903Y0087841D03*
X0038903Y0087741D03*
X0039003Y0087641D03*
X0039003Y0084141D03*
X0038903Y0083941D03*
X0038703Y0083441D03*
X0038603Y0083241D03*
X0037803Y0080041D03*
X0037803Y0079941D03*
X0037703Y0079741D03*
X0037603Y0079541D03*
X0037503Y0079341D03*
X0037403Y0079241D03*
X0038303Y0076541D03*
X0038203Y0076441D03*
X0038203Y0076341D03*
X0038103Y0075941D03*
X0038003Y0075741D03*
X0038003Y0075641D03*
X0038003Y0075541D03*
X0038703Y0075441D03*
X0037903Y0073141D03*
X0038803Y0071441D03*
X0038703Y0071341D03*
X0038603Y0071241D03*
X0038503Y0071041D03*
X0038403Y0070841D03*
X0038303Y0070641D03*
X0039803Y0070841D03*
X0040103Y0071141D03*
X0042103Y0071141D03*
X0042703Y0070441D03*
X0042803Y0070341D03*
X0045703Y0070041D03*
X0047503Y0071541D03*
X0047503Y0071641D03*
X0047503Y0071741D03*
X0047403Y0071941D03*
X0047403Y0072041D03*
X0047403Y0072141D03*
X0045203Y0076241D03*
X0045203Y0076341D03*
X0042003Y0076141D03*
X0041903Y0076241D03*
X0041203Y0076841D03*
X0036003Y0076141D03*
X0036003Y0076041D03*
X0034403Y0077041D03*
X0032603Y0076241D03*
X0031903Y0077541D03*
X0031903Y0077641D03*
X0030803Y0075041D03*
X0030303Y0073341D03*
X0029203Y0071441D03*
X0029503Y0070741D03*
X0029503Y0070641D03*
X0029503Y0070541D03*
X0028603Y0070441D03*
X0028503Y0070541D03*
X0028403Y0070641D03*
X0029303Y0068241D03*
X0028203Y0066841D03*
X0028303Y0066741D03*
X0027803Y0067141D03*
X0027703Y0067241D03*
X0027603Y0065841D03*
X0029603Y0061741D03*
X0031503Y0062341D03*
X0032003Y0059341D03*
X0032103Y0059241D03*
X0034603Y0059841D03*
X0035603Y0059341D03*
X0035703Y0059541D03*
X0035803Y0059741D03*
X0037703Y0061241D03*
X0037703Y0061341D03*
X0037703Y0061441D03*
X0040203Y0065541D03*
X0040403Y0065641D03*
X0043003Y0064541D03*
X0043103Y0064141D03*
X0041503Y0060141D03*
X0042703Y0057241D03*
X0042603Y0057141D03*
X0045603Y0057341D03*
X0045703Y0057641D03*
X0045703Y0057741D03*
X0045703Y0057841D03*
X0043903Y0053541D03*
X0043803Y0053441D03*
X0043703Y0053341D03*
X0038403Y0055641D03*
X0038403Y0055741D03*
X0038603Y0056141D03*
X0038703Y0056241D03*
X0036703Y0052341D03*
X0036703Y0052241D03*
X0029803Y0055241D03*
X0029003Y0052541D03*
X0023703Y0055141D03*
X0021003Y0059241D03*
X0021003Y0059341D03*
X0025903Y0061241D03*
X0020403Y0066741D03*
X0020503Y0067041D03*
X0020503Y0067141D03*
X0020603Y0067341D03*
X0021103Y0073041D03*
X0021103Y0073141D03*
X0021203Y0073241D03*
X0021203Y0073341D03*
X0025303Y0070941D03*
X0025403Y0071041D03*
X0026803Y0073041D03*
X0028903Y0078741D03*
X0028903Y0082841D03*
X0028203Y0083441D03*
X0030503Y0085441D03*
X0032603Y0087041D03*
X0032603Y0087141D03*
X0032503Y0087241D03*
X0032703Y0086941D03*
X0034003Y0086841D03*
X0034603Y0084241D03*
X0031803Y0089041D03*
X0031803Y0089141D03*
X0031703Y0089341D03*
X0031303Y0091841D03*
X0031303Y0091941D03*
X0031303Y0092041D03*
X0029803Y0092841D03*
X0029803Y0092941D03*
X0028503Y0092541D03*
X0028403Y0092741D03*
X0028403Y0092841D03*
X0027603Y0087741D03*
X0027603Y0087641D03*
X0027503Y0087441D03*
X0032303Y0098941D03*
X0031103Y0099441D03*
X0031103Y0099541D03*
X0035603Y0099941D03*
X0037303Y0103641D03*
X0041303Y0099541D03*
X0042503Y0098641D03*
X0043403Y0096941D03*
X0043503Y0096741D03*
X0043503Y0096641D03*
X0043503Y0096541D03*
X0045103Y0100041D03*
X0047103Y0100541D03*
X0049003Y0087441D03*
X0035603Y0073441D03*
X0034203Y0073941D03*
X0031003Y0071041D03*
X0031103Y0070841D03*
X0046903Y0066741D03*
X0047003Y0066541D03*
X0047003Y0066441D03*
X0047003Y0066341D03*
X0047003Y0066241D03*
D51*
X0046953Y0066641D03*
X0046853Y0066841D03*
X0046853Y0066941D03*
X0045753Y0069841D03*
X0045753Y0069941D03*
X0047353Y0072241D03*
X0047353Y0072341D03*
X0047253Y0072441D03*
X0047253Y0072541D03*
X0045253Y0076141D03*
X0042153Y0076041D03*
X0039453Y0076741D03*
X0040153Y0078441D03*
X0038353Y0076641D03*
X0037953Y0075441D03*
X0037953Y0073241D03*
X0036653Y0073241D03*
X0035653Y0073541D03*
X0036053Y0075941D03*
X0037053Y0077941D03*
X0037053Y0078041D03*
X0037053Y0078141D03*
X0037353Y0079141D03*
X0037853Y0080141D03*
X0037953Y0080241D03*
X0037953Y0080341D03*
X0038553Y0083041D03*
X0038553Y0083141D03*
X0039053Y0084241D03*
X0040253Y0084341D03*
X0039053Y0087441D03*
X0039053Y0087541D03*
X0033853Y0086641D03*
X0032753Y0086841D03*
X0031753Y0089241D03*
X0031653Y0089441D03*
X0031653Y0089541D03*
X0031653Y0089641D03*
X0031753Y0090141D03*
X0029753Y0093041D03*
X0029753Y0093141D03*
X0028553Y0092441D03*
X0028553Y0092341D03*
X0028653Y0092141D03*
X0028453Y0092641D03*
X0027553Y0087541D03*
X0027453Y0087341D03*
X0027453Y0087241D03*
X0030653Y0085341D03*
X0029053Y0082741D03*
X0026953Y0083441D03*
X0030853Y0079641D03*
X0030953Y0079541D03*
X0031953Y0077841D03*
X0031953Y0077741D03*
X0032553Y0076141D03*
X0032753Y0073641D03*
X0031653Y0073341D03*
X0030253Y0073441D03*
X0029053Y0071641D03*
X0029153Y0071541D03*
X0028353Y0070741D03*
X0028253Y0070841D03*
X0029553Y0070441D03*
X0029353Y0068341D03*
X0028953Y0065741D03*
X0030253Y0065341D03*
X0030353Y0065241D03*
X0029053Y0064041D03*
X0029553Y0061641D03*
X0029553Y0061541D03*
X0031753Y0059741D03*
X0031753Y0059641D03*
X0031853Y0059541D03*
X0031953Y0059441D03*
X0032853Y0063641D03*
X0035753Y0059641D03*
X0037853Y0060841D03*
X0037753Y0061041D03*
X0037753Y0061141D03*
X0038453Y0063641D03*
X0040053Y0065441D03*
X0039653Y0066441D03*
X0039853Y0066541D03*
X0040053Y0066641D03*
X0040253Y0066741D03*
X0038053Y0067941D03*
X0037153Y0070841D03*
X0037253Y0070941D03*
X0038853Y0071541D03*
X0038953Y0071641D03*
X0039653Y0070741D03*
X0040253Y0071241D03*
X0041953Y0071241D03*
X0042853Y0065041D03*
X0042853Y0064941D03*
X0042953Y0064841D03*
X0042953Y0064741D03*
X0042953Y0064641D03*
X0043053Y0064441D03*
X0043053Y0064341D03*
X0043053Y0064241D03*
X0043153Y0064041D03*
X0043153Y0063941D03*
X0041453Y0060041D03*
X0038753Y0056341D03*
X0038353Y0055541D03*
X0036653Y0052541D03*
X0036653Y0052441D03*
X0042353Y0054141D03*
X0043453Y0053041D03*
X0043553Y0053141D03*
X0043653Y0053241D03*
X0043353Y0052941D03*
X0043253Y0052841D03*
X0045753Y0057941D03*
X0045753Y0058041D03*
X0045753Y0058141D03*
X0031153Y0070741D03*
X0025653Y0071241D03*
X0025553Y0071141D03*
X0025253Y0070841D03*
X0025153Y0070741D03*
X0025053Y0068141D03*
X0024653Y0065641D03*
X0024553Y0065441D03*
X0021453Y0063441D03*
X0021053Y0060141D03*
X0021053Y0060041D03*
X0021053Y0059941D03*
X0021053Y0059841D03*
X0021053Y0059741D03*
X0021053Y0059641D03*
X0021053Y0059541D03*
X0021053Y0059441D03*
X0023753Y0055041D03*
X0024453Y0056741D03*
X0027953Y0056441D03*
X0027953Y0056341D03*
X0027953Y0056241D03*
X0029053Y0052641D03*
X0029753Y0047141D03*
X0020553Y0067241D03*
X0020653Y0067441D03*
X0022253Y0070641D03*
X0021253Y0073441D03*
X0021353Y0073541D03*
X0021353Y0073641D03*
X0021453Y0073741D03*
X0023553Y0076941D03*
X0032553Y0097041D03*
X0032353Y0099041D03*
X0031053Y0099241D03*
X0031053Y0099341D03*
X0037153Y0103541D03*
X0041253Y0099641D03*
X0042553Y0098541D03*
X0042653Y0098441D03*
X0043253Y0097341D03*
X0043253Y0097241D03*
X0043353Y0097141D03*
X0043353Y0097041D03*
X0043453Y0096841D03*
X0043553Y0096441D03*
X0043553Y0096341D03*
X0041753Y0095041D03*
X0045553Y0093741D03*
X0045553Y0093641D03*
X0047253Y0095241D03*
X0047353Y0095541D03*
X0047353Y0095641D03*
X0047353Y0095741D03*
X0047453Y0096041D03*
X0047453Y0096141D03*
X0047253Y0100041D03*
X0047253Y0100141D03*
X0047153Y0100241D03*
X0047153Y0100341D03*
X0047153Y0100441D03*
X0048053Y0086841D03*
D52*
X0046453Y0089041D03*
X0046453Y0089141D03*
X0046353Y0089241D03*
X0046353Y0089341D03*
X0046353Y0089441D03*
X0046353Y0089541D03*
X0046253Y0089741D03*
X0046253Y0089841D03*
X0046253Y0089941D03*
X0045053Y0089541D03*
X0045553Y0094041D03*
X0045553Y0094141D03*
X0045553Y0094241D03*
X0045553Y0094341D03*
X0046953Y0094341D03*
X0046953Y0094241D03*
X0047053Y0094441D03*
X0047053Y0094541D03*
X0047553Y0097041D03*
X0047553Y0097141D03*
X0047553Y0097241D03*
X0047553Y0097341D03*
X0047553Y0097441D03*
X0047553Y0097541D03*
X0047553Y0097641D03*
X0047553Y0097741D03*
X0047553Y0097841D03*
X0047553Y0097941D03*
X0047553Y0098041D03*
X0047553Y0098141D03*
X0047553Y0098241D03*
X0047553Y0098341D03*
X0047553Y0098441D03*
X0047553Y0098541D03*
X0047553Y0098641D03*
X0047553Y0098741D03*
X0047453Y0099041D03*
X0047453Y0099141D03*
X0047453Y0099241D03*
X0043453Y0096141D03*
X0042953Y0097841D03*
X0042853Y0098041D03*
X0037053Y0103441D03*
X0032553Y0099241D03*
X0030953Y0098941D03*
X0030953Y0098841D03*
X0030853Y0098741D03*
X0030853Y0098641D03*
X0030853Y0098541D03*
X0032753Y0097241D03*
X0029853Y0093641D03*
X0031353Y0092641D03*
X0031353Y0092541D03*
X0031353Y0092441D03*
X0031653Y0089941D03*
X0031653Y0089841D03*
X0031653Y0089741D03*
X0029053Y0091141D03*
X0028953Y0091341D03*
X0028953Y0091441D03*
X0028853Y0091541D03*
X0028853Y0091641D03*
X0028753Y0091841D03*
X0027353Y0086841D03*
X0027353Y0086741D03*
X0027253Y0086541D03*
X0027253Y0086441D03*
X0027253Y0086341D03*
X0028053Y0083541D03*
X0029153Y0082641D03*
X0030353Y0080041D03*
X0030453Y0079941D03*
X0031353Y0079241D03*
X0031953Y0078341D03*
X0033453Y0077741D03*
X0033453Y0077641D03*
X0034353Y0076741D03*
X0035453Y0077841D03*
X0036153Y0075641D03*
X0036153Y0075541D03*
X0036153Y0075441D03*
X0036553Y0073041D03*
X0037953Y0073341D03*
X0037953Y0073441D03*
X0036953Y0070641D03*
X0036853Y0070541D03*
X0039353Y0070541D03*
X0038153Y0068141D03*
X0039253Y0066241D03*
X0040453Y0066841D03*
X0042753Y0065241D03*
X0043253Y0063641D03*
X0043253Y0063541D03*
X0045853Y0059241D03*
X0045853Y0059141D03*
X0045853Y0059041D03*
X0045853Y0058941D03*
X0045853Y0058841D03*
X0045853Y0058741D03*
X0045853Y0058641D03*
X0042953Y0052541D03*
X0042853Y0052441D03*
X0040253Y0056241D03*
X0038853Y0056441D03*
X0038253Y0055341D03*
X0036653Y0052841D03*
X0036653Y0052741D03*
X0035853Y0060041D03*
X0034553Y0059941D03*
X0036153Y0062541D03*
X0037953Y0060641D03*
X0037953Y0060541D03*
X0038553Y0063741D03*
X0038653Y0063841D03*
X0042953Y0070141D03*
X0045853Y0069641D03*
X0046753Y0067341D03*
X0046753Y0067241D03*
X0047053Y0073041D03*
X0046953Y0073241D03*
X0045353Y0075941D03*
X0042253Y0075941D03*
X0039553Y0076841D03*
X0038453Y0076841D03*
X0040153Y0078341D03*
X0038053Y0080541D03*
X0037053Y0078641D03*
X0037053Y0078541D03*
X0037053Y0078441D03*
X0037053Y0078341D03*
X0038353Y0082741D03*
X0039153Y0084341D03*
X0039253Y0086841D03*
X0039253Y0086941D03*
X0034353Y0082841D03*
X0034353Y0082741D03*
X0034453Y0082541D03*
X0032753Y0083541D03*
X0032653Y0083741D03*
X0032653Y0083841D03*
X0032553Y0083941D03*
X0033553Y0084941D03*
X0033553Y0085041D03*
X0033553Y0085141D03*
X0028853Y0078541D03*
X0027553Y0077341D03*
X0027253Y0077141D03*
X0026953Y0076941D03*
X0030353Y0074141D03*
X0030353Y0074041D03*
X0030353Y0073941D03*
X0030353Y0073841D03*
X0031753Y0073141D03*
X0032453Y0075741D03*
X0032453Y0075841D03*
X0032453Y0075941D03*
X0031253Y0070441D03*
X0031253Y0070341D03*
X0029453Y0068741D03*
X0029453Y0068641D03*
X0028053Y0071141D03*
X0025753Y0071341D03*
X0024953Y0070541D03*
X0024853Y0070441D03*
X0022153Y0070441D03*
X0022153Y0070341D03*
X0020853Y0067941D03*
X0020753Y0067741D03*
X0024853Y0066141D03*
X0024853Y0066041D03*
X0024953Y0066241D03*
X0024353Y0064841D03*
X0025653Y0060941D03*
X0026053Y0057041D03*
X0024453Y0057041D03*
X0024453Y0056941D03*
X0023953Y0054741D03*
X0021053Y0060341D03*
X0021053Y0060441D03*
X0021053Y0060541D03*
X0021053Y0060641D03*
X0027853Y0057041D03*
X0027853Y0056941D03*
X0027953Y0056041D03*
X0027953Y0055941D03*
X0027953Y0055841D03*
X0029153Y0052941D03*
X0029553Y0047241D03*
X0029253Y0061041D03*
X0029353Y0061141D03*
X0028853Y0064241D03*
X0028953Y0065941D03*
X0027853Y0065741D03*
X0021653Y0074141D03*
X0021753Y0074241D03*
X0021753Y0074341D03*
X0021853Y0074441D03*
X0023453Y0076741D03*
D53*
X0022003Y0074641D03*
X0021903Y0074541D03*
X0022103Y0070241D03*
X0021003Y0068141D03*
X0020903Y0068041D03*
X0023203Y0063441D03*
X0024203Y0064441D03*
X0024303Y0064641D03*
X0024303Y0064741D03*
X0025603Y0060841D03*
X0024503Y0057141D03*
X0027803Y0057141D03*
X0029103Y0060841D03*
X0029203Y0060941D03*
X0031303Y0062541D03*
X0030503Y0065041D03*
X0028803Y0064441D03*
X0028803Y0064341D03*
X0028903Y0066041D03*
X0028903Y0066141D03*
X0029503Y0068841D03*
X0031303Y0070141D03*
X0031303Y0070241D03*
X0032703Y0073741D03*
X0034203Y0073741D03*
X0034203Y0073641D03*
X0035703Y0073641D03*
X0036303Y0074941D03*
X0036303Y0075041D03*
X0036203Y0075141D03*
X0036203Y0075241D03*
X0036203Y0075341D03*
X0034403Y0076641D03*
X0033503Y0077841D03*
X0033503Y0077941D03*
X0033503Y0078041D03*
X0032003Y0078441D03*
X0032403Y0075641D03*
X0032403Y0075541D03*
X0032403Y0075441D03*
X0035503Y0077941D03*
X0035403Y0079341D03*
X0035403Y0079441D03*
X0037103Y0078841D03*
X0037103Y0078741D03*
X0038103Y0080641D03*
X0040103Y0078241D03*
X0038003Y0073541D03*
X0039203Y0071841D03*
X0036803Y0070441D03*
X0036703Y0070341D03*
X0036603Y0070241D03*
X0038803Y0065641D03*
X0038803Y0065541D03*
X0038803Y0065441D03*
X0038803Y0065341D03*
X0038703Y0063941D03*
X0038003Y0060441D03*
X0038103Y0060341D03*
X0038103Y0060241D03*
X0038203Y0060141D03*
X0038803Y0057241D03*
X0038903Y0056541D03*
X0038203Y0055241D03*
X0036703Y0052941D03*
X0040303Y0054341D03*
X0042103Y0053941D03*
X0042003Y0055541D03*
X0042003Y0055641D03*
X0041403Y0059741D03*
X0041403Y0059841D03*
X0042703Y0065341D03*
X0042603Y0065441D03*
X0043003Y0070041D03*
X0046603Y0067641D03*
X0046603Y0067541D03*
X0046703Y0067441D03*
X0046903Y0073341D03*
X0046803Y0073441D03*
X0046803Y0073541D03*
X0046703Y0073641D03*
X0045403Y0075841D03*
X0039303Y0086641D03*
X0039303Y0086741D03*
X0034603Y0082241D03*
X0034503Y0082341D03*
X0034503Y0082441D03*
X0034403Y0082641D03*
X0034303Y0082941D03*
X0034303Y0083041D03*
X0034303Y0083141D03*
X0032703Y0083441D03*
X0032703Y0083641D03*
X0032503Y0084041D03*
X0032503Y0084141D03*
X0032403Y0084241D03*
X0031903Y0085441D03*
X0031903Y0085541D03*
X0031803Y0085641D03*
X0031803Y0085741D03*
X0031703Y0085841D03*
X0031703Y0085941D03*
X0031603Y0086041D03*
X0031603Y0086141D03*
X0031503Y0086341D03*
X0031403Y0086541D03*
X0031303Y0086741D03*
X0033503Y0085341D03*
X0033503Y0085241D03*
X0033203Y0081641D03*
X0030203Y0080141D03*
X0027703Y0077441D03*
X0027403Y0077241D03*
X0027103Y0077041D03*
X0026803Y0076841D03*
X0027903Y0071241D03*
X0021203Y0061341D03*
X0021103Y0061041D03*
X0021103Y0060941D03*
X0021103Y0060841D03*
X0021103Y0060741D03*
X0029103Y0053041D03*
X0029403Y0047341D03*
X0045903Y0059341D03*
X0045903Y0059441D03*
X0045903Y0059541D03*
X0045903Y0059641D03*
X0027203Y0085941D03*
X0027203Y0086041D03*
X0027203Y0086141D03*
X0027203Y0086241D03*
X0029503Y0090141D03*
X0029303Y0090541D03*
X0029303Y0090641D03*
X0029203Y0090741D03*
X0029203Y0090841D03*
X0029103Y0090941D03*
X0029103Y0091041D03*
X0029003Y0091241D03*
X0029803Y0093741D03*
X0029803Y0093841D03*
X0029803Y0093941D03*
X0031403Y0092941D03*
X0031403Y0092841D03*
X0031403Y0092741D03*
X0033003Y0096041D03*
X0032903Y0097341D03*
X0033003Y0097441D03*
X0032603Y0099341D03*
X0030803Y0098441D03*
X0030803Y0098341D03*
X0036903Y0103341D03*
X0041003Y0099841D03*
X0044503Y0099441D03*
X0044903Y0100141D03*
X0045603Y0094641D03*
X0045603Y0094541D03*
X0045603Y0094441D03*
X0046803Y0093941D03*
X0046903Y0094141D03*
X0046203Y0090441D03*
X0046203Y0090341D03*
X0046203Y0090241D03*
X0046203Y0090141D03*
X0046203Y0090041D03*
X0046303Y0089641D03*
X0045303Y0089141D03*
X0045203Y0089241D03*
X0045203Y0089341D03*
X0045103Y0089441D03*
D54*
X0045353Y0089041D03*
X0046153Y0090541D03*
X0046153Y0090641D03*
X0046153Y0090741D03*
X0046153Y0090841D03*
X0046753Y0093841D03*
X0046853Y0094041D03*
X0045553Y0094741D03*
X0040253Y0103041D03*
X0036753Y0103241D03*
X0033153Y0097641D03*
X0033053Y0097541D03*
X0030753Y0098141D03*
X0030753Y0098241D03*
X0030653Y0097841D03*
X0029853Y0094341D03*
X0029853Y0094241D03*
X0029853Y0094141D03*
X0029853Y0094041D03*
X0031553Y0093441D03*
X0031553Y0093341D03*
X0031453Y0093141D03*
X0031453Y0093041D03*
X0029353Y0090441D03*
X0029453Y0090341D03*
X0029453Y0090241D03*
X0029553Y0090041D03*
X0029653Y0089941D03*
X0029653Y0089841D03*
X0029753Y0089741D03*
X0029753Y0089641D03*
X0029853Y0089441D03*
X0029953Y0089241D03*
X0030053Y0089141D03*
X0030053Y0089041D03*
X0030153Y0088941D03*
X0030153Y0088841D03*
X0030253Y0088641D03*
X0030353Y0088541D03*
X0030353Y0088441D03*
X0030453Y0088341D03*
X0030553Y0088141D03*
X0030653Y0087941D03*
X0030753Y0087741D03*
X0030853Y0087641D03*
X0030853Y0087541D03*
X0030953Y0087441D03*
X0030953Y0087341D03*
X0031053Y0087241D03*
X0031053Y0087141D03*
X0031153Y0087041D03*
X0031153Y0086941D03*
X0031253Y0086841D03*
X0031353Y0086641D03*
X0031453Y0086441D03*
X0031553Y0086241D03*
X0033453Y0085641D03*
X0033453Y0085541D03*
X0033453Y0085441D03*
X0034253Y0083441D03*
X0034253Y0083341D03*
X0034253Y0083241D03*
X0033153Y0081741D03*
X0035153Y0080541D03*
X0035153Y0080441D03*
X0035253Y0080141D03*
X0035253Y0080041D03*
X0035253Y0079941D03*
X0035253Y0079841D03*
X0035353Y0079741D03*
X0035353Y0079641D03*
X0035353Y0079541D03*
X0035453Y0079241D03*
X0035453Y0079141D03*
X0035453Y0079041D03*
X0035453Y0078941D03*
X0035453Y0078841D03*
X0035453Y0078741D03*
X0035453Y0078241D03*
X0035453Y0078141D03*
X0035453Y0078041D03*
X0034353Y0076541D03*
X0034353Y0076441D03*
X0034353Y0076341D03*
X0034353Y0076241D03*
X0034853Y0074941D03*
X0034953Y0074841D03*
X0036253Y0074841D03*
X0036553Y0072941D03*
X0037953Y0073641D03*
X0036553Y0070141D03*
X0036453Y0070041D03*
X0036353Y0069941D03*
X0036253Y0069741D03*
X0036253Y0069641D03*
X0038153Y0068241D03*
X0038853Y0065841D03*
X0038853Y0065741D03*
X0038853Y0064241D03*
X0038753Y0064041D03*
X0040753Y0066941D03*
X0043153Y0069941D03*
X0046553Y0067741D03*
X0043253Y0063441D03*
X0043253Y0063341D03*
X0041353Y0059641D03*
X0042053Y0055841D03*
X0042053Y0055741D03*
X0045853Y0059741D03*
X0045853Y0059841D03*
X0045853Y0059941D03*
X0045853Y0060041D03*
X0038253Y0060041D03*
X0036253Y0062641D03*
X0031253Y0062641D03*
X0029053Y0060741D03*
X0027753Y0057241D03*
X0027953Y0055741D03*
X0027953Y0055641D03*
X0029153Y0053241D03*
X0029153Y0053141D03*
X0025753Y0055341D03*
X0025553Y0060741D03*
X0024153Y0064341D03*
X0024253Y0064541D03*
X0025053Y0066341D03*
X0024753Y0070341D03*
X0022053Y0074741D03*
X0022153Y0074841D03*
X0023453Y0076641D03*
X0026653Y0076741D03*
X0028853Y0078441D03*
X0029953Y0076741D03*
X0029953Y0076641D03*
X0030353Y0074341D03*
X0030353Y0074241D03*
X0031753Y0073041D03*
X0032753Y0073841D03*
X0031353Y0070041D03*
X0029453Y0069241D03*
X0029453Y0069141D03*
X0029453Y0069041D03*
X0029453Y0068941D03*
X0030953Y0067441D03*
X0030853Y0067241D03*
X0030853Y0067141D03*
X0030853Y0067041D03*
X0031353Y0065841D03*
X0028853Y0066241D03*
X0028853Y0066341D03*
X0028753Y0064541D03*
X0021253Y0061541D03*
X0021253Y0061441D03*
X0021153Y0061241D03*
X0021153Y0061141D03*
X0021053Y0068241D03*
X0031553Y0079141D03*
X0031953Y0078641D03*
X0031953Y0078541D03*
X0033553Y0078541D03*
X0033553Y0078641D03*
X0033553Y0078741D03*
X0033553Y0078841D03*
X0033553Y0078441D03*
X0033553Y0078341D03*
X0033553Y0078241D03*
X0033553Y0078141D03*
X0033453Y0079241D03*
X0038153Y0080741D03*
X0038253Y0082641D03*
X0039453Y0086141D03*
X0039453Y0086241D03*
X0039353Y0086441D03*
X0039353Y0086541D03*
X0042453Y0075841D03*
X0045453Y0075741D03*
X0046553Y0073841D03*
X0046653Y0073741D03*
X0036753Y0053041D03*
X0029253Y0047441D03*
X0027153Y0085841D03*
D55*
X0027253Y0085041D03*
X0027253Y0084941D03*
X0029653Y0082041D03*
X0029653Y0081941D03*
X0029653Y0081841D03*
X0029653Y0081741D03*
X0029653Y0081641D03*
X0029653Y0081541D03*
X0029753Y0081041D03*
X0029753Y0080941D03*
X0029753Y0080841D03*
X0029753Y0080741D03*
X0029853Y0080441D03*
X0031753Y0079041D03*
X0031853Y0078941D03*
X0033353Y0079641D03*
X0033353Y0079741D03*
X0033153Y0081241D03*
X0033153Y0081341D03*
X0032953Y0082141D03*
X0034153Y0083841D03*
X0034753Y0082041D03*
X0035053Y0081241D03*
X0035053Y0081141D03*
X0035053Y0081041D03*
X0035453Y0078541D03*
X0035453Y0078441D03*
X0034353Y0076141D03*
X0034353Y0076041D03*
X0034353Y0075941D03*
X0032753Y0074041D03*
X0034153Y0073441D03*
X0031453Y0069741D03*
X0031453Y0069641D03*
X0031153Y0067841D03*
X0031053Y0067741D03*
X0031053Y0067641D03*
X0029353Y0069641D03*
X0029353Y0069741D03*
X0028753Y0066541D03*
X0028653Y0064841D03*
X0028653Y0064741D03*
X0031153Y0062941D03*
X0031153Y0062841D03*
X0028853Y0060541D03*
X0027753Y0057341D03*
X0027953Y0055541D03*
X0029153Y0053341D03*
X0028953Y0047641D03*
X0034253Y0046641D03*
X0040353Y0056041D03*
X0042053Y0056041D03*
X0042053Y0055941D03*
X0039053Y0056841D03*
X0038453Y0059841D03*
X0036753Y0063241D03*
X0036853Y0063341D03*
X0036853Y0063441D03*
X0036853Y0063541D03*
X0036453Y0062841D03*
X0036353Y0062741D03*
X0038953Y0064441D03*
X0038953Y0064541D03*
X0036853Y0067441D03*
X0036353Y0068841D03*
X0036253Y0069041D03*
X0036253Y0069141D03*
X0038253Y0068541D03*
X0039453Y0071941D03*
X0038053Y0073941D03*
X0038053Y0074041D03*
X0038053Y0074141D03*
X0038053Y0074241D03*
X0040053Y0078041D03*
X0038253Y0081341D03*
X0038253Y0081441D03*
X0038253Y0081541D03*
X0038253Y0081641D03*
X0038153Y0082141D03*
X0038153Y0082241D03*
X0038153Y0082341D03*
X0038153Y0082441D03*
X0038153Y0082541D03*
X0039553Y0085541D03*
X0039553Y0085641D03*
X0039553Y0085741D03*
X0044553Y0090041D03*
X0044453Y0090241D03*
X0046153Y0091041D03*
X0046153Y0091141D03*
X0046153Y0091241D03*
X0046153Y0091341D03*
X0046153Y0091441D03*
X0046153Y0091541D03*
X0046153Y0091641D03*
X0046653Y0093641D03*
X0045653Y0095341D03*
X0045653Y0095441D03*
X0043253Y0096041D03*
X0044653Y0100241D03*
X0040853Y0099941D03*
X0036653Y0103141D03*
X0032853Y0099641D03*
X0033553Y0098041D03*
X0033453Y0097941D03*
X0033353Y0097841D03*
X0030553Y0097441D03*
X0030553Y0097341D03*
X0030553Y0097241D03*
X0030453Y0097141D03*
X0030453Y0097041D03*
X0030453Y0096941D03*
X0030353Y0096741D03*
X0030353Y0096641D03*
X0030253Y0096341D03*
X0030253Y0096241D03*
X0030253Y0096141D03*
X0030153Y0095841D03*
X0030153Y0095741D03*
X0030153Y0095641D03*
X0030053Y0095441D03*
X0030053Y0095341D03*
X0030053Y0095241D03*
X0030053Y0095141D03*
X0031653Y0093941D03*
X0031653Y0093841D03*
X0031753Y0094141D03*
X0033453Y0085941D03*
X0032153Y0084541D03*
X0032253Y0084441D03*
X0026453Y0076641D03*
X0026053Y0075741D03*
X0026953Y0072841D03*
X0030453Y0074541D03*
X0023453Y0076541D03*
X0022353Y0075041D03*
X0021353Y0068641D03*
X0021253Y0068541D03*
X0024053Y0064141D03*
X0024053Y0064041D03*
X0023453Y0063541D03*
X0021353Y0062041D03*
X0021353Y0061941D03*
X0021353Y0061841D03*
X0024553Y0057441D03*
X0025553Y0060441D03*
X0025553Y0060541D03*
X0042353Y0066841D03*
X0042353Y0066941D03*
X0043253Y0069841D03*
X0046353Y0068041D03*
X0043353Y0063041D03*
X0045753Y0060641D03*
X0045753Y0060541D03*
X0045753Y0060441D03*
X0046453Y0074041D03*
X0046353Y0074141D03*
X0046253Y0074241D03*
D56*
X0045703Y0069441D03*
X0046303Y0068141D03*
X0044003Y0062541D03*
X0045603Y0061041D03*
X0045703Y0060941D03*
X0045703Y0060841D03*
X0045703Y0060741D03*
X0041303Y0059541D03*
X0042003Y0056141D03*
X0038603Y0059741D03*
X0036503Y0062941D03*
X0036603Y0063041D03*
X0036703Y0063141D03*
X0036903Y0063641D03*
X0036703Y0065941D03*
X0036903Y0067341D03*
X0036703Y0067941D03*
X0036303Y0068941D03*
X0038303Y0068741D03*
X0038303Y0068641D03*
X0039003Y0064641D03*
X0042403Y0065641D03*
X0042303Y0066641D03*
X0042303Y0066741D03*
X0038103Y0074341D03*
X0038103Y0074441D03*
X0038103Y0074541D03*
X0038103Y0074641D03*
X0038103Y0074741D03*
X0038203Y0074841D03*
X0038203Y0074941D03*
X0038203Y0075041D03*
X0038203Y0075141D03*
X0038303Y0075241D03*
X0038303Y0075341D03*
X0035803Y0073841D03*
X0036403Y0072741D03*
X0034203Y0073341D03*
X0032703Y0074141D03*
X0031903Y0072841D03*
X0030503Y0074641D03*
X0030503Y0074941D03*
X0029903Y0076941D03*
X0029903Y0077041D03*
X0028903Y0078341D03*
X0029803Y0080541D03*
X0029803Y0080641D03*
X0029603Y0082141D03*
X0029603Y0082241D03*
X0027303Y0084341D03*
X0027203Y0084641D03*
X0027203Y0084741D03*
X0027203Y0084841D03*
X0032903Y0082241D03*
X0033103Y0081141D03*
X0033103Y0081041D03*
X0033103Y0080941D03*
X0033203Y0080441D03*
X0033203Y0080341D03*
X0033203Y0080241D03*
X0033203Y0080141D03*
X0033303Y0080041D03*
X0033303Y0079941D03*
X0033303Y0079841D03*
X0035003Y0081341D03*
X0035003Y0081441D03*
X0034903Y0081941D03*
X0034203Y0083941D03*
X0033403Y0086041D03*
X0033403Y0086141D03*
X0031703Y0094041D03*
X0031803Y0094241D03*
X0031803Y0094341D03*
X0031803Y0094441D03*
X0031903Y0094641D03*
X0030103Y0095541D03*
X0030203Y0095941D03*
X0030203Y0096041D03*
X0030303Y0096441D03*
X0030303Y0096541D03*
X0030403Y0096841D03*
X0033003Y0099741D03*
X0033703Y0098141D03*
X0036503Y0103041D03*
X0044803Y0099141D03*
X0044903Y0099041D03*
X0045603Y0096041D03*
X0045603Y0095941D03*
X0045603Y0095841D03*
X0045603Y0095741D03*
X0045603Y0095641D03*
X0045603Y0095541D03*
X0046103Y0091741D03*
X0044403Y0090341D03*
X0044503Y0090141D03*
X0044603Y0089941D03*
X0044603Y0089841D03*
X0039603Y0085441D03*
X0039603Y0085341D03*
X0039603Y0085241D03*
X0034303Y0075841D03*
X0034303Y0075741D03*
X0031503Y0069541D03*
X0031503Y0069441D03*
X0030903Y0066941D03*
X0031203Y0066041D03*
X0031103Y0063141D03*
X0031103Y0063041D03*
X0028603Y0064941D03*
X0028603Y0065041D03*
X0028703Y0060441D03*
X0027903Y0057941D03*
X0027703Y0057441D03*
X0025903Y0056841D03*
X0024603Y0057541D03*
X0021403Y0062141D03*
X0021503Y0062241D03*
X0021503Y0062341D03*
X0024003Y0063941D03*
X0022103Y0070041D03*
X0022403Y0075141D03*
X0022503Y0075241D03*
X0029203Y0070141D03*
X0029303Y0069941D03*
X0029303Y0069841D03*
X0038003Y0055041D03*
X0036803Y0053241D03*
X0029103Y0053441D03*
X0028803Y0047741D03*
D57*
X0027503Y0048841D03*
X0027403Y0048941D03*
X0025503Y0056041D03*
X0032203Y0060141D03*
X0036603Y0064241D03*
X0034003Y0069641D03*
X0034003Y0069741D03*
X0034003Y0069841D03*
X0034103Y0072841D03*
X0035803Y0074541D03*
X0039803Y0077641D03*
X0041103Y0071441D03*
X0041903Y0067341D03*
X0045703Y0068641D03*
X0045003Y0062241D03*
X0045103Y0062141D03*
X0041103Y0057741D03*
X0036503Y0047441D03*
X0025703Y0066741D03*
X0029003Y0078041D03*
X0043103Y0094341D03*
X0043103Y0094441D03*
X0043203Y0094241D03*
X0043203Y0094141D03*
X0043203Y0094041D03*
X0043203Y0093941D03*
X0043403Y0092841D03*
X0043403Y0092541D03*
X0043803Y0091041D03*
X0040303Y0100141D03*
X0040303Y0102941D03*
X0044103Y0100541D03*
X0035003Y0101841D03*
X0034903Y0101741D03*
X0034803Y0101641D03*
X0034703Y0101541D03*
X0034603Y0101441D03*
X0034503Y0101341D03*
X0034403Y0101241D03*
X0034303Y0101141D03*
X0034203Y0101041D03*
X0034103Y0100941D03*
X0034003Y0100841D03*
X0034703Y0098841D03*
D58*
X0035353Y0099041D03*
X0040353Y0102841D03*
X0043153Y0091841D03*
X0039653Y0077241D03*
X0039653Y0077141D03*
X0034053Y0070441D03*
X0033853Y0067541D03*
X0033653Y0067141D03*
X0033653Y0067041D03*
X0033853Y0065641D03*
X0033853Y0063041D03*
X0033853Y0062041D03*
X0037653Y0054041D03*
X0040553Y0058541D03*
X0038753Y0049241D03*
X0026053Y0059041D03*
X0025653Y0051441D03*
X0026253Y0067441D03*
X0026253Y0067541D03*
D59*
X0023103Y0069641D03*
X0023103Y0069741D03*
X0023003Y0069441D03*
X0027503Y0071741D03*
X0034103Y0070841D03*
X0040103Y0059341D03*
X0040203Y0051041D03*
X0028203Y0054741D03*
X0025303Y0052641D03*
X0025403Y0052441D03*
X0025503Y0052241D03*
X0025603Y0052041D03*
X0025603Y0051941D03*
X0025703Y0051841D03*
X0025803Y0051641D03*
X0026503Y0059541D03*
X0044503Y0069341D03*
X0040403Y0102741D03*
D60*
X0040403Y0102641D03*
X0038803Y0100541D03*
X0044103Y0075441D03*
X0044203Y0075341D03*
X0044203Y0075241D03*
X0034103Y0071041D03*
X0033303Y0072641D03*
X0026803Y0059941D03*
X0040503Y0051641D03*
X0040503Y0051541D03*
X0040603Y0051741D03*
D61*
X0035403Y0064341D03*
X0033103Y0068941D03*
X0034103Y0071241D03*
X0042203Y0101541D03*
X0040503Y0102541D03*
D62*
X0035353Y0102141D03*
X0035253Y0102041D03*
X0035153Y0101941D03*
X0035453Y0099541D03*
X0043453Y0092741D03*
X0043453Y0092641D03*
X0043753Y0091141D03*
X0048053Y0087041D03*
X0045553Y0074841D03*
X0043653Y0069441D03*
X0042053Y0066041D03*
X0045153Y0062041D03*
X0041853Y0057041D03*
X0041853Y0056941D03*
X0041153Y0057641D03*
X0039153Y0059441D03*
X0031153Y0064441D03*
X0031653Y0068341D03*
X0032853Y0074841D03*
X0035853Y0074441D03*
X0035853Y0074341D03*
X0035953Y0074241D03*
X0029753Y0077441D03*
X0031553Y0085141D03*
X0031453Y0085241D03*
X0021953Y0069141D03*
X0025653Y0066941D03*
X0025653Y0066841D03*
X0022153Y0063241D03*
X0025553Y0055941D03*
X0025553Y0055841D03*
X0028053Y0060141D03*
X0027653Y0048741D03*
X0035953Y0047141D03*
X0036153Y0047241D03*
X0036353Y0047341D03*
D63*
X0040753Y0101941D03*
D64*
X0041903Y0101641D03*
X0034103Y0071341D03*
X0033103Y0068841D03*
D65*
X0026853Y0060041D03*
X0024553Y0076041D03*
X0024653Y0076141D03*
X0024653Y0076241D03*
X0024753Y0076341D03*
X0024853Y0076441D03*
X0040653Y0051841D03*
X0044253Y0075141D03*
X0042453Y0101441D03*
D66*
X0041453Y0099241D03*
X0046753Y0101341D03*
X0046853Y0101241D03*
X0046853Y0101141D03*
X0038553Y0088541D03*
X0038553Y0088441D03*
X0038653Y0088341D03*
X0040353Y0084141D03*
X0039053Y0076041D03*
X0038953Y0075841D03*
X0036653Y0073341D03*
X0035553Y0073341D03*
X0037453Y0071241D03*
X0037953Y0067741D03*
X0035053Y0063741D03*
X0032853Y0063841D03*
X0032653Y0059741D03*
X0032353Y0058941D03*
X0029953Y0055641D03*
X0028953Y0052341D03*
X0026053Y0057141D03*
X0024053Y0058841D03*
X0026053Y0061341D03*
X0029753Y0062241D03*
X0029753Y0062341D03*
X0029253Y0063841D03*
X0027253Y0068341D03*
X0030753Y0071441D03*
X0030853Y0071341D03*
X0029853Y0075441D03*
X0029853Y0075541D03*
X0029853Y0075641D03*
X0029853Y0075741D03*
X0029853Y0075841D03*
X0029753Y0076041D03*
X0029753Y0076141D03*
X0029753Y0076241D03*
X0030353Y0076341D03*
X0030353Y0076441D03*
X0030453Y0076041D03*
X0030553Y0075741D03*
X0031753Y0077141D03*
X0028953Y0078841D03*
X0026853Y0083141D03*
X0027953Y0088441D03*
X0028053Y0088541D03*
X0029853Y0092141D03*
X0029853Y0092241D03*
X0028153Y0093541D03*
X0028153Y0093641D03*
X0028153Y0093741D03*
X0031953Y0090341D03*
X0032053Y0090441D03*
X0034253Y0087441D03*
X0034153Y0087241D03*
X0034853Y0084441D03*
X0031253Y0100041D03*
X0023653Y0077241D03*
X0020853Y0072341D03*
X0020753Y0072141D03*
X0020753Y0072041D03*
X0020653Y0071741D03*
X0022353Y0070941D03*
X0022453Y0071041D03*
X0020253Y0066241D03*
X0020253Y0066141D03*
X0020153Y0065941D03*
X0020153Y0065841D03*
X0020153Y0065741D03*
X0021453Y0063741D03*
X0021453Y0063641D03*
X0021153Y0058241D03*
X0021153Y0058141D03*
X0021153Y0058041D03*
X0021253Y0057941D03*
X0021253Y0057841D03*
X0021253Y0057741D03*
X0023053Y0053741D03*
X0030153Y0046941D03*
X0036853Y0052041D03*
X0035453Y0059041D03*
X0037653Y0061941D03*
X0037653Y0062041D03*
X0037653Y0062141D03*
X0042853Y0057841D03*
X0042853Y0057741D03*
X0042753Y0054541D03*
X0045253Y0056541D03*
X0045353Y0056641D03*
X0045353Y0056741D03*
X0045853Y0062541D03*
X0047053Y0064941D03*
X0047053Y0065041D03*
X0047053Y0065141D03*
X0047053Y0065241D03*
X0047053Y0065341D03*
X0047053Y0065441D03*
X0045453Y0070441D03*
X0045353Y0070541D03*
X0047553Y0070741D03*
X0047553Y0070841D03*
X0047553Y0070941D03*
X0045153Y0076541D03*
D67*
X0044053Y0075541D03*
X0033253Y0072741D03*
X0026753Y0059841D03*
X0026653Y0059741D03*
X0028053Y0054641D03*
X0040353Y0053541D03*
X0040453Y0051441D03*
X0040353Y0051341D03*
X0038953Y0100441D03*
X0042653Y0101341D03*
D68*
X0042853Y0101241D03*
X0044553Y0069241D03*
X0044553Y0069141D03*
X0040353Y0053441D03*
X0040253Y0051141D03*
X0025553Y0052141D03*
X0025453Y0052341D03*
X0025353Y0052541D03*
X0025253Y0052741D03*
X0025253Y0052841D03*
X0025153Y0052941D03*
X0025153Y0053041D03*
X0025153Y0053141D03*
X0023053Y0069541D03*
D69*
X0023153Y0069841D03*
X0023253Y0069941D03*
X0027553Y0071841D03*
X0033853Y0065341D03*
X0040153Y0059241D03*
X0040253Y0059141D03*
X0040253Y0059041D03*
X0040353Y0053341D03*
X0037953Y0053741D03*
X0026453Y0059441D03*
X0025753Y0051741D03*
X0025853Y0051541D03*
X0043053Y0101141D03*
D70*
X0043203Y0101041D03*
X0038703Y0100741D03*
X0029103Y0077641D03*
X0033503Y0075241D03*
X0034103Y0070641D03*
X0033903Y0065441D03*
X0033903Y0063441D03*
X0033903Y0063241D03*
X0033903Y0061941D03*
X0037803Y0053841D03*
X0040403Y0052541D03*
X0040403Y0052441D03*
X0040103Y0050741D03*
X0040403Y0058841D03*
X0039703Y0076941D03*
X0028403Y0054941D03*
X0025503Y0053741D03*
X0025503Y0053641D03*
D71*
X0023253Y0053441D03*
X0023653Y0055241D03*
X0021053Y0058741D03*
X0021053Y0058841D03*
X0021053Y0058941D03*
X0021053Y0059041D03*
X0021053Y0059141D03*
X0021453Y0063541D03*
X0020353Y0066541D03*
X0020353Y0066641D03*
X0020453Y0066841D03*
X0020453Y0066941D03*
X0022253Y0070741D03*
X0020953Y0072641D03*
X0020953Y0072741D03*
X0021053Y0072841D03*
X0021053Y0072941D03*
X0023553Y0077041D03*
X0026453Y0075541D03*
X0026753Y0073141D03*
X0028653Y0070341D03*
X0029453Y0070841D03*
X0029453Y0070941D03*
X0029353Y0071141D03*
X0029353Y0071241D03*
X0029253Y0071341D03*
X0030253Y0073141D03*
X0030253Y0073241D03*
X0031653Y0073441D03*
X0030753Y0075141D03*
X0030753Y0075241D03*
X0030653Y0075341D03*
X0030653Y0075441D03*
X0030053Y0075041D03*
X0029753Y0076341D03*
X0029753Y0076441D03*
X0029753Y0076541D03*
X0031853Y0077341D03*
X0031853Y0077441D03*
X0032653Y0076341D03*
X0034453Y0077141D03*
X0035553Y0077641D03*
X0035953Y0076241D03*
X0037053Y0077741D03*
X0037053Y0077841D03*
X0037553Y0079441D03*
X0037653Y0079641D03*
X0037753Y0079841D03*
X0040253Y0078541D03*
X0039353Y0076641D03*
X0039253Y0076541D03*
X0039253Y0076441D03*
X0038853Y0075641D03*
X0038753Y0075541D03*
X0038053Y0075841D03*
X0038153Y0076041D03*
X0038153Y0076141D03*
X0038153Y0076241D03*
X0037953Y0073041D03*
X0038553Y0071141D03*
X0038453Y0070941D03*
X0038353Y0070741D03*
X0038253Y0070541D03*
X0037353Y0071041D03*
X0038053Y0067841D03*
X0037553Y0065241D03*
X0037653Y0061841D03*
X0037653Y0061741D03*
X0037653Y0061641D03*
X0037653Y0061541D03*
X0035653Y0059441D03*
X0035553Y0059241D03*
X0036453Y0055041D03*
X0036753Y0052141D03*
X0038453Y0055841D03*
X0038453Y0055941D03*
X0038553Y0056041D03*
X0042453Y0054241D03*
X0042553Y0054341D03*
X0044053Y0053641D03*
X0045453Y0056941D03*
X0045553Y0057141D03*
X0045553Y0057241D03*
X0045653Y0057441D03*
X0045653Y0057541D03*
X0042753Y0057341D03*
X0047053Y0065641D03*
X0047053Y0065741D03*
X0047053Y0065841D03*
X0047053Y0065941D03*
X0047053Y0066041D03*
X0047053Y0066141D03*
X0045653Y0070141D03*
X0047553Y0071241D03*
X0047553Y0071341D03*
X0047553Y0071441D03*
X0047453Y0071841D03*
X0042653Y0070541D03*
X0042553Y0070641D03*
X0042453Y0070741D03*
X0042353Y0070941D03*
X0042253Y0071041D03*
X0039953Y0071041D03*
X0039853Y0070941D03*
X0042453Y0075041D03*
X0041353Y0076741D03*
X0038653Y0083341D03*
X0038753Y0083541D03*
X0038753Y0083641D03*
X0038853Y0083741D03*
X0038853Y0083841D03*
X0038953Y0084041D03*
X0040353Y0084241D03*
X0038853Y0087941D03*
X0038753Y0088141D03*
X0034753Y0084341D03*
X0033953Y0086741D03*
X0034053Y0086941D03*
X0032453Y0087341D03*
X0032453Y0087441D03*
X0032353Y0087541D03*
X0032253Y0087741D03*
X0032153Y0088041D03*
X0032053Y0088241D03*
X0031953Y0088541D03*
X0031853Y0088741D03*
X0031853Y0088841D03*
X0031853Y0088941D03*
X0031853Y0090241D03*
X0031253Y0091641D03*
X0031253Y0091741D03*
X0029753Y0092641D03*
X0029753Y0092741D03*
X0028353Y0092941D03*
X0028353Y0093041D03*
X0028253Y0093141D03*
X0028253Y0093241D03*
X0027753Y0088041D03*
X0027753Y0087941D03*
X0027653Y0087841D03*
X0026953Y0083341D03*
X0028353Y0083341D03*
X0028453Y0083241D03*
X0028553Y0083141D03*
X0028653Y0083041D03*
X0028753Y0082941D03*
X0031553Y0083341D03*
X0030953Y0071141D03*
X0031053Y0070941D03*
X0029253Y0068141D03*
X0028053Y0066941D03*
X0027953Y0067041D03*
X0027153Y0068241D03*
X0026853Y0066341D03*
X0029153Y0063941D03*
X0029653Y0061941D03*
X0029653Y0061841D03*
X0030153Y0065441D03*
X0032153Y0059141D03*
X0032253Y0059041D03*
X0029853Y0055441D03*
X0029853Y0055341D03*
X0027853Y0058041D03*
X0029953Y0047041D03*
X0044153Y0089341D03*
X0044253Y0089541D03*
X0041553Y0095141D03*
X0042453Y0098741D03*
X0041353Y0099441D03*
X0044153Y0099641D03*
X0046953Y0100841D03*
X0046953Y0100941D03*
X0047053Y0100741D03*
X0047053Y0100641D03*
X0033353Y0096141D03*
X0032453Y0096941D03*
X0032153Y0098841D03*
X0031153Y0099641D03*
X0031153Y0099741D03*
D72*
X0035303Y0098941D03*
X0042803Y0093441D03*
X0043403Y0100941D03*
X0029103Y0077741D03*
X0027603Y0072341D03*
X0027603Y0072241D03*
X0034103Y0070541D03*
X0033903Y0063141D03*
X0028503Y0055141D03*
X0025503Y0058741D03*
X0037703Y0053941D03*
X0039403Y0049841D03*
X0039303Y0049741D03*
X0039203Y0049641D03*
X0039103Y0049541D03*
X0039003Y0049441D03*
X0038903Y0049341D03*
X0040503Y0058641D03*
D73*
X0040603Y0058441D03*
X0037603Y0054141D03*
X0038703Y0049141D03*
X0038603Y0049041D03*
X0038503Y0048941D03*
X0038403Y0048841D03*
X0026203Y0067641D03*
X0027603Y0072441D03*
X0025403Y0058641D03*
X0025603Y0051341D03*
X0040403Y0072041D03*
X0039603Y0077341D03*
X0043103Y0091941D03*
X0042903Y0093541D03*
X0043603Y0100841D03*
D74*
X0042803Y0094941D03*
X0038703Y0100841D03*
X0035403Y0099241D03*
X0048003Y0087241D03*
X0045003Y0075041D03*
X0040403Y0072241D03*
X0045303Y0068841D03*
X0040903Y0055241D03*
X0037503Y0054341D03*
X0038103Y0048541D03*
X0033803Y0062141D03*
X0033703Y0066841D03*
X0034003Y0067641D03*
X0026903Y0071541D03*
X0026103Y0068041D03*
X0026103Y0067941D03*
X0025303Y0058541D03*
X0026103Y0050541D03*
X0026203Y0050441D03*
X0026403Y0050141D03*
D75*
X0026353Y0050241D03*
X0026253Y0050341D03*
X0026453Y0050041D03*
X0026553Y0049941D03*
X0025153Y0058441D03*
X0025853Y0058841D03*
X0022353Y0069341D03*
X0027653Y0072741D03*
X0034053Y0070241D03*
X0033953Y0069141D03*
X0033753Y0066741D03*
X0033853Y0066041D03*
X0033853Y0065941D03*
X0033853Y0062741D03*
X0037553Y0054441D03*
X0040853Y0055141D03*
X0040853Y0058141D03*
X0041753Y0065741D03*
X0041653Y0067041D03*
X0040453Y0072341D03*
X0039653Y0077541D03*
X0043253Y0092041D03*
X0042853Y0094841D03*
X0043753Y0100741D03*
X0037953Y0048441D03*
X0037853Y0048341D03*
D76*
X0037453Y0048041D03*
X0037353Y0047941D03*
X0037153Y0047841D03*
X0037453Y0054841D03*
X0037453Y0054941D03*
X0040953Y0057941D03*
X0035053Y0060141D03*
X0033753Y0062341D03*
X0031853Y0068441D03*
X0033953Y0069341D03*
X0029053Y0077941D03*
X0023353Y0075741D03*
X0025753Y0066541D03*
X0025753Y0066441D03*
X0025353Y0056641D03*
X0025453Y0056441D03*
X0026853Y0049541D03*
X0026953Y0049441D03*
X0027053Y0049341D03*
X0041853Y0065841D03*
X0041753Y0067141D03*
X0040453Y0072541D03*
X0048053Y0087141D03*
X0043753Y0090741D03*
X0043353Y0092141D03*
X0043153Y0093041D03*
X0042953Y0094641D03*
X0043953Y0100641D03*
D77*
X0039203Y0100341D03*
X0038703Y0100641D03*
X0034103Y0070941D03*
X0033903Y0065241D03*
X0026603Y0059641D03*
X0025103Y0053341D03*
X0025103Y0053241D03*
X0040303Y0051241D03*
X0044603Y0069041D03*
D78*
X0039653Y0077041D03*
X0033753Y0067441D03*
X0033653Y0067341D03*
X0033653Y0067241D03*
X0033853Y0065541D03*
X0033953Y0063541D03*
X0028453Y0055041D03*
X0025553Y0053541D03*
X0025453Y0053441D03*
X0026153Y0059141D03*
X0026253Y0059241D03*
X0027553Y0072141D03*
X0033553Y0075341D03*
X0040453Y0058741D03*
X0040453Y0053041D03*
X0040453Y0052941D03*
X0040453Y0052841D03*
X0040453Y0052741D03*
X0040453Y0052641D03*
X0040153Y0050641D03*
X0040053Y0050541D03*
X0039953Y0050441D03*
X0039853Y0050341D03*
X0039753Y0050241D03*
X0039653Y0050141D03*
X0039553Y0050041D03*
X0039453Y0049941D03*
X0042753Y0093141D03*
X0042753Y0093241D03*
X0042753Y0093341D03*
X0039653Y0100241D03*
D79*
X0041203Y0099741D03*
X0042703Y0098341D03*
X0042703Y0098241D03*
X0042803Y0098141D03*
X0042903Y0097941D03*
X0043003Y0097741D03*
X0043103Y0097641D03*
X0043103Y0097541D03*
X0043203Y0097441D03*
X0043503Y0096241D03*
X0045503Y0093941D03*
X0045503Y0093841D03*
X0047103Y0094641D03*
X0047103Y0094741D03*
X0047203Y0094841D03*
X0047203Y0094941D03*
X0047203Y0095041D03*
X0047203Y0095141D03*
X0047303Y0095341D03*
X0047303Y0095441D03*
X0047403Y0095841D03*
X0047403Y0095941D03*
X0047503Y0096241D03*
X0047503Y0096341D03*
X0047503Y0096441D03*
X0047503Y0096541D03*
X0047503Y0096641D03*
X0047503Y0096741D03*
X0047503Y0096841D03*
X0047503Y0096941D03*
X0047503Y0098841D03*
X0047503Y0098941D03*
X0047403Y0099341D03*
X0047403Y0099441D03*
X0047403Y0099541D03*
X0047403Y0099641D03*
X0047303Y0099741D03*
X0047303Y0099841D03*
X0047303Y0099941D03*
X0044303Y0099541D03*
X0039103Y0087341D03*
X0039103Y0087241D03*
X0039203Y0087141D03*
X0039203Y0087041D03*
X0038503Y0082941D03*
X0038403Y0082841D03*
X0038003Y0080441D03*
X0037303Y0079041D03*
X0037203Y0078941D03*
X0037003Y0078241D03*
X0036103Y0075841D03*
X0036103Y0075741D03*
X0035503Y0077741D03*
X0034403Y0076941D03*
X0034403Y0076841D03*
X0033403Y0077541D03*
X0033303Y0077441D03*
X0032003Y0077941D03*
X0032003Y0078041D03*
X0032003Y0078141D03*
X0032003Y0078241D03*
X0031203Y0079341D03*
X0031103Y0079441D03*
X0030703Y0079741D03*
X0030603Y0079841D03*
X0028903Y0078641D03*
X0026303Y0075641D03*
X0026803Y0072941D03*
X0028103Y0071041D03*
X0028203Y0070941D03*
X0029503Y0070341D03*
X0029403Y0068541D03*
X0029403Y0068441D03*
X0028503Y0066641D03*
X0028903Y0065841D03*
X0030403Y0065141D03*
X0031403Y0065741D03*
X0028903Y0064141D03*
X0029503Y0061441D03*
X0029403Y0061341D03*
X0029403Y0061241D03*
X0031403Y0062441D03*
X0027903Y0056841D03*
X0027903Y0056741D03*
X0027903Y0056641D03*
X0027903Y0056541D03*
X0027903Y0056141D03*
X0029103Y0052841D03*
X0029103Y0052741D03*
X0024403Y0056841D03*
X0023803Y0054941D03*
X0023903Y0054841D03*
X0021103Y0060241D03*
X0021503Y0063341D03*
X0023003Y0063341D03*
X0024403Y0064941D03*
X0024403Y0065041D03*
X0024503Y0065141D03*
X0024503Y0065241D03*
X0024503Y0065341D03*
X0024603Y0065541D03*
X0024703Y0065741D03*
X0024703Y0065841D03*
X0024803Y0065941D03*
X0027503Y0067341D03*
X0027003Y0068141D03*
X0025003Y0070641D03*
X0022203Y0070541D03*
X0020803Y0067841D03*
X0020703Y0067641D03*
X0020703Y0067541D03*
X0021503Y0073841D03*
X0021503Y0073941D03*
X0021603Y0074041D03*
X0023503Y0076841D03*
X0027003Y0083541D03*
X0027303Y0086641D03*
X0027403Y0086941D03*
X0027403Y0087041D03*
X0027403Y0087141D03*
X0028803Y0091741D03*
X0028703Y0091941D03*
X0028703Y0092041D03*
X0028603Y0092241D03*
X0029803Y0093241D03*
X0029803Y0093341D03*
X0029803Y0093441D03*
X0029803Y0093541D03*
X0031303Y0092341D03*
X0031303Y0092241D03*
X0031303Y0092141D03*
X0031703Y0090041D03*
X0032803Y0086741D03*
X0032903Y0086641D03*
X0033603Y0084841D03*
X0033603Y0084741D03*
X0033603Y0084641D03*
X0033703Y0084541D03*
X0033703Y0084441D03*
X0033703Y0084341D03*
X0033803Y0084241D03*
X0032503Y0076041D03*
X0034203Y0073841D03*
X0031703Y0073241D03*
X0030303Y0073541D03*
X0030303Y0073641D03*
X0030303Y0073741D03*
X0031203Y0070641D03*
X0031203Y0070541D03*
X0037103Y0070741D03*
X0039103Y0071741D03*
X0039503Y0070641D03*
X0041203Y0072841D03*
X0042903Y0070241D03*
X0045803Y0069741D03*
X0046803Y0067141D03*
X0046803Y0067041D03*
X0043203Y0063841D03*
X0043203Y0063741D03*
X0042803Y0065141D03*
X0039903Y0065341D03*
X0039503Y0066341D03*
X0038103Y0068041D03*
X0036803Y0065741D03*
X0037403Y0065141D03*
X0037803Y0060941D03*
X0037903Y0060741D03*
X0035803Y0059941D03*
X0035803Y0059841D03*
X0038303Y0055441D03*
X0036603Y0052641D03*
X0042203Y0054041D03*
X0043103Y0052641D03*
X0043203Y0052741D03*
X0045803Y0058241D03*
X0045803Y0058341D03*
X0045803Y0058441D03*
X0045803Y0058541D03*
X0045703Y0062441D03*
X0041403Y0059941D03*
X0047203Y0072641D03*
X0047203Y0072741D03*
X0047103Y0072841D03*
X0047103Y0072941D03*
X0047003Y0073141D03*
X0045303Y0076041D03*
X0038403Y0076741D03*
X0036603Y0073141D03*
X0025803Y0061141D03*
X0025703Y0061041D03*
X0032703Y0097141D03*
X0032403Y0099141D03*
X0031003Y0099141D03*
X0031003Y0099041D03*
D80*
X0030703Y0098041D03*
X0030703Y0097941D03*
X0030603Y0097741D03*
X0030603Y0097641D03*
X0030603Y0097541D03*
X0030003Y0095041D03*
X0030003Y0094941D03*
X0030003Y0094841D03*
X0029903Y0094741D03*
X0029903Y0094641D03*
X0029903Y0094541D03*
X0029903Y0094441D03*
X0031603Y0093741D03*
X0031603Y0093641D03*
X0031603Y0093541D03*
X0031503Y0093241D03*
X0029803Y0089541D03*
X0029903Y0089341D03*
X0030203Y0088741D03*
X0030503Y0088241D03*
X0030603Y0088041D03*
X0030703Y0087841D03*
X0031903Y0085341D03*
X0032303Y0084341D03*
X0032703Y0083341D03*
X0033003Y0082041D03*
X0033103Y0081941D03*
X0033103Y0081841D03*
X0033203Y0081541D03*
X0033203Y0081441D03*
X0034203Y0083541D03*
X0034203Y0083641D03*
X0034203Y0083741D03*
X0034703Y0082141D03*
X0035103Y0080941D03*
X0035103Y0080841D03*
X0035103Y0080741D03*
X0035103Y0080641D03*
X0035203Y0080341D03*
X0035203Y0080241D03*
X0035503Y0078641D03*
X0035503Y0078341D03*
X0033503Y0078941D03*
X0033503Y0079041D03*
X0033503Y0079141D03*
X0033403Y0079341D03*
X0033403Y0079441D03*
X0033403Y0079541D03*
X0031903Y0078841D03*
X0031903Y0078741D03*
X0030103Y0080241D03*
X0030003Y0080341D03*
X0029703Y0081141D03*
X0029703Y0081241D03*
X0029703Y0081341D03*
X0029703Y0081441D03*
X0029403Y0082541D03*
X0027203Y0085141D03*
X0027203Y0085241D03*
X0027203Y0085341D03*
X0027203Y0085441D03*
X0027203Y0085541D03*
X0027203Y0085641D03*
X0027203Y0085741D03*
X0033403Y0085741D03*
X0033403Y0085841D03*
X0038203Y0082041D03*
X0038203Y0081941D03*
X0038203Y0081841D03*
X0038203Y0081741D03*
X0038303Y0081241D03*
X0038303Y0081141D03*
X0038303Y0081041D03*
X0038303Y0080941D03*
X0038203Y0080841D03*
X0040103Y0078141D03*
X0038003Y0073841D03*
X0038003Y0073741D03*
X0036503Y0072841D03*
X0035703Y0073741D03*
X0034203Y0073541D03*
X0032703Y0073941D03*
X0031803Y0072941D03*
X0030403Y0074441D03*
X0029903Y0076841D03*
X0027703Y0071341D03*
X0029403Y0069541D03*
X0029403Y0069441D03*
X0029403Y0069341D03*
X0031403Y0069841D03*
X0031403Y0069941D03*
X0031003Y0067541D03*
X0030903Y0067341D03*
X0031303Y0065941D03*
X0028803Y0066441D03*
X0028703Y0064641D03*
X0031203Y0062741D03*
X0028903Y0060641D03*
X0026003Y0056941D03*
X0024503Y0057241D03*
X0024503Y0057341D03*
X0024103Y0054641D03*
X0025603Y0060641D03*
X0024103Y0064241D03*
X0021303Y0061741D03*
X0021303Y0061641D03*
X0021103Y0068341D03*
X0021203Y0068441D03*
X0022103Y0070141D03*
X0024603Y0070241D03*
X0022203Y0074941D03*
X0034203Y0067841D03*
X0036203Y0069241D03*
X0036203Y0069341D03*
X0036203Y0069441D03*
X0036203Y0069541D03*
X0036303Y0069841D03*
X0036803Y0067841D03*
X0036903Y0067741D03*
X0036903Y0067641D03*
X0036903Y0067541D03*
X0038203Y0068341D03*
X0038203Y0068441D03*
X0039003Y0066141D03*
X0038903Y0066041D03*
X0038903Y0065941D03*
X0038903Y0064341D03*
X0038803Y0064141D03*
X0036703Y0065841D03*
X0034903Y0063641D03*
X0034603Y0060041D03*
X0038403Y0059941D03*
X0038903Y0057141D03*
X0039003Y0057041D03*
X0039003Y0056941D03*
X0039003Y0056741D03*
X0039003Y0056641D03*
X0040303Y0056141D03*
X0038103Y0055141D03*
X0036803Y0053141D03*
X0041903Y0053841D03*
X0045803Y0060141D03*
X0045803Y0060241D03*
X0045803Y0060341D03*
X0043303Y0063141D03*
X0043303Y0063241D03*
X0042503Y0065541D03*
X0045703Y0069541D03*
X0046403Y0067941D03*
X0046503Y0067841D03*
X0046503Y0073941D03*
X0045403Y0075641D03*
X0039503Y0085841D03*
X0039503Y0085941D03*
X0039503Y0086041D03*
X0039403Y0086341D03*
X0045603Y0094841D03*
X0045603Y0094941D03*
X0045603Y0095041D03*
X0045603Y0095141D03*
X0045603Y0095241D03*
X0046703Y0093741D03*
X0046103Y0090941D03*
X0044703Y0099241D03*
X0044603Y0099341D03*
X0035603Y0099841D03*
X0032803Y0099541D03*
X0032703Y0099441D03*
X0033303Y0097741D03*
X0029103Y0047541D03*
D81*
X0027353Y0049041D03*
X0027253Y0049141D03*
X0025453Y0056141D03*
X0025453Y0056241D03*
X0024953Y0058141D03*
X0032253Y0060241D03*
X0034153Y0067741D03*
X0033953Y0069541D03*
X0034053Y0069941D03*
X0035753Y0074641D03*
X0032953Y0074941D03*
X0040453Y0072741D03*
X0041153Y0071341D03*
X0041953Y0065941D03*
X0041053Y0057841D03*
X0040653Y0054741D03*
X0036753Y0047541D03*
X0045353Y0074941D03*
X0043753Y0090841D03*
X0043753Y0090941D03*
X0043453Y0092441D03*
X0043353Y0092941D03*
X0043153Y0093841D03*
X0043053Y0094541D03*
X0035453Y0099441D03*
D82*
X0035403Y0099341D03*
X0042903Y0094741D03*
X0043003Y0093641D03*
X0040403Y0072441D03*
X0034003Y0070141D03*
X0033903Y0069241D03*
X0033803Y0066641D03*
X0033803Y0066541D03*
X0033803Y0066441D03*
X0033803Y0066341D03*
X0033803Y0066241D03*
X0033803Y0066141D03*
X0033803Y0062641D03*
X0033803Y0062541D03*
X0033803Y0062441D03*
X0033803Y0062241D03*
X0035003Y0060241D03*
X0037503Y0054741D03*
X0037503Y0054641D03*
X0037503Y0054541D03*
X0040803Y0054941D03*
X0040803Y0055041D03*
X0040903Y0058041D03*
X0037703Y0048241D03*
X0037603Y0048141D03*
X0026803Y0049641D03*
X0026703Y0049741D03*
X0026603Y0049841D03*
X0025403Y0056541D03*
X0025103Y0058341D03*
X0026903Y0071641D03*
D83*
X0026853Y0071441D03*
X0027653Y0072541D03*
X0027653Y0072641D03*
X0026153Y0067841D03*
X0026153Y0067741D03*
X0025953Y0058941D03*
X0025653Y0051241D03*
X0025753Y0051141D03*
X0025753Y0051041D03*
X0025853Y0050941D03*
X0025953Y0050841D03*
X0025953Y0050741D03*
X0026053Y0050641D03*
X0033853Y0062841D03*
X0033853Y0062941D03*
X0033853Y0065741D03*
X0033853Y0065841D03*
X0033653Y0066941D03*
X0033953Y0069041D03*
X0034053Y0070341D03*
X0029053Y0077841D03*
X0039553Y0077441D03*
X0040353Y0072141D03*
X0040653Y0058341D03*
X0040753Y0058241D03*
X0040953Y0055441D03*
X0040953Y0055341D03*
X0037553Y0054241D03*
X0038253Y0048741D03*
X0038153Y0048641D03*
X0047953Y0087341D03*
X0035353Y0099141D03*
D84*
X0043103Y0093741D03*
X0043403Y0092341D03*
X0043403Y0092241D03*
X0035703Y0074741D03*
X0034003Y0070041D03*
X0033903Y0069441D03*
X0036003Y0068441D03*
X0040503Y0072641D03*
X0041803Y0067241D03*
X0045503Y0068741D03*
X0044903Y0062341D03*
X0040703Y0054841D03*
X0037003Y0047741D03*
X0036903Y0047641D03*
X0027103Y0049241D03*
X0025403Y0056341D03*
X0025003Y0058241D03*
X0025703Y0066641D03*
X0022103Y0069241D03*
X0031203Y0064541D03*
D85*
X0034103Y0070741D03*
X0029103Y0077541D03*
X0044903Y0068941D03*
X0040203Y0050941D03*
X0028303Y0054841D03*
D86*
X0027803Y0054541D03*
X0034103Y0071141D03*
X0024503Y0075941D03*
X0040803Y0052041D03*
X0040703Y0051941D03*
D87*
X0040853Y0052141D03*
X0040953Y0052241D03*
X0040953Y0052341D03*
X0033953Y0065141D03*
X0024453Y0075841D03*
D88*
X0027553Y0072041D03*
X0027553Y0071941D03*
X0033553Y0075041D03*
X0033553Y0075141D03*
X0033953Y0063341D03*
X0040353Y0058941D03*
X0040453Y0053241D03*
X0040453Y0053141D03*
X0040153Y0050841D03*
X0026353Y0059341D03*
X0025553Y0053841D03*
D89*
X0033653Y0060641D03*
X0034153Y0071841D03*
D90*
X0034153Y0071541D03*
X0035153Y0064541D03*
D91*
X0035253Y0064441D03*
X0034153Y0071441D03*
D92*
X0033553Y0061841D03*
X0039253Y0053641D03*
X0026853Y0053941D03*
X0026853Y0054041D03*
X0026853Y0054141D03*
D93*
X0033753Y0060341D03*
D94*
X0032221Y0043928D02*
X0032221Y0040491D01*
X0031267Y0040491D01*
X0031267Y0040490D02*
X0031222Y0040492D01*
X0031177Y0040497D01*
X0031133Y0040506D01*
X0031090Y0040518D01*
X0031048Y0040534D01*
X0031007Y0040552D01*
X0030968Y0040574D01*
X0030930Y0040599D01*
X0030895Y0040627D01*
X0030862Y0040658D01*
X0030831Y0040691D01*
X0030803Y0040726D01*
X0030778Y0040764D01*
X0030756Y0040803D01*
X0030738Y0040844D01*
X0030722Y0040886D01*
X0030710Y0040929D01*
X0030701Y0040973D01*
X0030696Y0041018D01*
X0030694Y0041063D01*
X0030694Y0042209D01*
X0030696Y0042254D01*
X0030701Y0042299D01*
X0030710Y0042343D01*
X0030722Y0042386D01*
X0030738Y0042428D01*
X0030756Y0042469D01*
X0030778Y0042508D01*
X0030803Y0042546D01*
X0030831Y0042581D01*
X0030862Y0042614D01*
X0030895Y0042645D01*
X0030930Y0042673D01*
X0030968Y0042698D01*
X0031007Y0042720D01*
X0031048Y0042738D01*
X0031090Y0042754D01*
X0031133Y0042766D01*
X0031177Y0042775D01*
X0031222Y0042780D01*
X0031267Y0042782D01*
X0032221Y0042782D01*
X0033907Y0042018D02*
X0033907Y0041636D01*
X0035434Y0041636D01*
X0035434Y0042018D02*
X0035434Y0041063D01*
X0035432Y0041018D01*
X0035427Y0040973D01*
X0035418Y0040929D01*
X0035406Y0040886D01*
X0035390Y0040844D01*
X0035372Y0040803D01*
X0035350Y0040764D01*
X0035325Y0040726D01*
X0035297Y0040691D01*
X0035266Y0040658D01*
X0035233Y0040627D01*
X0035198Y0040599D01*
X0035160Y0040574D01*
X0035121Y0040552D01*
X0035080Y0040534D01*
X0035038Y0040518D01*
X0034995Y0040506D01*
X0034951Y0040497D01*
X0034906Y0040492D01*
X0034861Y0040490D01*
X0034861Y0040491D02*
X0033907Y0040491D01*
X0033906Y0042018D02*
X0033908Y0042073D01*
X0033914Y0042127D01*
X0033923Y0042180D01*
X0033937Y0042233D01*
X0033954Y0042285D01*
X0033975Y0042335D01*
X0033999Y0042384D01*
X0034027Y0042431D01*
X0034058Y0042476D01*
X0034093Y0042518D01*
X0034130Y0042558D01*
X0034170Y0042595D01*
X0034212Y0042630D01*
X0034257Y0042661D01*
X0034304Y0042689D01*
X0034353Y0042713D01*
X0034403Y0042734D01*
X0034455Y0042751D01*
X0034508Y0042765D01*
X0034561Y0042774D01*
X0034615Y0042780D01*
X0034670Y0042782D01*
X0034725Y0042780D01*
X0034779Y0042774D01*
X0034832Y0042765D01*
X0034885Y0042751D01*
X0034937Y0042734D01*
X0034987Y0042713D01*
X0035036Y0042689D01*
X0035083Y0042661D01*
X0035128Y0042630D01*
X0035170Y0042595D01*
X0035210Y0042558D01*
X0035247Y0042518D01*
X0035282Y0042476D01*
X0035313Y0042431D01*
X0035341Y0042384D01*
X0035365Y0042335D01*
X0035386Y0042285D01*
X0035403Y0042233D01*
X0035417Y0042180D01*
X0035426Y0042127D01*
X0035432Y0042073D01*
X0035434Y0042018D01*
X0036624Y0042400D02*
X0036624Y0042782D01*
X0037770Y0042782D01*
X0037770Y0040491D01*
X0040867Y0040109D02*
X0039340Y0044310D01*
X0042174Y0044310D02*
X0043702Y0040109D01*
X0045087Y0040777D02*
X0045278Y0040777D01*
X0045278Y0040968D01*
X0045087Y0040968D01*
X0045087Y0040777D01*
X0045087Y0042305D02*
X0045278Y0042305D01*
X0045278Y0042496D01*
X0045087Y0042496D01*
X0045087Y0042305D01*
X0046757Y0042209D02*
X0046757Y0041063D01*
X0046759Y0041018D01*
X0046764Y0040973D01*
X0046773Y0040929D01*
X0046785Y0040886D01*
X0046801Y0040844D01*
X0046819Y0040803D01*
X0046841Y0040764D01*
X0046866Y0040726D01*
X0046894Y0040691D01*
X0046925Y0040658D01*
X0046958Y0040627D01*
X0046993Y0040599D01*
X0047031Y0040574D01*
X0047070Y0040552D01*
X0047111Y0040534D01*
X0047153Y0040518D01*
X0047196Y0040506D01*
X0047240Y0040497D01*
X0047285Y0040492D01*
X0047330Y0040490D01*
X0047330Y0040491D02*
X0048284Y0040491D01*
X0048284Y0039345D02*
X0048284Y0042782D01*
X0047330Y0042782D01*
X0047285Y0042780D01*
X0047240Y0042775D01*
X0047196Y0042766D01*
X0047153Y0042754D01*
X0047111Y0042738D01*
X0047070Y0042720D01*
X0047031Y0042698D01*
X0046993Y0042673D01*
X0046958Y0042645D01*
X0046925Y0042614D01*
X0046894Y0042581D01*
X0046866Y0042546D01*
X0046841Y0042508D01*
X0046819Y0042469D01*
X0046801Y0042428D01*
X0046785Y0042386D01*
X0046773Y0042343D01*
X0046764Y0042299D01*
X0046759Y0042254D01*
X0046757Y0042209D01*
X0049843Y0042782D02*
X0050989Y0042782D01*
X0052087Y0042782D02*
X0053233Y0042782D01*
X0052851Y0043928D02*
X0052851Y0041063D01*
X0052849Y0041018D01*
X0052844Y0040973D01*
X0052835Y0040929D01*
X0052823Y0040886D01*
X0052807Y0040844D01*
X0052789Y0040803D01*
X0052767Y0040764D01*
X0052742Y0040726D01*
X0052714Y0040691D01*
X0052683Y0040658D01*
X0052650Y0040627D01*
X0052615Y0040599D01*
X0052577Y0040574D01*
X0052538Y0040552D01*
X0052497Y0040534D01*
X0052455Y0040518D01*
X0052412Y0040506D01*
X0052368Y0040497D01*
X0052323Y0040492D01*
X0052278Y0040490D01*
X0052278Y0040491D02*
X0052087Y0040491D01*
X0050607Y0041063D02*
X0050607Y0043928D01*
X0050607Y0041063D02*
X0050605Y0041018D01*
X0050600Y0040973D01*
X0050591Y0040929D01*
X0050579Y0040886D01*
X0050563Y0040844D01*
X0050545Y0040803D01*
X0050523Y0040764D01*
X0050498Y0040726D01*
X0050470Y0040691D01*
X0050439Y0040658D01*
X0050406Y0040627D01*
X0050371Y0040599D01*
X0050333Y0040574D01*
X0050294Y0040552D01*
X0050253Y0040534D01*
X0050211Y0040518D01*
X0050168Y0040506D01*
X0050124Y0040497D01*
X0050079Y0040492D01*
X0050034Y0040490D01*
X0050034Y0040491D02*
X0049843Y0040491D01*
X0054576Y0040491D02*
X0054576Y0042209D01*
X0054578Y0042254D01*
X0054583Y0042299D01*
X0054592Y0042343D01*
X0054604Y0042386D01*
X0054620Y0042428D01*
X0054638Y0042469D01*
X0054660Y0042508D01*
X0054685Y0042546D01*
X0054713Y0042581D01*
X0054744Y0042614D01*
X0054777Y0042645D01*
X0054812Y0042673D01*
X0054850Y0042698D01*
X0054889Y0042720D01*
X0054930Y0042738D01*
X0054972Y0042754D01*
X0055015Y0042766D01*
X0055059Y0042775D01*
X0055104Y0042780D01*
X0055149Y0042782D01*
X0056103Y0042782D01*
X0056103Y0043928D02*
X0056103Y0040491D01*
X0042903Y0029133D02*
X0042903Y0025696D01*
X0041949Y0025696D01*
X0041889Y0025698D01*
X0041829Y0025704D01*
X0041770Y0025713D01*
X0041712Y0025726D01*
X0041654Y0025743D01*
X0041597Y0025763D01*
X0041542Y0025787D01*
X0041489Y0025814D01*
X0041437Y0025845D01*
X0041388Y0025878D01*
X0041340Y0025915D01*
X0041295Y0025955D01*
X0041253Y0025997D01*
X0041213Y0026042D01*
X0041176Y0026090D01*
X0041143Y0026139D01*
X0041112Y0026191D01*
X0041085Y0026244D01*
X0041061Y0026299D01*
X0041041Y0026356D01*
X0041024Y0026414D01*
X0041011Y0026472D01*
X0041002Y0026531D01*
X0040996Y0026591D01*
X0040994Y0026651D01*
X0040996Y0026711D01*
X0041002Y0026771D01*
X0041011Y0026830D01*
X0041024Y0026888D01*
X0041041Y0026946D01*
X0041061Y0027003D01*
X0041085Y0027058D01*
X0041112Y0027111D01*
X0041143Y0027163D01*
X0041176Y0027212D01*
X0041213Y0027260D01*
X0041253Y0027305D01*
X0041295Y0027347D01*
X0041340Y0027387D01*
X0041388Y0027424D01*
X0041437Y0027457D01*
X0041489Y0027488D01*
X0041542Y0027515D01*
X0041597Y0027539D01*
X0041654Y0027559D01*
X0041712Y0027576D01*
X0041770Y0027589D01*
X0041829Y0027598D01*
X0041889Y0027604D01*
X0041949Y0027606D01*
X0042903Y0027606D01*
X0041949Y0027605D02*
X0041894Y0027607D01*
X0041840Y0027613D01*
X0041787Y0027622D01*
X0041734Y0027636D01*
X0041682Y0027653D01*
X0041632Y0027674D01*
X0041583Y0027698D01*
X0041536Y0027726D01*
X0041491Y0027757D01*
X0041449Y0027792D01*
X0041409Y0027829D01*
X0041372Y0027869D01*
X0041337Y0027911D01*
X0041306Y0027956D01*
X0041278Y0028003D01*
X0041254Y0028052D01*
X0041233Y0028102D01*
X0041216Y0028154D01*
X0041202Y0028207D01*
X0041193Y0028260D01*
X0041187Y0028314D01*
X0041185Y0028369D01*
X0041187Y0028424D01*
X0041193Y0028478D01*
X0041202Y0028531D01*
X0041216Y0028584D01*
X0041233Y0028636D01*
X0041254Y0028686D01*
X0041278Y0028735D01*
X0041306Y0028782D01*
X0041337Y0028827D01*
X0041372Y0028869D01*
X0041409Y0028909D01*
X0041449Y0028946D01*
X0041491Y0028981D01*
X0041536Y0029012D01*
X0041583Y0029040D01*
X0041632Y0029064D01*
X0041682Y0029085D01*
X0041734Y0029102D01*
X0041787Y0029116D01*
X0041840Y0029125D01*
X0041894Y0029131D01*
X0041949Y0029133D01*
X0042903Y0029133D01*
X0039709Y0027987D02*
X0038946Y0025696D01*
X0039328Y0024550D02*
X0038182Y0027987D01*
X0035013Y0029133D02*
X0033867Y0027510D01*
X0033867Y0025696D01*
X0033867Y0027510D02*
X0032721Y0029133D01*
X0031324Y0027224D02*
X0031324Y0026460D01*
X0031322Y0026405D01*
X0031316Y0026351D01*
X0031307Y0026298D01*
X0031293Y0026245D01*
X0031276Y0026193D01*
X0031255Y0026143D01*
X0031231Y0026094D01*
X0031203Y0026047D01*
X0031172Y0026002D01*
X0031137Y0025960D01*
X0031100Y0025920D01*
X0031060Y0025883D01*
X0031018Y0025848D01*
X0030973Y0025817D01*
X0030926Y0025789D01*
X0030877Y0025765D01*
X0030827Y0025744D01*
X0030775Y0025727D01*
X0030722Y0025713D01*
X0030669Y0025704D01*
X0030615Y0025698D01*
X0030560Y0025696D01*
X0030505Y0025698D01*
X0030451Y0025704D01*
X0030398Y0025713D01*
X0030345Y0025727D01*
X0030293Y0025744D01*
X0030243Y0025765D01*
X0030194Y0025789D01*
X0030147Y0025817D01*
X0030102Y0025848D01*
X0030060Y0025883D01*
X0030020Y0025920D01*
X0029983Y0025960D01*
X0029948Y0026002D01*
X0029917Y0026047D01*
X0029889Y0026094D01*
X0029865Y0026143D01*
X0029844Y0026193D01*
X0029827Y0026245D01*
X0029813Y0026298D01*
X0029804Y0026351D01*
X0029798Y0026405D01*
X0029796Y0026460D01*
X0029796Y0027224D01*
X0029798Y0027279D01*
X0029804Y0027333D01*
X0029813Y0027386D01*
X0029827Y0027439D01*
X0029844Y0027491D01*
X0029865Y0027541D01*
X0029889Y0027590D01*
X0029917Y0027637D01*
X0029948Y0027682D01*
X0029983Y0027724D01*
X0030020Y0027764D01*
X0030060Y0027801D01*
X0030102Y0027836D01*
X0030147Y0027867D01*
X0030194Y0027895D01*
X0030243Y0027919D01*
X0030293Y0027940D01*
X0030345Y0027957D01*
X0030398Y0027971D01*
X0030451Y0027980D01*
X0030505Y0027986D01*
X0030560Y0027988D01*
X0030615Y0027986D01*
X0030669Y0027980D01*
X0030722Y0027971D01*
X0030775Y0027957D01*
X0030827Y0027940D01*
X0030877Y0027919D01*
X0030926Y0027895D01*
X0030973Y0027867D01*
X0031018Y0027836D01*
X0031060Y0027801D01*
X0031100Y0027764D01*
X0031137Y0027724D01*
X0031172Y0027682D01*
X0031203Y0027637D01*
X0031231Y0027590D01*
X0031255Y0027541D01*
X0031276Y0027491D01*
X0031293Y0027439D01*
X0031307Y0027386D01*
X0031316Y0027333D01*
X0031322Y0027279D01*
X0031324Y0027224D01*
X0027966Y0027033D02*
X0027012Y0026651D01*
X0027011Y0026651D02*
X0026971Y0026632D01*
X0026932Y0026611D01*
X0026896Y0026585D01*
X0026862Y0026557D01*
X0026830Y0026526D01*
X0026802Y0026492D01*
X0026777Y0026455D01*
X0026755Y0026417D01*
X0026736Y0026377D01*
X0026721Y0026335D01*
X0026710Y0026292D01*
X0026703Y0026248D01*
X0026700Y0026204D01*
X0026701Y0026160D01*
X0026706Y0026116D01*
X0026714Y0026072D01*
X0026727Y0026030D01*
X0026743Y0025989D01*
X0026763Y0025949D01*
X0026787Y0025911D01*
X0026813Y0025876D01*
X0026843Y0025843D01*
X0026875Y0025813D01*
X0026910Y0025786D01*
X0026948Y0025762D01*
X0026987Y0025742D01*
X0027028Y0025725D01*
X0027070Y0025712D01*
X0027114Y0025703D01*
X0027158Y0025697D01*
X0027202Y0025696D01*
X0026916Y0027796D02*
X0026997Y0027831D01*
X0027080Y0027862D01*
X0027164Y0027890D01*
X0027250Y0027914D01*
X0027336Y0027935D01*
X0027423Y0027953D01*
X0027510Y0027967D01*
X0027598Y0027977D01*
X0027686Y0027984D01*
X0027775Y0027987D01*
X0027819Y0027986D01*
X0027863Y0027980D01*
X0027907Y0027971D01*
X0027949Y0027958D01*
X0027990Y0027941D01*
X0028029Y0027921D01*
X0028067Y0027897D01*
X0028102Y0027870D01*
X0028134Y0027840D01*
X0028164Y0027807D01*
X0028190Y0027772D01*
X0028214Y0027734D01*
X0028234Y0027694D01*
X0028250Y0027653D01*
X0028263Y0027611D01*
X0028271Y0027567D01*
X0028276Y0027523D01*
X0028277Y0027479D01*
X0028274Y0027435D01*
X0028267Y0027391D01*
X0028256Y0027348D01*
X0028241Y0027306D01*
X0028222Y0027266D01*
X0028200Y0027228D01*
X0028175Y0027191D01*
X0028147Y0027157D01*
X0028115Y0027126D01*
X0028081Y0027098D01*
X0028045Y0027072D01*
X0028006Y0027051D01*
X0027966Y0027032D01*
X0028252Y0025887D02*
X0028151Y0025853D01*
X0028048Y0025821D01*
X0027945Y0025794D01*
X0027840Y0025769D01*
X0027735Y0025748D01*
X0027629Y0025731D01*
X0027523Y0025717D01*
X0027416Y0025706D01*
X0027309Y0025700D01*
X0027202Y0025696D01*
X0025064Y0025696D02*
X0025064Y0029133D01*
X0025064Y0027987D02*
X0024109Y0027987D01*
X0024109Y0027988D02*
X0024064Y0027986D01*
X0024019Y0027981D01*
X0023975Y0027972D01*
X0023932Y0027960D01*
X0023890Y0027944D01*
X0023849Y0027926D01*
X0023810Y0027904D01*
X0023772Y0027879D01*
X0023737Y0027851D01*
X0023704Y0027820D01*
X0023673Y0027787D01*
X0023645Y0027752D01*
X0023620Y0027714D01*
X0023598Y0027675D01*
X0023580Y0027634D01*
X0023564Y0027592D01*
X0023552Y0027549D01*
X0023543Y0027505D01*
X0023538Y0027460D01*
X0023536Y0027415D01*
X0023536Y0025696D01*
X0021938Y0025696D02*
X0021938Y0027987D01*
X0021842Y0028942D02*
X0022033Y0028942D01*
X0022033Y0029133D01*
X0021842Y0029133D01*
X0021842Y0028942D01*
X0020339Y0029133D02*
X0020339Y0025696D01*
X0018812Y0027415D02*
X0018814Y0027460D01*
X0018819Y0027505D01*
X0018828Y0027549D01*
X0018840Y0027592D01*
X0018856Y0027634D01*
X0018874Y0027675D01*
X0018896Y0027714D01*
X0018921Y0027752D01*
X0018949Y0027787D01*
X0018980Y0027820D01*
X0019013Y0027851D01*
X0019048Y0027879D01*
X0019086Y0027904D01*
X0019125Y0027926D01*
X0019166Y0027944D01*
X0019208Y0027960D01*
X0019251Y0027972D01*
X0019295Y0027981D01*
X0019340Y0027986D01*
X0019385Y0027988D01*
X0019385Y0027987D02*
X0020339Y0027987D01*
X0018812Y0027415D02*
X0018812Y0025696D01*
X0017213Y0025696D02*
X0017213Y0027987D01*
X0017118Y0028942D02*
X0017309Y0028942D01*
X0017309Y0029133D01*
X0017118Y0029133D01*
X0017118Y0028942D01*
X0015588Y0027987D02*
X0014443Y0027987D01*
X0014443Y0027606D01*
X0015588Y0027987D02*
X0015588Y0025696D01*
X0015188Y0023228D02*
X0014997Y0023228D01*
X0014997Y0023037D01*
X0015188Y0023037D01*
X0015188Y0023228D01*
X0015092Y0022082D02*
X0015092Y0019791D01*
X0016691Y0019791D02*
X0016691Y0021509D01*
X0016693Y0021554D01*
X0016698Y0021599D01*
X0016707Y0021643D01*
X0016719Y0021686D01*
X0016735Y0021728D01*
X0016753Y0021769D01*
X0016775Y0021808D01*
X0016800Y0021846D01*
X0016828Y0021881D01*
X0016859Y0021914D01*
X0016892Y0021945D01*
X0016927Y0021973D01*
X0016965Y0021998D01*
X0017004Y0022020D01*
X0017045Y0022038D01*
X0017087Y0022054D01*
X0017130Y0022066D01*
X0017174Y0022075D01*
X0017219Y0022080D01*
X0017264Y0022082D01*
X0018218Y0022082D01*
X0018218Y0023228D02*
X0018218Y0019791D01*
X0020166Y0020745D02*
X0021121Y0021127D01*
X0021161Y0021146D01*
X0021200Y0021167D01*
X0021236Y0021193D01*
X0021270Y0021221D01*
X0021302Y0021252D01*
X0021330Y0021286D01*
X0021355Y0021323D01*
X0021377Y0021361D01*
X0021396Y0021401D01*
X0021411Y0021443D01*
X0021422Y0021486D01*
X0021429Y0021530D01*
X0021432Y0021574D01*
X0021431Y0021618D01*
X0021426Y0021662D01*
X0021418Y0021706D01*
X0021405Y0021748D01*
X0021389Y0021789D01*
X0021369Y0021829D01*
X0021345Y0021867D01*
X0021319Y0021902D01*
X0021289Y0021935D01*
X0021257Y0021965D01*
X0021222Y0021992D01*
X0021184Y0022016D01*
X0021145Y0022036D01*
X0021104Y0022053D01*
X0021062Y0022066D01*
X0021018Y0022075D01*
X0020974Y0022081D01*
X0020930Y0022082D01*
X0021407Y0019982D02*
X0021306Y0019948D01*
X0021203Y0019916D01*
X0021100Y0019889D01*
X0020995Y0019864D01*
X0020890Y0019843D01*
X0020784Y0019826D01*
X0020678Y0019812D01*
X0020571Y0019801D01*
X0020464Y0019795D01*
X0020357Y0019791D01*
X0020313Y0019792D01*
X0020269Y0019798D01*
X0020225Y0019807D01*
X0020183Y0019820D01*
X0020142Y0019837D01*
X0020103Y0019857D01*
X0020065Y0019881D01*
X0020030Y0019908D01*
X0019998Y0019938D01*
X0019968Y0019971D01*
X0019942Y0020006D01*
X0019918Y0020044D01*
X0019898Y0020084D01*
X0019882Y0020125D01*
X0019869Y0020167D01*
X0019861Y0020211D01*
X0019856Y0020255D01*
X0019855Y0020299D01*
X0019858Y0020343D01*
X0019865Y0020387D01*
X0019876Y0020430D01*
X0019891Y0020472D01*
X0019910Y0020512D01*
X0019932Y0020550D01*
X0019957Y0020587D01*
X0019985Y0020621D01*
X0020017Y0020652D01*
X0020051Y0020680D01*
X0020087Y0020706D01*
X0020126Y0020727D01*
X0020166Y0020746D01*
X0020071Y0021891D02*
X0020152Y0021926D01*
X0020235Y0021957D01*
X0020319Y0021985D01*
X0020405Y0022009D01*
X0020491Y0022030D01*
X0020578Y0022048D01*
X0020665Y0022062D01*
X0020753Y0022072D01*
X0020841Y0022079D01*
X0020930Y0022082D01*
X0022951Y0021318D02*
X0022951Y0020554D01*
X0022950Y0020554D02*
X0022952Y0020499D01*
X0022958Y0020445D01*
X0022967Y0020392D01*
X0022981Y0020339D01*
X0022998Y0020287D01*
X0023019Y0020237D01*
X0023043Y0020188D01*
X0023071Y0020141D01*
X0023102Y0020096D01*
X0023137Y0020054D01*
X0023174Y0020014D01*
X0023214Y0019977D01*
X0023256Y0019942D01*
X0023301Y0019911D01*
X0023348Y0019883D01*
X0023397Y0019859D01*
X0023447Y0019838D01*
X0023499Y0019821D01*
X0023552Y0019807D01*
X0023605Y0019798D01*
X0023659Y0019792D01*
X0023714Y0019790D01*
X0023769Y0019792D01*
X0023823Y0019798D01*
X0023876Y0019807D01*
X0023929Y0019821D01*
X0023981Y0019838D01*
X0024031Y0019859D01*
X0024080Y0019883D01*
X0024127Y0019911D01*
X0024172Y0019942D01*
X0024214Y0019977D01*
X0024254Y0020014D01*
X0024291Y0020054D01*
X0024326Y0020096D01*
X0024357Y0020141D01*
X0024385Y0020188D01*
X0024409Y0020237D01*
X0024430Y0020287D01*
X0024447Y0020339D01*
X0024461Y0020392D01*
X0024470Y0020445D01*
X0024476Y0020499D01*
X0024478Y0020554D01*
X0024478Y0021318D01*
X0024476Y0021373D01*
X0024470Y0021427D01*
X0024461Y0021480D01*
X0024447Y0021533D01*
X0024430Y0021585D01*
X0024409Y0021635D01*
X0024385Y0021684D01*
X0024357Y0021731D01*
X0024326Y0021776D01*
X0024291Y0021818D01*
X0024254Y0021858D01*
X0024214Y0021895D01*
X0024172Y0021930D01*
X0024127Y0021961D01*
X0024080Y0021989D01*
X0024031Y0022013D01*
X0023981Y0022034D01*
X0023929Y0022051D01*
X0023876Y0022065D01*
X0023823Y0022074D01*
X0023769Y0022080D01*
X0023714Y0022082D01*
X0023659Y0022080D01*
X0023605Y0022074D01*
X0023552Y0022065D01*
X0023499Y0022051D01*
X0023447Y0022034D01*
X0023397Y0022013D01*
X0023348Y0021989D01*
X0023301Y0021961D01*
X0023256Y0021930D01*
X0023214Y0021895D01*
X0023174Y0021858D01*
X0023137Y0021818D01*
X0023102Y0021776D01*
X0023071Y0021731D01*
X0023043Y0021684D01*
X0023019Y0021635D01*
X0022998Y0021585D01*
X0022981Y0021533D01*
X0022967Y0021480D01*
X0022958Y0021427D01*
X0022952Y0021373D01*
X0022950Y0021318D01*
X0025998Y0021509D02*
X0025998Y0020363D01*
X0026000Y0020318D01*
X0026005Y0020273D01*
X0026014Y0020229D01*
X0026026Y0020186D01*
X0026042Y0020144D01*
X0026060Y0020103D01*
X0026082Y0020064D01*
X0026107Y0020026D01*
X0026135Y0019991D01*
X0026166Y0019958D01*
X0026199Y0019927D01*
X0026234Y0019899D01*
X0026272Y0019874D01*
X0026311Y0019852D01*
X0026352Y0019834D01*
X0026394Y0019818D01*
X0026437Y0019806D01*
X0026481Y0019797D01*
X0026526Y0019792D01*
X0026571Y0019790D01*
X0026571Y0019791D02*
X0027525Y0019791D01*
X0027525Y0023228D01*
X0027525Y0022082D02*
X0026571Y0022082D01*
X0026526Y0022080D01*
X0026481Y0022075D01*
X0026437Y0022066D01*
X0026394Y0022054D01*
X0026352Y0022038D01*
X0026311Y0022020D01*
X0026272Y0021998D01*
X0026234Y0021973D01*
X0026199Y0021945D01*
X0026166Y0021914D01*
X0026135Y0021881D01*
X0026107Y0021846D01*
X0026082Y0021808D01*
X0026060Y0021769D01*
X0026042Y0021728D01*
X0026026Y0021686D01*
X0026014Y0021643D01*
X0026005Y0021599D01*
X0026000Y0021554D01*
X0025998Y0021509D01*
X0029351Y0020650D02*
X0031070Y0020650D01*
X0031356Y0019791D02*
X0030210Y0023228D01*
X0029065Y0019791D01*
X0034176Y0020936D02*
X0035608Y0019886D01*
X0035639Y0019865D01*
X0035673Y0019845D01*
X0035707Y0019829D01*
X0035743Y0019815D01*
X0035780Y0019805D01*
X0035818Y0019797D01*
X0035856Y0019793D01*
X0035894Y0019791D01*
X0035894Y0019790D02*
X0035939Y0019792D01*
X0035984Y0019797D01*
X0036028Y0019806D01*
X0036071Y0019818D01*
X0036113Y0019834D01*
X0036154Y0019852D01*
X0036193Y0019874D01*
X0036231Y0019899D01*
X0036266Y0019927D01*
X0036299Y0019958D01*
X0036330Y0019991D01*
X0036358Y0020026D01*
X0036383Y0020064D01*
X0036405Y0020103D01*
X0036423Y0020144D01*
X0036439Y0020186D01*
X0036451Y0020229D01*
X0036460Y0020273D01*
X0036465Y0020318D01*
X0036467Y0020363D01*
X0036372Y0020650D02*
X0035226Y0022368D01*
X0035227Y0022368D02*
X0035204Y0022408D01*
X0035185Y0022450D01*
X0035169Y0022493D01*
X0035157Y0022537D01*
X0035148Y0022582D01*
X0035143Y0022628D01*
X0035142Y0022674D01*
X0035145Y0022720D01*
X0035151Y0022766D01*
X0035161Y0022810D01*
X0035175Y0022854D01*
X0035192Y0022897D01*
X0035213Y0022938D01*
X0035237Y0022977D01*
X0035264Y0023014D01*
X0035294Y0023049D01*
X0035327Y0023081D01*
X0035362Y0023111D01*
X0035399Y0023137D01*
X0035439Y0023161D01*
X0035480Y0023181D01*
X0035523Y0023197D01*
X0035567Y0023210D01*
X0035612Y0023219D01*
X0035658Y0023225D01*
X0035704Y0023227D01*
X0035750Y0023225D01*
X0035796Y0023219D01*
X0035841Y0023210D01*
X0035885Y0023197D01*
X0035928Y0023181D01*
X0035969Y0023161D01*
X0036009Y0023137D01*
X0036046Y0023111D01*
X0036081Y0023081D01*
X0036114Y0023049D01*
X0036144Y0023014D01*
X0036171Y0022977D01*
X0036195Y0022938D01*
X0036216Y0022897D01*
X0036233Y0022854D01*
X0036247Y0022810D01*
X0036257Y0022766D01*
X0036263Y0022720D01*
X0036266Y0022674D01*
X0036265Y0022628D01*
X0036260Y0022582D01*
X0036251Y0022537D01*
X0036239Y0022493D01*
X0036223Y0022450D01*
X0036204Y0022408D01*
X0036181Y0022368D01*
X0034558Y0019791D01*
X0036467Y0020363D02*
X0036465Y0020401D01*
X0036461Y0020439D01*
X0036453Y0020477D01*
X0036443Y0020514D01*
X0036429Y0020550D01*
X0036413Y0020584D01*
X0036393Y0020618D01*
X0036372Y0020649D01*
X0039328Y0024550D02*
X0039709Y0024550D01*
X0028483Y0040491D02*
X0027529Y0040491D01*
X0027529Y0042782D01*
X0029056Y0041063D02*
X0029054Y0041018D01*
X0029049Y0040973D01*
X0029040Y0040929D01*
X0029028Y0040886D01*
X0029012Y0040844D01*
X0028994Y0040803D01*
X0028972Y0040764D01*
X0028947Y0040726D01*
X0028919Y0040691D01*
X0028888Y0040658D01*
X0028855Y0040627D01*
X0028820Y0040599D01*
X0028782Y0040574D01*
X0028743Y0040552D01*
X0028702Y0040534D01*
X0028660Y0040518D01*
X0028617Y0040506D01*
X0028573Y0040497D01*
X0028528Y0040492D01*
X0028483Y0040490D01*
X0029056Y0041063D02*
X0029056Y0042782D01*
X0025891Y0042209D02*
X0025891Y0041063D01*
X0025889Y0041018D01*
X0025884Y0040973D01*
X0025875Y0040929D01*
X0025863Y0040886D01*
X0025847Y0040844D01*
X0025829Y0040803D01*
X0025807Y0040764D01*
X0025782Y0040726D01*
X0025754Y0040691D01*
X0025723Y0040658D01*
X0025690Y0040627D01*
X0025655Y0040599D01*
X0025617Y0040574D01*
X0025578Y0040552D01*
X0025537Y0040534D01*
X0025495Y0040518D01*
X0025452Y0040506D01*
X0025408Y0040497D01*
X0025363Y0040492D01*
X0025318Y0040490D01*
X0025318Y0040491D02*
X0024363Y0040491D01*
X0024363Y0039918D02*
X0024363Y0042782D01*
X0025318Y0042782D01*
X0025363Y0042780D01*
X0025408Y0042775D01*
X0025452Y0042766D01*
X0025495Y0042754D01*
X0025537Y0042738D01*
X0025578Y0042720D01*
X0025617Y0042698D01*
X0025655Y0042673D01*
X0025690Y0042645D01*
X0025723Y0042614D01*
X0025754Y0042581D01*
X0025782Y0042546D01*
X0025807Y0042508D01*
X0025829Y0042469D01*
X0025847Y0042428D01*
X0025863Y0042386D01*
X0025875Y0042343D01*
X0025884Y0042299D01*
X0025889Y0042254D01*
X0025891Y0042209D01*
X0024363Y0039918D02*
X0024365Y0039873D01*
X0024370Y0039828D01*
X0024379Y0039784D01*
X0024391Y0039741D01*
X0024407Y0039699D01*
X0024425Y0039658D01*
X0024447Y0039619D01*
X0024472Y0039581D01*
X0024500Y0039546D01*
X0024531Y0039513D01*
X0024564Y0039482D01*
X0024599Y0039454D01*
X0024637Y0039429D01*
X0024676Y0039407D01*
X0024717Y0039389D01*
X0024759Y0039373D01*
X0024802Y0039361D01*
X0024846Y0039352D01*
X0024891Y0039347D01*
X0024936Y0039345D01*
X0025700Y0039345D01*
X0022837Y0040491D02*
X0022646Y0040491D01*
X0022646Y0040682D01*
X0022837Y0040682D01*
X0022837Y0040491D01*
X0021052Y0040491D02*
X0021052Y0042782D01*
X0019334Y0042782D01*
X0019907Y0042782D02*
X0019907Y0040491D01*
X0018761Y0040491D02*
X0018761Y0042209D01*
X0018763Y0042254D01*
X0018768Y0042299D01*
X0018777Y0042343D01*
X0018789Y0042386D01*
X0018805Y0042428D01*
X0018823Y0042469D01*
X0018845Y0042508D01*
X0018870Y0042546D01*
X0018898Y0042581D01*
X0018929Y0042614D01*
X0018962Y0042645D01*
X0018997Y0042673D01*
X0019035Y0042698D01*
X0019074Y0042720D01*
X0019115Y0042738D01*
X0019157Y0042754D01*
X0019200Y0042766D01*
X0019244Y0042775D01*
X0019289Y0042780D01*
X0019334Y0042782D01*
X0017009Y0042018D02*
X0017009Y0041063D01*
X0017007Y0041018D01*
X0017002Y0040973D01*
X0016993Y0040929D01*
X0016981Y0040886D01*
X0016965Y0040844D01*
X0016947Y0040803D01*
X0016925Y0040764D01*
X0016900Y0040726D01*
X0016872Y0040691D01*
X0016841Y0040658D01*
X0016808Y0040627D01*
X0016773Y0040599D01*
X0016735Y0040574D01*
X0016696Y0040552D01*
X0016655Y0040534D01*
X0016613Y0040518D01*
X0016570Y0040506D01*
X0016526Y0040497D01*
X0016481Y0040492D01*
X0016436Y0040490D01*
X0016436Y0040491D02*
X0015481Y0040491D01*
X0015481Y0041636D02*
X0017009Y0041636D01*
X0017009Y0042018D02*
X0017007Y0042073D01*
X0017001Y0042127D01*
X0016992Y0042180D01*
X0016978Y0042233D01*
X0016961Y0042285D01*
X0016940Y0042335D01*
X0016916Y0042384D01*
X0016888Y0042431D01*
X0016857Y0042476D01*
X0016822Y0042518D01*
X0016785Y0042558D01*
X0016745Y0042595D01*
X0016703Y0042630D01*
X0016658Y0042661D01*
X0016611Y0042689D01*
X0016562Y0042713D01*
X0016512Y0042734D01*
X0016460Y0042751D01*
X0016407Y0042765D01*
X0016354Y0042774D01*
X0016300Y0042780D01*
X0016245Y0042782D01*
X0016190Y0042780D01*
X0016136Y0042774D01*
X0016083Y0042765D01*
X0016030Y0042751D01*
X0015978Y0042734D01*
X0015928Y0042713D01*
X0015879Y0042689D01*
X0015832Y0042661D01*
X0015787Y0042630D01*
X0015745Y0042595D01*
X0015705Y0042558D01*
X0015668Y0042518D01*
X0015633Y0042476D01*
X0015602Y0042431D01*
X0015574Y0042384D01*
X0015550Y0042335D01*
X0015529Y0042285D01*
X0015512Y0042233D01*
X0015498Y0042180D01*
X0015489Y0042127D01*
X0015483Y0042073D01*
X0015481Y0042018D01*
X0015481Y0041636D01*
X0013253Y0027224D02*
X0013253Y0026460D01*
X0013251Y0026405D01*
X0013245Y0026351D01*
X0013236Y0026298D01*
X0013222Y0026245D01*
X0013205Y0026193D01*
X0013184Y0026143D01*
X0013160Y0026094D01*
X0013132Y0026047D01*
X0013101Y0026002D01*
X0013066Y0025960D01*
X0013029Y0025920D01*
X0012989Y0025883D01*
X0012947Y0025848D01*
X0012902Y0025817D01*
X0012855Y0025789D01*
X0012806Y0025765D01*
X0012756Y0025744D01*
X0012704Y0025727D01*
X0012651Y0025713D01*
X0012598Y0025704D01*
X0012544Y0025698D01*
X0012489Y0025696D01*
X0012434Y0025698D01*
X0012380Y0025704D01*
X0012327Y0025713D01*
X0012274Y0025727D01*
X0012222Y0025744D01*
X0012172Y0025765D01*
X0012123Y0025789D01*
X0012076Y0025817D01*
X0012031Y0025848D01*
X0011989Y0025883D01*
X0011949Y0025920D01*
X0011912Y0025960D01*
X0011877Y0026002D01*
X0011846Y0026047D01*
X0011818Y0026094D01*
X0011794Y0026143D01*
X0011773Y0026193D01*
X0011756Y0026245D01*
X0011742Y0026298D01*
X0011733Y0026351D01*
X0011727Y0026405D01*
X0011725Y0026460D01*
X0011725Y0027224D01*
X0011727Y0027279D01*
X0011733Y0027333D01*
X0011742Y0027386D01*
X0011756Y0027439D01*
X0011773Y0027491D01*
X0011794Y0027541D01*
X0011818Y0027590D01*
X0011846Y0027637D01*
X0011877Y0027682D01*
X0011912Y0027724D01*
X0011949Y0027764D01*
X0011989Y0027801D01*
X0012031Y0027836D01*
X0012076Y0027867D01*
X0012123Y0027895D01*
X0012172Y0027919D01*
X0012222Y0027940D01*
X0012274Y0027957D01*
X0012327Y0027971D01*
X0012380Y0027980D01*
X0012434Y0027986D01*
X0012489Y0027988D01*
X0012544Y0027986D01*
X0012598Y0027980D01*
X0012651Y0027971D01*
X0012704Y0027957D01*
X0012756Y0027940D01*
X0012806Y0027919D01*
X0012855Y0027895D01*
X0012902Y0027867D01*
X0012947Y0027836D01*
X0012989Y0027801D01*
X0013029Y0027764D01*
X0013066Y0027724D01*
X0013101Y0027682D01*
X0013132Y0027637D01*
X0013160Y0027590D01*
X0013184Y0027541D01*
X0013205Y0027491D01*
X0013222Y0027439D01*
X0013236Y0027386D01*
X0013245Y0027333D01*
X0013251Y0027279D01*
X0013253Y0027224D01*
M02*
